<?xml version="1.0" encoding="utf-8"?>
<!-- Generator: Adobe Illustrator 22.0.0, SVG Export Plug-In . SVG Version: 6.00 Build 0)  -->
<svg version="1.1" id="Layer_1" xmlns="http://www.w3.org/2000/svg" xmlns:xlink="http://www.w3.org/1999/xlink" x="0px" y="0px"
	 viewBox="0 0 841.9 355" style="enable-background:new 0 0 841.9 355;" xml:space="preserve">
<style type="text/css">
	.st0{fill:#007DC4;}
	.st1{fill:#FFFFFF;}
</style>
<g>
	<path class="st0" d="M469.4,184.7c-6.4,0-11.7,0.1-16.8,0.1v64.3c5.1,0,10.7,0.1,16.8,0.1c14.9,0,19.4-7.3,19.4-32.2
		C488.7,192.1,484.2,184.7,469.4,184.7z"/>
	<path class="st0" d="M430.6,264.5v-94.9c11.4-0.7,23.6-1.2,38.7-1.2c9.6,0,17.2,1.1,23.3,3.6c-15.6-26.7-44.7-44.7-77.9-44.7
		c-3.1,0-6.2,0.2-9.2,0.5C390,80.7,345.9,46.9,293.8,46.9c-44.4,0-83,24.5-103,60.8c-12.3-5.1-25.7-7.9-39.9-7.9
		C93.5,99.7,47,146.3,47,203.6c0,57.4,46.5,103.9,103.9,103.9h263.9c33.5,0,62.8-18.3,78.3-45.5c-6.1,2.6-13.9,3.7-23.7,3.7
		C454.3,265.7,442,265.2,430.6,264.5z"/>
	<path class="st1" d="M153.4,171.1l-1.9,15.7c-9.4-0.5-15.5-0.7-28-0.7c-14.5,0-18.8,7-18.8,31c0,23.9,4.3,31,18.8,31
		c13.3,0,21.2-0.1,30-1.2l1.9,15.5c-9.2,2.8-17.6,3.8-31.9,3.8c-30.8,0-41.9-12.9-41.9-49.1c0-36.2,11.1-49.1,41.9-49.1
		C137.5,167.9,144.3,168.9,153.4,171.1z"/>
	<path class="st1" d="M188.4,240.4c0,5,2.2,7,7.8,7h34.2l1,16c-13.3,1.4-28,1.5-42.2,1.5c-16,0-22.8-8.5-22.8-20.2v-75.1h22V240.4z"
		/>
	<path class="st1" d="M321.3,217c0,38.1-11.3,49.3-42.8,49.3c-31.5,0-42.6-11.1-42.6-49.3c0-38.1,11.1-49.3,42.6-49.3
		C310,167.8,321.3,178.9,321.3,217z M259,217c0,25.2,4.5,32.3,19.5,32.3c15,0,19.5-7.2,19.5-32.3c0-25.2-4.5-32.3-19.5-32.3
		C263.5,184.7,259,191.8,259,217z"/>
	<path class="st1" d="M414.2,226.7c0,29-10.4,39.6-38.9,39.6c-30.1,0-40.9-10.6-40.9-39.6v-57.1h22v57.1c0,17.5,4.3,22.7,17.9,22.7
		c13.3,0,17.8-5.2,17.8-22.7v-57.1h22.1V226.7z"/>
	<path class="st1" d="M492.6,171.9c-6.1-2.5-13.7-3.6-23.3-3.6c-15.2,0-27.3,0.6-38.7,1.2v94.9c11.4,0.7,23.7,1.2,38.7,1.2
		c9.8,0,17.6-1.1,23.7-3.7c7.5-13.2,11.9-28.4,11.9-44.7C504.9,200.7,500.5,185.2,492.6,171.9z M469.4,249.2
		c-6.1,0-11.7-0.1-16.8-0.1v-64.3c5.1,0,10.4-0.1,16.8-0.1c14.9,0,19.4,7.4,19.4,32.3C488.7,241.9,484.2,249.2,469.4,249.2z"/>
	<g>
		<path class="st0" d="M604.8,264.5h-22v-42.4h-35.3v42.4h-22v-94.9h22v36.3h35.3v-36.3h22V264.5z"/>
		<path class="st0" d="M701.1,226.7c0,29-10.4,39.6-38.9,39.6c-30.1,0-40.9-10.6-40.9-39.6v-57.1h22v57.1c0,17.5,4.3,22.7,17.9,22.7
			c13.3,0,17.8-5.2,17.8-22.7v-57.1h22.1V226.7z"/>
		<path class="st0" d="M772.8,215.5c15.3,1.2,20.7,10.2,20.7,25.3c0,19.5-10,24.8-33.8,24.8c-19.1,0-29.5-0.1-42-1.1v-94.9
			c11.3-1,20.7-1.1,37.4-1.1c26,0,35.2,5.2,35.2,24.8c0,13.6-5.1,20.6-17.5,21.7V215.5z M754,184.3h-14.9v24.1h16
			c10.7,0,14-2.5,14-12.2C769.2,186.5,765.6,184.3,754,184.3z M755.9,249.8c12,0,15.5-2.3,15.5-12.9c0-11.6-3.6-14.4-16-14.6h-16.2
			v27.5H755.9z"/>
	</g>
</g>
</svg>
