<?xml version="1.0" encoding="utf-8"?>
<!-- Generator: Adobe Illustrator 23.1.0, SVG Export Plug-In . SVG Version: 6.00 Build 0)  -->
<svg version="1.1" id="레이어_1" xmlns="http://www.w3.org/2000/svg" xmlns:xlink="http://www.w3.org/1999/xlink" x="0px"
	 y="0px" viewBox="0 0 128 128" style="enable-background:new 0 0 128 128;" xml:space="preserve">
<style type="text/css">
	.st0{fill-rule:evenodd;clip-rule:evenodd;fill:url(#SVGID_1_);}
</style>
<linearGradient id="SVGID_1_" gradientUnits="userSpaceOnUse" x1="1.4941" y1="64.1543" x2="126.2148" y2="64.1543">
	<stop  offset="0" style="stop-color:#00AEEF"/>
	<stop  offset="1" style="stop-color:#004EA2"/>
</linearGradient>
<path class="st0" d="M110.43,58.88c0.01-0.32,0.01-0.63,0.01-0.94c0-1.88-0.17-3.79-0.5-5.71c0,0,0,0,0-0.01
	c-0.36-2.07-0.91-4.09-1.64-6.03c-4.18-11.04-14-19.09-25.63-21c-1.81-0.3-3.63-0.45-5.42-0.45c-10.16,0-19.54,4.51-25.88,12.41
	c-1.27-0.18-2.57-0.27-3.85-0.27c-10.71,0-20.47,6.33-24.87,16.13c-0.72,1.61-1.28,3.28-1.68,4.98c-1.48,0.23-2.96,0.61-4.42,1.14
	c0,0,0,0,0,0C7.55,62.43,1.49,71.07,1.49,80.65c0,6.64,2.89,12.95,7.93,17.31c4.17,3.61,9.48,5.59,14.97,5.59h19.98h58.94
	c4.93,0,9.65-1.57,13.63-4.53c2.08-1.55,3.86-3.38,5.28-5.46c0,0,0,0,0,0c2.61-3.82,3.99-8.28,3.99-12.91
	C126.21,70.7,119.79,61.93,110.43,58.88z M55.18,75.54c-1.09-1.66-2.96-2.75-5.09-2.75c-1.63,0-3.11,0.65-4.21,1.69L24.2,58.42
	c0.28-1.12,0.64-2.23,1.08-3.31l8.03-1.53l33.59-6.4c0.97,2.08,3.07,3.52,5.52,3.52c0.77,0,1.51-0.15,2.19-0.41l12.95,14.95
	c-0.55,0.81-0.92,1.77-1.03,2.79L55.18,75.54z M95.58,63.37c-0.88-0.5-1.9-0.78-2.98-0.78c-0.92,0-1.79,0.21-2.57,0.58L77.21,48.37
	c0.41-0.52,0.74-1.11,0.96-1.75l27.47,1.7c0.4,1.19,0.73,2.42,0.99,3.67L95.58,63.37z M104.28,45l-25.89-1.6
	c-0.27-1.34-0.98-2.51-1.97-3.38l6.81-11.44C92.42,30.44,100.24,36.57,104.28,45z M47.53,40.12c1.42,0,2.85,0.13,4.25,0.38
	c0.6,0.11,1.2-0.13,1.57-0.61c6.23-8.23,15.97-12.68,26.41-11.8L73.5,38.61c-0.35-0.06-0.72-0.1-1.09-0.1
	c-3.16,0-5.76,2.41-6.06,5.49l-39.22,7.47C31.48,44.49,39.18,40.12,47.53,40.12z M4.72,80.65c0-7.23,4.02-13.84,10.25-17.25
	L10.1,89.92l-0.64,3.5C6.42,89.88,4.72,85.36,4.72,80.65z M12.24,96.1l1.1-5.99l5.19-28.23c1.28-0.4,2.57-0.67,3.84-0.81
	l21.84,16.18c-0.14,0.52-0.22,1.06-0.22,1.62c0,2.01,0.98,3.8,2.49,4.91l-1.96,9.47l-1.46,7.08H24.4
	C19.99,100.33,15.71,98.83,12.24,96.1z M103.31,100.33H46.35l3.18-15.38c0.18,0.02,0.36,0.03,0.55,0.03c2.23,0,4.18-1.2,5.24-2.99
	l56.72,16.29C109.34,99.63,106.37,100.33,103.31,100.33z M115.65,95.96L56.18,78.87c0-0.09-0.01-0.17-0.01-0.26l30.9-7.38
	c0.97,2.09,3.08,3.54,5.53,3.54c1.55,0,2.96-0.58,4.03-1.53l22.09,19.64C117.82,94,116.79,95.03,115.65,95.96z M120.53,90.17
	L98.41,70.51c0.18-0.58,0.28-1.19,0.28-1.83c0-1.11-0.3-2.15-0.82-3.04l9.29-9.57c0.04,0.63,0.06,1.26,0.06,1.88
	c0,0.68-0.03,1.35-0.07,2.02c-0.05,0.77,0.45,1.47,1.2,1.67c8.62,2.28,14.64,10.1,14.64,19.03
	C122.99,84.01,122.14,87.27,120.53,90.17z"/>
</svg>
