<svg width="24" height="24" viewBox="0 0 24 24" fill="none" xmlns="http://www.w3.org/2000/svg">
  <mask id="a" fill="#fff">
    <path d="M12.885 2.085a.7.7 0 0 1 .105-.088c.369-.244 2.495-1.483 4.809.831s1.076 4.44.831 4.81a1 1 0 0 1-.088.104l-9.72 9.72a1 1 0 0 1-.442.258l-5.855 1.612a1 1 0 0 1-1.23-1.23l1.613-5.855a1 1 0 0 1 .257-.441z"/>
  </mask>
  <path d="m11.228 5.299 4.243 4.243 1.414-1.415-4.243-4.242zM2.525 19.332l-.53-1.928zm-1.23-1.23 1.929.531zm1.613-5.855 1.928.531zM8.38 17.72l-.53-1.929zM18.63 7.637l1.666 1.107zm-1.502-1.31-9.72 9.721 2.828 2.829 9.72-9.72zM4.579 13.22 14.3 3.5 11.472.67l-9.72 9.72zm3.27 2.571-5.855 1.613 1.062 3.856 5.855-1.612zm-4.625 2.842 1.612-5.855L.98 11.716l-1.613 5.855zm10.874-14.97a1.5 1.5 0 0 1 .684-.213c.279-.016.837.027 1.603.793l2.828-2.829c-1.548-1.548-3.21-2.043-4.665-1.957a5.5 5.5 0 0 0-2.665.875zm2.287.58c.766.766.809 1.323.792 1.602a1.5 1.5 0 0 1-.212.685l3.33 2.214a5.5 5.5 0 0 0 .876-2.664c.085-1.455-.41-3.118-1.958-4.666zm-14.39 13.16a1 1 0 0 1 1.229 1.23l-3.857-1.062c-.618 2.244 1.445 4.307 3.69 3.689zm-.244-7.011a3 3 0 0 0-.771 1.324l3.856 1.062a1 1 0 0 1-.257.442zm5.657 5.656a1 1 0 0 1 .441-.257l1.062 3.857a3 3 0 0 0 1.325-.771zm12.548-6.892c.092-.092.218-.229.34-.412L16.965 6.53c.07-.106.136-.175.163-.202zM14.3 3.5a1.3 1.3 0 0 1-.203.164L11.884.332c-.183.121-.32.247-.412.34z" fill="#f6f6f6" mask="url(#a)"/>
  <path d="M13 18.047c.332.43 2.538 3.375 2.917 2.902.413-.518.758-1.11 1.142-1.653 1.55-2.193 3.25-4.228 4.941-6.296" stroke="#4ED8A0" stroke-width="2" stroke-linecap="round"/>
</svg>
