<?xml version="1.0" encoding="UTF-8" standalone="no"?>
<!DOCTYPE svg PUBLIC "-//W3C//DTD SVG 1.1//EN" "http://www.w3.org/Graphics/SVG/1.1/DTD/svg11.dtd">
<svg version="1.1" xmlns="http://www.w3.org/2000/svg" xmlns:xlink="http://www.w3.org/1999/xlink" preserveAspectRatio="xMidYMid meet" viewBox="0 0 640 640" width="128" height="128"><defs><path d="" id="eBYUNsrMR"></path><path d="M532.89 377.99C532.89 408.39 521.69 437.19 500.89 459.59C500.89 461.03 500.89 472.55 500.89 473.99C500.89 499.59 480.09 521.99 452.89 521.99C439.45 521.99 331.93 521.99 318.49 521.99C292.89 521.99 270.49 501.19 270.49 473.99C270.49 464.39 278.49 457.99 286.49 457.99C294.49 457.99 302.49 464.39 302.49 473.99C302.49 481.99 308.89 489.99 318.49 489.99C331.93 489.99 439.45 489.99 452.89 489.99C460.89 489.99 468.89 483.59 468.89 473.99C468.89 472.07 468.89 456.71 468.89 454.79C468.89 453.19 468.89 451.59 468.89 449.99C468.89 448.39 468.89 448.39 468.89 448.39C468.89 446.79 470.49 445.19 472.09 443.59C489.69 425.99 499.29 403.59 499.29 379.59C499.29 366.31 499.29 260.07 499.29 246.79C499.29 241.99 497.69 238.79 494.49 235.59C492.89 233.99 486.49 229.19 478.49 230.79C472.09 232.39 465.69 240.39 465.69 248.39C465.69 252.23 465.69 282.95 465.69 286.79C465.69 296.39 457.69 302.79 449.69 302.79C441.69 302.79 433.69 296.39 433.69 286.79C433.69 277.99 433.69 207.59 433.69 198.79C433.69 193.99 432.09 190.79 428.89 187.59C425.69 184.39 422.49 182.79 417.69 182.79C409.69 182.79 401.69 190.79 401.69 198.79C401.69 207.59 401.69 277.99 401.69 286.79C401.69 296.39 393.69 302.79 385.69 302.79C377.69 302.79 369.69 296.39 369.69 286.79C369.69 273.19 369.69 164.39 369.69 150.79C369.69 145.99 368.09 142.79 364.89 139.59C361.69 136.39 358.49 134.79 353.69 134.79C345.69 134.79 337.69 142.79 337.69 150.79C337.69 164.39 337.69 273.19 337.69 286.79C337.69 296.39 329.69 302.79 321.69 302.79C313.69 302.79 305.69 296.39 305.69 286.79C305.69 266.63 305.69 105.35 305.69 85.19C305.69 80.39 304.09 77.19 300.89 73.99C299.29 72.39 292.89 67.59 284.89 69.19C278.49 70.79 272.09 78.79 272.09 86.79C272.09 106.31 272.09 262.47 272.09 281.99C272.09 288.39 268.89 294.79 262.49 296.39C256.09 299.59 249.69 297.99 244.89 293.19C240.73 289.03 207.45 255.75 203.29 251.59C193.69 241.99 177.69 241.99 168.09 253.19C160.09 262.79 161.69 277.19 171.29 286.79C182.49 297.99 272.09 387.59 283.29 398.79C289.69 405.19 289.69 414.79 283.29 421.19C280.09 424.39 275.29 425.99 272.09 425.99C267.29 425.99 264.09 424.39 260.89 421.19C249.69 409.83 160.09 318.95 148.89 307.59C128.09 286.79 124.89 251.59 144.09 230.79C155.29 217.99 171.29 209.99 187.29 209.99C201.69 209.99 216.09 216.39 227.29 225.99C228.25 226.95 233.05 231.75 241.69 240.39C241.69 149.19 241.69 98.52 241.69 88.39C241.69 65.99 256.09 45.19 278.49 40.39C294.49 35.59 312.09 40.39 323.29 53.19C332.89 62.79 337.69 73.99 337.69 86.79C337.69 88.71 337.69 104.07 337.69 105.99C342.49 104.39 348.89 102.79 353.69 102.79C366.49 102.79 377.69 107.59 387.29 117.19C396.89 126.79 401.69 137.99 401.69 150.79C401.69 151.11 401.69 153.67 401.69 153.99C406.49 152.39 412.89 150.79 417.69 150.79C430.49 150.79 441.69 155.59 451.29 165.19C460.89 174.79 465.69 185.99 465.69 198.79C465.69 199.11 465.69 201.67 465.69 201.99C467.29 201.99 468.89 200.39 470.49 200.39C486.49 195.59 504.09 200.39 515.29 213.19C528.09 221.19 532.89 233.99 532.89 245.19C532.89 271.75 532.89 364.71 532.89 377.99Z" id="b4fTwKQlJC"></path><linearGradient id="gradientc9oJ2y53L" gradientUnits="userSpaceOnUse" x1="381.75" y1="592.57" x2="381.75" y2="34.91"><stop style="stop-color: #00c9ff;stop-opacity: 1" offset="0%"></stop><stop style="stop-color: #0959ae;stop-opacity: 1" offset="100%"></stop></linearGradient><path d="" id="bAhHT13wt"></path><path d="" id="nex1ddhNo"></path></defs><g><g><g><use xlink:href="#eBYUNsrMR" opacity="1" fill="#000000" fill-opacity="1"></use><g><use xlink:href="#eBYUNsrMR" opacity="1" fill-opacity="0" stroke="#de2222" stroke-width="1" stroke-opacity="0"></use></g></g><g><use xlink:href="#b4fTwKQlJC" opacity="1" fill="url(#gradientc9oJ2y53L)"></use><g><use xlink:href="#b4fTwKQlJC" opacity="1" fill-opacity="0" stroke="#de2222" stroke-width="1" stroke-opacity="0"></use></g></g><g><g><use xlink:href="#bAhHT13wt" opacity="1" fill-opacity="0" stroke="#9b2727" stroke-width="1" stroke-opacity="0"></use></g></g><g><g><use xlink:href="#nex1ddhNo" opacity="1" fill-opacity="0" stroke="#9b2727" stroke-width="1" stroke-opacity="0"></use></g></g></g></g></svg>