<?xml version="1.0" encoding="iso-8859-1"?>
<!-- Generator: Adobe Illustrator 23.1.0, SVG Export Plug-In . SVG Version: 6.00 Build 0)  -->
<svg version="1.1"
	 id="svg3455" inkscape:version="0.91 r13725" sodipodi:docname="Map Pin.svg" xmlns:cc="http://creativecommons.org/ns#" xmlns:dc="http://purl.org/dc/elements/1.1/" xmlns:inkscape="http://www.inkscape.org/namespaces/inkscape" xmlns:rdf="http://www.w3.org/1999/02/22-rdf-syntax-ns#" xmlns:sodipodi="http://sodipodi.sourceforge.net/DTD/sodipodi-0.dtd" xmlns:svg="http://www.w3.org/2000/svg"
	 xmlns="http://www.w3.org/2000/svg" xmlns:xlink="http://www.w3.org/1999/xlink" x="0px" y="0px" viewBox="0 0 204.826 204.471"
	 style="enable-background:new 0 0 204.826 204.471;" xml:space="preserve">
<g>
	<g>
		<g>
			
				<linearGradient id="SVGID_1_" gradientUnits="userSpaceOnUse" x1="381.8972" y1="108.4482" x2="381.8972" y2="-93.4118" gradientTransform="matrix(1 0 0 -1 -279.4839 109.7872)">
				<stop  offset="0" style="stop-color:#EF8135"/>
				<stop  offset="0.1026" style="stop-color:#EF7C31"/>
				<stop  offset="1" style="stop-color:#EA5019"/>
			</linearGradient>
			<path style="fill:url(#SVGID_1_);" d="M195.068,203.199H9.758c-4.65,0-8.419-3.769-8.419-8.419V9.758
				c0-4.65,3.769-8.419,8.419-8.419h185.31c4.65,0,8.419,3.769,8.419,8.419V194.78C203.487,199.43,199.718,203.199,195.068,203.199z
				"/>
		</g>
	</g>
</g>
<g>
	<g>
		<g>
			
				<linearGradient id="SVGID_2_" gradientUnits="userSpaceOnUse" x1="2.940443e-04" y1="55.0244" x2="204.8263" y2="55.0244" gradientTransform="matrix(1 0 0 -1 0 157.2934)">
				<stop  offset="0" style="stop-color:#EA5019"/>
				<stop  offset="1" style="stop-color:#E64016"/>
			</linearGradient>
			<path style="fill:url(#SVGID_2_);" d="M195.068,204.538H9.758c-5.38,0-9.758-4.377-9.758-9.758V9.758C0,4.377,4.377,0,9.758,0
				h185.31c5.381,0,9.758,4.377,9.758,9.758V194.78C204.826,200.16,200.449,204.538,195.068,204.538z M9.758,2.677
				c-3.904,0-7.081,3.177-7.081,7.081V194.78c0,3.904,3.177,7.081,7.081,7.081h185.31c3.905,0,7.081-3.177,7.081-7.081V9.758
				c0-3.904-3.176-7.081-7.081-7.081C195.068,2.677,9.758,2.677,9.758,2.677z"/>
		</g>
	</g>
</g>
<sodipodi:namedview  bordercolor="#666666" borderopacity="1.0" fit-margin-bottom="0" fit-margin-left="0" fit-margin-right="0" fit-margin-top="0" id="base" inkscape:current-layer="layer1" inkscape:cx="8.4346812" inkscape:cy="14.715224" inkscape:document-units="px" inkscape:pageopacity="0.0" inkscape:pageshadow="2" inkscape:window-height="705" inkscape:window-maximized="1" inkscape:window-width="1024" inkscape:window-x="-4" inkscape:window-y="-4" inkscape:zoom="12.181359" pagecolor="#ffffff" showgrid="false">
	</sodipodi:namedview>
<g id="layer1" transform="translate(-814.59595,-274.38623)" inkscape:groupmode="layer" inkscape:label="Layer 1">
	<g id="g3477" transform="matrix(1.1855854,0,0,1.1855854,-151.17715,-57.3976)">
		<g>
			<path style="fill:#FFFFFF;" d="M901.051,439.892l-1.142-0.868c-0.862-0.668-1.155-1.33-2.553-7.435
				c-4.981-20.519-10.307-32.936-15.001-43.885c-3.82-7.279-7.279-13.147-10.332-18.322c-7.759-13.166-12.448-21.112-12.685-35.514
				c-0.162-9.67,3.952-20.17,10.737-27.411l0,0c8.365-8.927,20.026-14.14,31.431-13.883c11.405,0.237,23.116,5.6,31.313,14.358
				c6.792,7.248,10.912,17.748,10.756,27.417c-0.243,14.395-4.925,22.342-12.685,35.502c-3.046,5.181-6.511,11.049-10.419,18.509
				c-4.613,10.775-9.932,23.191-14.926,43.736c-1.211,5.319-1.542,6.754-3.208,7.335L901.051,439.892z"/>
		</g>
	</g>
</g>
<linearGradient id="SVGID_3_" gradientUnits="userSpaceOnUse" x1="69.7507" y1="57.0977" x2="135.0759" y2="74.6016">
	<stop  offset="0" style="stop-color:#EF8135"/>
	<stop  offset="0.1026" style="stop-color:#EF7C31"/>
	<stop  offset="1" style="stop-color:#EA5019"/>
</linearGradient>
<circle style="fill:url(#SVGID_3_);" cx="102.413" cy="65.85" r="33.806"/>
</svg>
