<?xml version="1.0" encoding="iso-8859-1"?>
<!-- Generator: Adobe Illustrator 23.1.0, SVG Export Plug-In . SVG Version: 6.00 Build 0)  -->
<svg version="1.1" id="&#xB808;&#xC774;&#xC5B4;_1" xmlns="http://www.w3.org/2000/svg" xmlns:xlink="http://www.w3.org/1999/xlink"
	 x="0px" y="0px" viewBox="0 0 136.258 91.871" style="enable-background:new 0 0 136.258 91.871;" xml:space="preserve">
<linearGradient id="SVGID_1_" gradientUnits="userSpaceOnUse" x1="5.1352" y1="-668.6934" x2="129.8552" y2="-668.6934" gradientTransform="matrix(1 0 0 -1 0 -622.9866)">
	<stop  offset="0" style="stop-color:#F58220"/>
	<stop  offset="1" style="stop-color:#E35833"/>
</linearGradient>
<linearGradient id="SVGID_2_" gradientUnits="userSpaceOnUse" x1="0.1352" y1="759.7068" x2="134.8552" y2="759.7068" gradientTransform="matrix(1 0 0 1 0 -714)">
	<stop  offset="0" style="stop-color:#F58220"/>
	<stop  offset="1" style="stop-color:#E35833"/>
</linearGradient>
<path style="fill-rule:evenodd;clip-rule:evenodd;fill:url(#SVGID_1_);stroke:url(#SVGID_2_);stroke-width:10;stroke-miterlimit:10;" d="
	M114.075,40.442c0.01-0.32,0.01-0.63,0.01-0.94c0-1.88-0.17-3.79-0.5-5.71c0,0,0,0,0-0.01c-0.36-2.07-0.91-4.09-1.64-6.03
	c-4.18-11.04-14-19.09-25.63-21c-1.81-0.3-3.63-0.45-5.42-0.45c-10.16,0-19.54,4.51-25.88,12.41c-1.27-0.18-2.57-0.27-3.85-0.27
	c-10.71,0-20.47,6.33-24.87,16.13c-0.72,1.61-1.28,3.28-1.68,4.98c-1.48,0.23-2.96,0.61-4.42,1.14l0,0
	c-9,3.3-15.06,11.94-15.06,21.52c0,6.64,2.89,12.95,7.93,17.31c4.17,3.61,9.48,5.59,14.97,5.59h19.98h58.94
	c4.93,0,9.65-1.57,13.63-4.53c2.08-1.55,3.86-3.38,5.28-5.46l0,0c2.61-3.82,3.99-8.28,3.99-12.91
	C129.855,52.262,123.435,43.492,114.075,40.442z"/>
<path style="fill-rule:evenodd;clip-rule:evenodd;fill:#FFFFFF;" d="M114.075,40.442c0.01-0.32,0.01-0.63,0.01-0.94
	c0-1.88-0.17-3.79-0.5-5.71c0,0,0,0,0-0.01c-0.36-2.07-0.91-4.09-1.64-6.03c-4.18-11.04-14-19.09-25.63-21
	c-1.81-0.3-3.63-0.45-5.42-0.45c-10.16,0-19.54,4.51-25.88,12.41c-1.27-0.18-2.57-0.27-3.85-0.27c-10.71,0-20.47,6.33-24.87,16.13
	c-0.72,1.61-1.28,3.28-1.68,4.98c-1.48,0.23-2.96,0.61-4.42,1.14l0,0c-9,3.3-15.06,11.94-15.06,21.52c0,6.64,2.89,12.95,7.93,17.31
	c4.17,3.61,9.48,5.59,14.97,5.59h19.98h58.94c4.93,0,9.65-1.57,13.63-4.53c2.08-1.55,3.86-3.38,5.28-5.46l0,0
	c2.61-3.82,3.99-8.28,3.99-12.91C129.855,52.262,123.435,43.492,114.075,40.442z M58.825,57.102c-1.09-1.66-2.96-2.75-5.09-2.75
	c-1.63,0-3.11,0.65-4.21,1.69l-21.68-16.06c0.28-1.12,0.64-2.23,1.08-3.31l8.03-1.53l33.59-6.4c0.97,2.08,3.07,3.52,5.52,3.52
	c0.77,0,1.51-0.15,2.19-0.41l12.95,14.95c-0.55,0.81-0.92,1.77-1.03,2.79L58.825,57.102z M99.225,44.932
	c-0.88-0.5-1.9-0.78-2.98-0.78c-0.92,0-1.79,0.21-2.57,0.58l-12.82-14.8c0.41-0.52,0.74-1.11,0.96-1.75l27.47,1.7
	c0.4,1.19,0.73,2.42,0.99,3.67L99.225,44.932z M107.925,26.562l-25.89-1.6c-0.27-1.34-0.98-2.51-1.97-3.38l6.81-11.44
	C96.065,12.002,103.885,18.132,107.925,26.562z M51.175,21.682c1.42,0,2.85,0.13,4.25,0.38c0.6,0.11,1.2-0.13,1.57-0.61
	c6.23-8.23,15.97-12.68,26.41-11.8l-6.26,10.52c-0.35-0.06-0.72-0.1-1.09-0.1c-3.16,0-5.76,2.41-6.06,5.49l-39.22,7.47
	C35.125,26.052,42.825,21.682,51.175,21.682z M8.365,62.212c0-7.23,4.02-13.84,10.25-17.25l-4.87,26.52l-0.64,3.5
	C10.065,71.442,8.365,66.922,8.365,62.212z M15.885,77.662l1.1-5.99l5.19-28.23c1.28-0.4,2.57-0.67,3.84-0.81l21.84,16.18
	c-0.14,0.52-0.22,1.06-0.22,1.62c0,2.01,0.98,3.8,2.49,4.91l-1.96,9.47l-1.46,7.08h-18.66
	C23.635,81.892,19.355,80.392,15.885,77.662z M106.955,81.892h-56.96l3.18-15.38c0.18,0.02,0.36,0.03,0.55,0.03
	c2.23,0,4.18-1.2,5.24-2.99l56.72,16.29C112.985,81.192,110.015,81.892,106.955,81.892z M119.295,77.522l-59.47-17.09
	c0-0.09-0.01-0.17-0.01-0.26l30.9-7.38c0.97,2.09,3.08,3.54,5.53,3.54c1.55,0,2.96-0.58,4.03-1.53l22.09,19.64
	C121.465,75.562,120.435,76.592,119.295,77.522z M124.175,71.732l-22.12-19.66c0.18-0.58,0.28-1.19,0.28-1.83
	c0-1.11-0.3-2.15-0.82-3.04l9.29-9.57c0.04,0.63,0.06,1.26,0.06,1.88c0,0.68-0.03,1.35-0.07,2.02c-0.05,0.77,0.45,1.47,1.2,1.67
	c8.62,2.28,14.64,10.1,14.64,19.03C126.635,65.572,125.785,68.832,124.175,71.732z"/>
</svg>
