<?xml version="1.0" encoding="iso-8859-1"?>
<!-- Generator: Adobe Illustrator 23.1.0, SVG Export Plug-In . SVG Version: 6.00 Build 0)  -->
<svg version="1.1" id="&#xB808;&#xC774;&#xC5B4;_1" xmlns="http://www.w3.org/2000/svg" xmlns:xlink="http://www.w3.org/1999/xlink"
	 x="0px" y="0px" viewBox="0 0 239.471 102.273" style="enable-background:new 0 0 239.471 102.273;" xml:space="preserve">
<g>
	<path style="fill:#00AEEF;" d="M0.01,51.137c0-14.57-0.017-29.14,0.008-43.709c0.01-5.882,1.489-7.407,7.308-7.412
		c29.295-0.025,58.59-0.027,87.885,0.003c5.602,0.006,7.134,1.494,7.218,7.05c0.1,6.621,0.084,13.246,0.006,19.867
		c-0.067,5.628-1.507,7.063-7.139,7.078c-15.646,0.042-31.292,0.002-46.938,0.016c-10.138,0.009-14.182,3.949-14.235,14.143
		c-0.081,15.563-0.001,31.126-0.031,46.689c-0.012,6.092-1.252,7.336-7.254,7.373c-6.658,0.041-13.316,0.06-19.974-0.006
		c-5.207-0.052-6.818-1.647-6.836-6.887C-0.022,80.607,0.01,65.872,0.01,51.137z"/>
	<path style="fill:#00AEEF;" d="M171.01,51.251c-0.001,14.564,0.016,29.129-0.009,43.693c-0.01,6.043-1.236,7.286-7.304,7.291
		c-29.118,0.022-58.236,0.02-87.354,0.001c-6.206-0.004-7.501-1.353-7.525-7.655c-0.024-6.455-0.042-12.91,0.005-19.364
		c0.042-5.677,1.313-6.933,7.136-6.946c15.64-0.034,31.281,0.011,46.921-0.019c10.918-0.021,14.039-3.078,14.065-13.817
		c0.037-15.392-0.001-30.784,0.013-46.176c0.006-7.055,1.245-8.244,8.49-8.253c6.323-0.008,12.646,0.06,18.968-0.023
		c4.565-0.06,6.666,1.923,6.633,6.581C170.944,21.459,171.01,36.355,171.01,51.251z"/>
	<path style="fill:#00AEEF;" d="M205.961,16.666c-0.002-3.47-0.004-6.939-0.001-10.409c0.003-3.979,1.844-6.238,6.002-6.247
		c7.143-0.016,14.285-0.008,21.428-0.002c3.859,0.003,5.941,2.025,5.995,5.768c0.111,7.598,0.131,15.202-0.026,22.799
		c-0.072,3.49-2.101,5.446-5.75,5.447c-7.309,0.004-14.617,0.017-21.926-0.006c-3.943-0.013-5.694-2.193-5.715-5.949
		C205.945,24.267,205.962,20.466,205.961,16.666z"/>
	<path style="fill:#00AEEF;" d="M222.487,68.262c3.654,0.001,7.309,0.04,10.962-0.01c3.953-0.054,5.878,2.045,5.935,5.759
		c0.112,7.433,0.117,14.87,0.011,22.303c-0.057,3.98-2.208,5.99-6.328,5.95c-6.975-0.069-13.952-0.045-20.928-0.009
		c-4.143,0.021-6.142-2.077-6.167-6.078c-0.046-7.269-0.014-14.539-0.014-21.808c0-4.021,1.885-6.164,6.065-6.114
		C215.51,68.294,218.999,68.261,222.487,68.262z"/>
</g>
</svg>
