<?xml version="1.0" encoding="iso-8859-1"?>
<!-- Generator: Adobe Illustrator 23.1.0, SVG Export Plug-In . SVG Version: 6.00 Build 0)  -->
<svg version="1.1" id="&#xB808;&#xC774;&#xC5B4;_1" xmlns="http://www.w3.org/2000/svg" xmlns:xlink="http://www.w3.org/1999/xlink"
	 x="0px" y="0px" viewBox="0 0 240.596 102.269" style="enable-background:new 0 0 240.596 102.269;" xml:space="preserve">
<linearGradient id="SVGID_1_" gradientUnits="userSpaceOnUse" x1="69.8538" y1="51.2041" x2="170.9984" y2="51.2041">
	<stop  offset="0" style="stop-color:#EF8135"/>
	<stop  offset="0.1026" style="stop-color:#EF7C31"/>
	<stop  offset="1" style="stop-color:#EA5019"/>
</linearGradient>
<path style="fill:url(#SVGID_1_);" d="M170.333,28.787l-14.971-8.646c-0.888-0.513-1.997,0.128-1.997,1.153v5.223h-31.508
	c-0.489-0.029-0.981-0.048-1.477-0.048c-6.981,0-13.292,2.912-17.793,7.579V18.266h5.222c1.025,0,1.665-1.11,1.153-1.997
	l-8.645-14.972c-0.512-0.888-1.794-0.888-2.306,0l-8.646,14.972c-0.513,0.888,0.128,1.997,1.153,1.997h5.223v30.84
	c-0.058,0.692-0.095,1.39-0.095,2.097c0,7.006,2.933,13.336,7.629,17.841H87.488v-5.222c0-1.025-1.11-1.665-1.997-1.153
	L70.52,71.315c-0.888,0.512-0.888,1.794,0,2.306l14.971,8.646c0.888,0.513,1.997-0.128,1.997-1.153v-5.223h31.414
	c0.489,0.029,0.98,0.048,1.476,0.048c7.031,0,13.381-2.953,17.888-7.679v15.882h-5.222c-1.025,0-1.665,1.11-1.153,1.997
	l8.645,14.972c0.512,0.888,1.794,0.888,2.306,0l8.646-14.972c0.513-0.888-0.128-1.998-1.153-1.997h-5.223V51.569h-0.009
	c0.002-0.122,0.009-0.243,0.009-0.365c0-7.006-2.932-13.336-7.629-17.841h15.88v5.222c0,1.025,1.11,1.665,1.997,1.153l14.971-8.645
	C171.22,30.581,171.22,29.3,170.333,28.787z M138.267,51.204c0,9.864-8.024,17.889-17.888,17.889c-0.107,0-0.212-0.006-0.318-0.008
	v-0.04h-0.923c-9.286-0.64-16.647-8.395-16.647-17.841c0-0.123,0.007-0.244,0.009-0.366h0.086v-1.482
	c0.928-8.999,8.554-16.041,17.793-16.041c0.138,0,0.275,0.007,0.412,0.01v0.037h0.829C130.907,34.004,138.267,41.758,138.267,51.204
	z"/>
</svg>
