<?xml version="1.0" encoding="utf-8"?>
<!-- Generator: Adobe Illustrator 23.1.0, SVG Export Plug-In . SVG Version: 6.00 Build 0)  -->
<svg version="1.1" id="Layer_1" xmlns="http://www.w3.org/2000/svg" xmlns:xlink="http://www.w3.org/1999/xlink" x="0px" y="0px"
	 viewBox="0 0 239.5 102.3" style="enable-background:new 0 0 239.5 102.3;" xml:space="preserve">
<style type="text/css">
	.st0{fill:#00AD7E;}
</style>
<path class="st0" d="M11.6,37.9H31c15.5,0,13.7,7.3,10.8,15.4s-6.3,15.4-21.7,15.4H0.8L11.6,37.9z M16.1,63h2.7
	c5.2,0,6.3-1.3,9.2-9.6c3-8.3,2.8-9.6-2.4-9.6h-2.7L16.1,63z M67.8,37.3c13.7,0,16.8,4.5,12.7,16s-10.4,16-24,16
	c-13.7,0-16.8-4.5-12.7-16C48,41.8,54.3,37.3,67.8,37.3 M58.5,63.9c4.1,0,5.3-2.2,8.3-10.6c3-8.3,3.3-10.6-0.8-10.6
	s-5.3,2.3-8.3,10.6C54.8,61.7,54.3,63.9,58.5,63.9 M106.7,37.3c13.7,0,16.8,4.5,12.7,16s-10.4,16-24,16c-13.7,0-16.8-4.5-12.7-16
	C86.7,41.8,92.9,37.3,106.7,37.3 M97.2,63.9c4.1,0,5.3-2.2,8.3-10.6c3-8.3,3.3-10.6-0.8-10.6c-4.1,0-5.3,2.3-8.3,10.6
	C93.4,61.7,93.1,63.9,97.2,63.9 M144.3,46.8l0.3-0.7c0.6-1.8,0-3.3-2.6-3.3c-2.9,0-4.7,1.3-5.1,2.7c-2.2,6.1,20.8,3.1,16.8,14.4
	c-2.3,6.6-9.8,9.5-21.6,9.5c-11.1,0-16.5-2.3-14.2-8.7l0.4-1.1h13l-0.3,0.7c-0.9,2.6,0.5,3.6,3.1,3.6c2.7,0,4.8-1.3,5.4-3
	c2.2-6.1-20-3.1-16.1-14c2.2-6.2,9-9.6,20.3-9.6c11.7,0,15.6,2.9,13.3,9.5L144.3,46.8L144.3,46.8z M172.9,37.9h16.8l1.6,30.9H177
	l0.5-5.4h-10.6l-3.3,5.4h-14.3L172.9,37.9z M179.3,44.2h-0.1l-8.4,13.1h7.5L179.3,44.2z M203.9,37.9h15l1.9,19h0.2l6.7-19h12.5
	l-10.9,30.8h-14.7l-2.2-19h-0.1l-6.8,19H193L203.9,37.9z"/>
</svg>
