<?xml version="1.0" encoding="iso-8859-1"?>
<!-- Generator: Adobe Illustrator 23.1.0, SVG Export Plug-In . SVG Version: 6.00 Build 0)  -->
<svg version="1.1" id="&#xB808;&#xC774;&#xC5B4;_1" xmlns="http://www.w3.org/2000/svg" xmlns:xlink="http://www.w3.org/1999/xlink"
	 x="0px" y="0px" viewBox="0 0 204.826 204.538" style="enable-background:new 0 0 204.826 204.538;" xml:space="preserve">
<g>
	<g>
		<g>
			
				<linearGradient id="SVGID_1_" gradientUnits="userSpaceOnUse" x1="381.8966" y1="48.8448" x2="381.8966" y2="250.7055" gradientTransform="matrix(1 0 0 1 -279.4839 -47.5062)">
				<stop  offset="0" style="stop-color:#EF8135"/>
				<stop  offset="0.1026" style="stop-color:#EF7C31"/>
				<stop  offset="1" style="stop-color:#EA5019"/>
			</linearGradient>
			<path style="fill:url(#SVGID_1_);" d="M195.068,203.199H9.758c-4.65,0-8.419-3.769-8.419-8.419V9.758
				c0-4.65,3.769-8.419,8.419-8.419h185.31c4.65,0,8.419,3.769,8.419,8.419V194.78C203.487,199.43,199.718,203.199,195.068,203.199z
				"/>
		</g>
	</g>
</g>
<g>
	<g>
		<g>
			<linearGradient id="SVGID_2_" gradientUnits="userSpaceOnUse" x1="0" y1="102.2689" x2="204.8258" y2="102.2689">
				<stop  offset="0" style="stop-color:#EA5019"/>
				<stop  offset="1" style="stop-color:#E64016"/>
			</linearGradient>
			<path style="fill:url(#SVGID_2_);" d="M195.068,204.538H9.758c-5.38,0-9.758-4.377-9.758-9.758V9.758C0,4.377,4.377,0,9.758,0
				h185.31c5.381,0,9.758,4.377,9.758,9.758V194.78C204.826,200.16,200.449,204.538,195.068,204.538z M9.758,2.677
				c-3.904,0-7.081,3.177-7.081,7.081V194.78c0,3.904,3.177,7.081,7.081,7.081h185.31c3.905,0,7.081-3.177,7.081-7.081V9.758
				c0-3.904-3.176-7.081-7.081-7.081H9.758z"/>
		</g>
	</g>
</g>
<path style="fill:#FFFFFF;" d="M102.413,145.624c-23.906,0-43.355-19.449-43.355-43.355s19.449-43.355,43.355-43.355
	c23.906,0,43.354,19.449,43.354,43.355S126.319,145.624,102.413,145.624z M102.413,70.914c-17.289,0-31.355,14.066-31.355,31.355
	s14.066,31.355,31.355,31.355s31.354-14.066,31.354-31.355S119.702,70.914,102.413,70.914z"/>
<g>
	<rect x="59.225" y="38.919" style="fill:#FFFFFF;" width="12" height="62.709"/>
	<g>
		<path style="fill:#FFFFFF;" d="M48.05,41.035l15.154-26.242c0.898-1.556,3.144-1.556,4.042,0l15.153,26.242
			c0.898,1.556-0.224,3.501-2.021,3.501H50.071C48.274,44.536,47.151,42.591,48.05,41.035z"/>
	</g>
</g>
<g>
	<rect x="133.767" y="102.909" style="fill:#FFFFFF;" width="12" height="62.709"/>
	<g>
		<path style="fill:#FFFFFF;" d="M156.942,163.503l-15.154,26.242c-0.898,1.556-3.144,1.556-4.042,0l-15.153-26.242
			c-0.898-1.556,0.224-3.501,2.021-3.501h30.307C156.718,160.001,157.841,161.947,156.942,163.503z"/>
	</g>
</g>
<g>
	<rect x="103.136" y="58.998" style="fill:#FFFFFF;" width="62.709" height="12"/>
	<g>
		<path style="fill:#FFFFFF;" d="M163.73,47.823l26.242,15.154c1.556,0.898,1.556,3.144,0,4.042L163.73,82.172
			c-1.556,0.898-3.501-0.224-3.501-2.021V49.844C160.229,48.047,162.174,46.924,163.73,47.823z"/>
	</g>
</g>
<g>
	<rect x="39.146" y="133.54" style="fill:#FFFFFF;" width="62.709" height="12"/>
	<g>
		<path style="fill:#FFFFFF;" d="M41.262,156.715L15.02,141.561c-1.556-0.898-1.556-3.144,0-4.042l26.242-15.153
			c1.556-0.898,3.501,0.224,3.501,2.021v30.307C44.763,156.491,42.818,157.614,41.262,156.715z"/>
	</g>
</g>
</svg>
