<?xml version="1.0" standalone="no"?>
<!DOCTYPE svg PUBLIC "-//W3C//DTD SVG 1.1//EN" "http://www.w3.org/Graphics/SVG/1.1/DTD/svg11.dtd" >
<svg xmlns="http://www.w3.org/2000/svg">
<metadata>Generated by IcoMoon</metadata>
<defs>
<font id="icomoon" horiz-adv-x="1024">
<font-face units-per-em="1024" ascent="798.7800586510264" descent="-225.21994134897358" />
<missing-glyph horiz-adv-x="1024" />
<glyph unicode="&#x20;" horiz-adv-x="512.5004887585533" d="" />
<glyph unicode="&#xe900;" glyph-name="crown-outline" d="M187.246-95.029c-28.216 0-51.3 20.52-58.996 46.17l-125.686 492.481c-5.13 17.956 2.566 38.476 17.956 48.736 15.39 12.826 35.91 12.826 53.866 2.566l233.416-148.77 166.726 246.24c7.696 12.826 23.086 20.52 38.476 20.52s30.78-7.696 38.476-20.52l169.29-246.24 233.416 148.77c15.39 10.26 38.476 10.26 53.866-2.566s23.086-30.78 17.956-51.3l-128.25-489.916c-7.696-28.216-30.78-46.17-58.996-46.17h-651.512zM202.636-28.339v0c0 0 0 0 0 0zM200.070-18.079h625.862l105.166 407.836-182.116-117.99c-28.216-17.956-64.126-10.26-82.080 15.39l-153.9 223.156-153.9-223.156c-17.956-25.65-53.866-33.346-82.080-17.956l-182.116 117.99 105.166-405.271zM995.223 430.797v0c0 0 0 0 0 0zM76.95 461.578v0c0 0 0 0 0 0zM949.053 461.578c0 0 0 0 0 0v0zM487.351 548.788c2.566 0 2.566 0 0 0v0zM536.087 548.788v0c0 0 0 0 0 0z" />
<glyph unicode="&#xe901;" glyph-name="caret-left" d="M282.151 202.512l338.581-338.581c33.346-33.346 92.34-10.26 92.34 38.476v713.072c0 48.736-58.996 74.386-92.34 38.476l-338.581-338.581c-30.78-30.78-30.78-82.080 0-112.86z" />
<glyph unicode="&#xe902;" glyph-name="caret-down" d="M595.082 53.741l338.581 338.581c33.346 33.346 10.26 92.34-38.476 92.34h-713.072c-48.736 0-74.386-58.996-38.476-92.34l338.581-338.581c30.78-30.78 82.080-30.78 112.86 0z" />
<glyph unicode="&#xe903;" glyph-name="caret-right" d="M743.852 315.372l-338.581 338.581c-33.346 33.346-92.34 10.26-92.34-38.476v-710.507c0-48.736 58.996-74.386 92.34-38.476l338.581 336.016c30.78 30.78 30.78 82.080 0 112.86z" />
<glyph unicode="&#xe904;" glyph-name="user-remove" d="M461.701 266.637c43.606 20.52 76.95 58.996 92.34 105.166-33.346 48.736-53.866 105.166-53.866 169.29 0 7.696 0 15.39 0 20.52-30.78 28.216-71.82 43.606-117.99 43.606-100.036 0-179.55-79.516-179.55-179.55 0-71.82 41.040-130.816 100.036-161.596-82.080-20.52-174.42-117.99-174.42-233.416v-146.206c0-12.826 7.696-25.65 17.956-25.65h477.091c10.26 0 17.956 10.26 17.956 25.65v146.206c-2.566 115.426-92.34 212.896-179.55 235.98zM795.153 771.944c-128.25 0-230.85-102.6-230.85-230.85s102.6-230.85 230.85-230.85 230.85 102.6 230.85 230.85-102.6 230.85-230.85 230.85zM936.227 528.268c0-12.826-12.826-25.65-25.65-25.65h-230.85c-12.826 0-25.65 12.826-25.65 25.65v25.65c0 12.826 12.826 25.65 25.65 25.65h230.85c12.826 0 25.65-12.826 25.65-25.65v-25.65z" />
<glyph unicode="&#xe905;" glyph-name="trash" d="M936.227 643.693h-194.94l-66.69 110.296c-5.13 10.26-17.956 17.956-30.78 17.956h-261.63c-12.826 0-25.65-7.696-33.346-17.956l-64.126-110.296h-194.94c-20.52 0-38.476-17.956-38.476-38.476v-102.6c0-20.52 17.956-38.476 38.476-38.476h846.453c20.52 0 38.476 17.956 38.476 38.476v102.6c0 20.52-17.956 38.476-38.476 38.476zM405.271 694.993h215.46l30.78-51.3h-277.021l30.78 51.3zM859.277 412.842h-692.552c-10.26 0-20.52-5.13-28.216-12.826s-10.26-17.956-10.26-28.216l51.3-589.952c2.566-20.52 17.956-35.91 38.476-35.91h589.952c20.52 0 35.91 15.39 38.476 35.91l51.3 589.952c0 10.26-2.566 20.52-10.26 28.216s-17.956 12.826-28.216 12.826z" />
<glyph unicode="&#xe906;" glyph-name="caret-up" d="M482.221 464.142l-338.581-338.581c-33.346-33.346-10.26-92.34 38.476-92.34h710.507c48.736 0 74.386 58.996 38.476 92.34l-336.016 338.581c-30.78 30.78-82.080 30.78-112.86 0z" />
<glyph unicode="&#xe907;" glyph-name="user-add" d="M461.701 266.637c43.606 20.52 76.95 58.996 92.34 105.166-33.346 48.736-53.866 105.166-53.866 169.29 0 7.696 0 15.39 0 20.52-30.78 28.216-71.82 43.606-117.99 43.606-100.036 0-179.55-79.516-179.55-179.55 0-71.82 41.040-130.816 100.036-161.596-82.080-20.52-174.42-117.99-174.42-233.416v-146.206c0-12.826 7.696-25.65 17.956-25.65h477.091c10.26 0 17.956 10.26 17.956 25.65v146.206c-2.566 115.426-92.34 212.896-179.55 235.98zM795.153 771.944c-128.25 0-230.85-102.6-230.85-230.85s102.6-230.85 230.85-230.85 230.85 102.6 230.85 230.85-102.6 230.85-230.85 230.85zM936.227 528.268c0-12.826-12.826-25.65-25.65-25.65h-76.95v-76.95c0-12.826-12.826-25.65-25.65-25.65h-25.65c-12.826 0-25.65 12.826-25.65 25.65v76.95h-76.95c-12.826 0-25.65 12.826-25.65 25.65v25.65c0 12.826 12.826 25.65 25.65 25.65h76.95v76.95c0 12.826 12.826 25.65 25.65 25.65h25.65c12.826 0 25.65-12.826 25.65-25.65v-76.95h76.95c12.826 0 25.65-12.826 25.65-25.65v-25.65z" />
<glyph unicode="&#xe908;" glyph-name="group" d="M743.852 330.762c58.996 28.216 100.036 89.776 100.036 161.596 0 100.036-79.516 179.55-179.55 179.55-64.126 0-120.556-33.346-153.9-84.646 46.17-41.040 76.95-102.6 76.95-171.856 0-56.43-20.52-110.296-56.43-151.336 71.82-51.3 133.38-141.076 133.38-243.676v-94.906h238.546c10.26 0 17.956 10.26 17.956 25.65v146.206c0 112.86-89.776 210.33-176.986 233.416zM436.051 253.812c58.996 28.216 100.036 89.776 100.036 161.596 0 100.036-79.516 179.55-179.55 179.55s-179.55-79.516-179.55-179.55c0-71.82 41.040-130.816 100.036-161.596-82.080-23.086-174.42-120.556-174.42-235.98v-143.64c0-12.826 7.696-25.65 17.956-25.65h477.091c10.26 0 17.956 10.26 17.956 25.65v146.206c-2.566 112.86-92.34 210.33-179.55 233.416z" />
<glyph unicode="&#xe909;" glyph-name="remove" horiz-adv-x="770" d="M511.879 258.942l236.622 236.622c25.008 25.008 25.008 66.049 0 90.416l-37.834 37.834c-25.008 25.008-66.049 25.008-90.416 0l-236.622-236.622-236.622 236.622c-25.008 25.008-66.049 25.008-90.416 0l-37.834-37.834c-25.008-25.008-25.008-66.049 0-90.416l236.622-236.622-236.622-236.622c-25.008-25.008-25.008-66.049 0-90.416l37.834-37.834c25.008-25.008 66.049-25.008 90.416 0l236.622 236.622 236.622-236.622c25.008-25.008 66.049-25.008 90.416 0l37.834 37.834c25.008 25.008 25.008 66.049 0 90.416l-236.622 236.622z" />
<glyph unicode="&#xe90a;" glyph-name="plus" d="M931.097 348.717h-302.671c-12.826 0-25.65 10.26-25.65 25.65v302.671c0 48.736-35.91 92.34-84.646 94.906-51.3 2.566-94.906-38.476-94.906-89.776v-307.801c0-12.826-10.26-25.65-25.65-25.65h-302.671c-48.736 0-92.34-35.91-94.906-84.646-2.566-51.3 38.476-94.906 89.776-94.906h307.801c12.826 0 25.65-10.26 25.65-25.65v-302.671c0-48.736 35.91-92.34 84.646-94.906 51.3-2.566 94.906 38.476 94.906 89.776v307.801c0 12.826 10.26 25.65 25.65 25.65h307.801c51.3 0 92.34 43.606 89.776 94.906-2.566 48.736-46.17 84.646-94.906 84.646z" />
<glyph unicode="&#xe90b;" glyph-name="cube" d="M987.527 500.052c0 0 0 2.566-2.566 2.566 0 2.566-2.566 5.13-2.566 5.13s-2.566 2.566-2.566 2.566c0 2.566-2.566 2.566-2.566 5.13 0 0-2.566 2.566-2.566 2.566s-2.566 2.566-2.566 2.566c0 0 0 0 0 0s0 0 0 0l-438.616 230.85c-10.26 5.13-25.65 5.13-35.91 0l-438.616-230.85c-5.13 2.566-7.696 0-10.26-2.566 0 0 0 0-2.566-2.566s-2.566-2.566-5.13-5.13c0 0 0-2.566-2.566-2.566 0 0 0 0 0 0 0-2.566-2.566-5.13-2.566-7.696 0 0 0 0 0 0 0-2.566 0-5.13 0-7.696 0 0 0 0 0 0v-461.701c0-15.39 7.696-28.216 20.52-33.346l438.616-230.85c2.566 0 2.566-2.566 5.13-2.566 0 0 2.566 0 2.566 0 2.566 0 7.696-2.566 10.26-2.566 5.13 0 12.826 2.566 17.956 5.13l438.616 230.85c12.826 7.696 20.52 20.52 20.52 33.346v459.136c0 2.566 0 7.696-2.566 10.26zM513.001 677.038l356.536-187.246-356.536-187.246-356.536 187.246 356.536 187.246zM112.86 425.667l361.666-189.81v-374.491l-361.666 189.81v374.491z" />
<glyph unicode="&#xe90c;" glyph-name="cog-thick" d="M987.527 364.107h-92.34c-7.696 30.78-20.52 61.56-35.91 89.776l64.126 64.126c15.39 15.39 15.39 41.040 0 53.866l-94.906 97.47c-15.39 15.39-41.040 15.39-53.866 0l-66.69-66.69c-28.216 15.39-56.43 28.216-87.21 35.91v94.906c0 20.52-17.956 38.476-38.476 38.476h-133.38c-20.52 0-38.476-17.956-38.476-38.476v-94.906c-30.78-7.696-61.56-20.52-87.21-35.91l-69.256 66.69c-15.39 15.39-41.040 15.39-56.43 0l-94.906-94.906c-15.39-15.39-15.39-41.040 0-56.43l64.126-64.126c-15.39-28.216-28.216-56.43-35.91-89.776h-92.34c-20.52 0-38.476-17.956-38.476-38.476v-133.38c0-20.52 17.956-38.476 38.476-38.476h92.34c7.696-30.78 20.52-61.56 35.91-89.776l-64.126-64.126c-15.39-15.39-15.39-41.040 0-53.866l94.906-97.47c15.39-15.39 41.040-15.39 53.866 0l66.69 66.69c28.216-15.39 56.43-28.216 87.21-35.91v-94.906c0-20.52 17.956-38.476 38.476-38.476h133.38c20.52 0 38.476 17.956 38.476 38.476v94.906c30.78 7.696 61.56 20.52 87.21 35.91l66.69-66.69c15.39-15.39 41.040-15.39 53.866 0l94.906 94.906c15.39 15.39 15.39 41.040 0 53.866l-64.126 64.126c15.39 28.216 28.216 56.43 35.91 89.776h92.34c20.52 0 38.476 17.956 38.476 38.476v133.38c5.13 25.65-12.826 41.040-33.346 41.040zM513.001 43.481c-117.99 0-215.46 97.47-215.46 215.46s97.47 215.46 215.46 215.46 215.46-97.47 215.46-215.46-97.47-215.46-215.46-215.46z" />
<glyph unicode="&#xe90d;" glyph-name="user" d="M589.952 292.287c58.996 28.216 100.036 89.776 100.036 161.596 0 100.036-79.516 179.55-179.55 179.55s-179.55-79.516-179.55-179.55c0-71.82 41.040-130.816 100.036-161.596-84.646-20.52-176.986-120.556-176.986-233.416v-146.206c0-12.826 7.696-25.65 17.956-25.65h477.091c10.26 0 17.956 10.26 17.956 25.65v146.206c0 112.86-89.776 210.33-176.986 233.416z" />
<glyph unicode="&#xe90e;" glyph-name="circle-thick" d="M513.001-138.635c-218.026 0-397.576 179.55-397.576 397.576s179.55 397.576 397.576 397.576 397.576-179.55 397.576-397.576-179.55-397.576-397.576-397.576zM513.001 476.968c-120.556 0-218.026-97.47-218.026-218.026s97.47-218.026 218.026-218.026 218.026 97.47 218.026 218.026-97.47 218.026-218.026 218.026z" />
<glyph unicode="&#xe90f;" glyph-name="export" d="M205.2 733.468h230.85c20.52 0 38.476-17.956 38.476-38.476s-17.956-38.476-38.476-38.476h-230.85c-48.736 0-89.776-41.040-89.776-89.776v-615.602c0-48.736 41.040-89.776 89.776-89.776h615.602c48.736 0 89.776 41.040 89.776 89.776v230.85c0 20.52 17.956 38.476 38.476 38.476s38.476-17.956 38.476-38.476v-230.85c0-92.34-74.386-166.726-166.726-166.726h-615.602c-92.34 0-166.726 74.386-166.726 166.726v615.602c0 92.34 74.386 166.726 166.726 166.726zM679.727 571.872l-89.776 89.776c-25.65 25.65-7.696 71.82 30.78 71.82h369.361v-369.361c0-38.476-46.17-56.43-71.82-30.78l-89.776 89.776-251.37-251.37c-41.040-41.040-105.166-41.040-146.206 0s-41.040 105.166 0 146.206l248.806 253.936z" />
<glyph unicode="&#xe910;" glyph-name="import" d="M820.803 733.468h-359.101c-20.52 0-38.476-17.956-38.476-38.476s17.956-38.476 38.476-38.476h359.101c48.736 0 89.776-41.040 89.776-89.776v-615.602c0-48.736-41.040-89.776-89.776-89.776h-615.602c-48.736 0-89.776 41.040-89.776 89.776v359.101c0 20.52-17.956 38.476-38.476 38.476s-38.476-17.956-38.476-38.476v-359.101c0-92.34 74.386-166.726 166.726-166.726h615.602c92.34 0 166.726 74.386 166.726 166.726v615.602c0 92.34-74.386 166.726-166.726 166.726zM384.751 240.987l-89.776-89.776c-25.65-25.65-7.696-71.82 30.78-71.82h366.796v369.361c0 38.476-46.17 56.43-71.82 30.78l-89.776-92.34-305.236 302.671c-41.040 41.040-105.166 41.040-146.206 0s-41.040-105.166 0-146.206l305.236-302.671z" />
<glyph unicode="&#xe911;" glyph-name="text-block" d="M1026.003 618.043c0-15.39-12.826-25.65-25.65-25.65h-538.652c-12.826 0-25.65 10.26-25.65 25.65v128.25c0 15.39 12.826 25.65 25.65 25.65h538.652c12.826 0 25.65-10.26 25.65-25.65v-128.25zM1026.003 335.892c0-12.826-12.826-25.65-25.65-25.65h-974.703c-15.39 0-25.65 12.826-25.65 25.65v128.25c0 15.39 10.26 25.65 25.65 25.65h974.703c12.826 0 25.65-10.26 25.65-25.65v-128.25zM1026.003 53.741c0-12.826-12.826-25.65-25.65-25.65h-974.703c-15.39 0-25.65 12.826-25.65 25.65v128.25c0 12.826 10.26 25.65 25.65 25.65h974.703c12.826 0 25.65-12.826 25.65-25.65v-128.25zM589.952-228.409c0-12.826-12.826-25.65-25.65-25.65h-538.652c-15.39 0-25.65 12.826-25.65 25.65v128.25c0 12.826 10.26 25.65 25.65 25.65h538.652c12.826 0 25.65-12.826 25.65-25.65v-128.25z" />
<glyph unicode="&#xe912;" glyph-name="okta" d="M818.237 646.258v-287.281c69.256 10.26 125.686 71.82 125.686 143.64s-56.43 135.946-125.686 143.64zM651.512 502.618c0-71.82 53.866-133.38 125.686-143.64v287.281c-71.82-7.696-125.686-69.256-125.686-143.64zM1026.003 502.618c0 125.686-102.6 228.286-228.286 228.286-48.736 0-94.906-15.39-130.816-41.040-58.996 25.65-125.686 41.040-194.94 41.040-259.066 0-471.961-210.33-471.961-471.961s212.896-471.961 471.961-471.961c261.63 0 471.961 212.896 471.961 471.961 0 23.086-2.566 46.17-5.13 66.69 53.866 43.606 87.21 107.73 87.21 176.986zM471.961-130.939c-215.46 0-389.881 174.42-389.881 389.881s176.986 389.881 389.881 389.881c46.17 0 89.776-7.696 130.816-23.086-15.39-23.086-25.65-48.736-30.78-76.95-30.78 10.26-64.126 17.956-100.036 17.956-169.29 0-307.801-138.51-307.801-307.801s138.51-307.801 307.801-307.801c169.29 0 307.801 138.51 307.801 307.801 0 5.13 0 12.826 0 17.956 5.13 0 12.826 0 17.956 0 23.086 0 43.606 2.566 64.126 10.26 0-7.696 2.566-17.956 2.566-25.65 0-218.026-176.986-392.446-392.446-392.446zM797.717 317.937c-102.6 0-187.246 84.646-187.246 187.246s84.646 187.246 187.246 187.246 187.246-84.646 187.246-187.246-84.646-187.246-187.246-187.246z" />
<glyph unicode="&#xe913;" glyph-name="bar-chart" d="M179.55 181.991c0 12.826-10.26 25.65-25.65 25.65h-128.25c-15.39 0-25.65-12.826-25.65-25.65v-410.401c0-12.826 10.26-25.65 25.65-25.65h128.25c15.39 0 25.65 12.826 25.65 25.65v410.401zM461.701 746.294c0 15.39-12.826 25.65-25.65 25.65h-128.25c-15.39 0-25.65-10.26-25.65-25.65v-974.703c0-12.826 10.26-25.65 25.65-25.65h128.25c12.826 0 25.65 12.826 25.65 25.65v974.703zM743.852 464.142c0 15.39-12.826 25.65-25.65 25.65h-128.25c-12.826 0-25.65-10.26-25.65-25.65v-692.552c0-12.826 12.826-25.65 25.65-25.65h128.25c12.826 0 25.65 12.826 25.65 25.65v692.552zM1026.003-48.859c0 12.826-12.826 25.65-25.65 25.65h-128.25c-12.826 0-25.65-12.826-25.65-25.65v-179.55c0-12.826 12.826-25.65 25.65-25.65h128.25c12.826 0 25.65 12.826 25.65 25.65v179.55z" />
<glyph unicode="&#xe914;" glyph-name="play" d="M784.892 287.157l-459.136 400.141c-17.956 15.39-43.606 2.566-43.606-17.956v-820.803c0-23.086 25.65-33.346 43.606-20.52l459.136 400.141c15.39 17.956 15.39 43.606 0 58.996z" />
<glyph unicode="&#xe915;" glyph-name="user-outline" d="M764.372-177.109h-507.871c-30.78 0-56.43 30.78-56.43 66.69v156.466c0 110.296 69.256 207.766 151.336 256.5-43.606 43.606-69.256 100.036-69.256 164.16 0 128.25 100.036 230.85 230.85 230.85 128.25 0 230.85-100.036 230.85-230.85 0-61.56-25.65-123.12-69.256-164.16 79.516-48.736 151.336-146.206 151.336-256.5v-156.466c-2.566-35.91-28.216-66.69-61.56-66.69zM274.456-100.159h469.396v143.64c0 100.036-82.080 189.81-159.030 210.33-15.39 5.13-28.216 17.956-28.216 33.346s7.696 30.78 20.52 38.476c51.3 25.65 84.646 79.516 84.646 138.51 0 84.646-66.69 153.9-153.9 153.9s-153.9-66.69-153.9-153.9c0-58.996 33.346-110.296 84.646-138.51 15.39-7.696 23.086-23.086 20.52-38.476s-12.826-28.216-28.216-33.346c-74.386-17.956-159.030-112.86-159.030-210.33v-143.64z" />
<glyph unicode="&#xe916;" glyph-name="search" d="M995.223-97.595l-202.636 202.636c41.040 64.126 64.126 135.946 64.126 218.026 0 225.72-182.116 407.836-407.836 407.836s-405.271-184.68-405.271-407.836 182.116-407.836 407.836-407.836c79.516 0 153.9 23.086 218.026 64.126l202.636-202.636c17.956-17.956 41.040-25.65 64.126-25.65s46.17 7.696 64.126 25.65c30.78 33.346 30.78 92.34-5.13 125.686zM146.206 323.067c0 166.726 135.946 302.671 302.671 302.671s305.236-135.946 305.236-305.236c0-79.516-30.78-151.336-79.516-205.2-2.566-2.566-7.696-5.13-10.26-7.696s-5.13-7.696-7.696-10.26c-53.866-48.736-125.686-79.516-205.2-79.516-169.29 0-305.236 135.946-305.236 305.236z" />
<glyph unicode="&#xe917;" glyph-name="duplicate" d="M923.403 771.944h-564.302c-56.43 0-102.6-46.17-102.6-102.6v-153.9h-153.9c-56.43 0-102.6-46.17-102.6-102.6v-564.302c0-56.43 46.17-102.6 102.6-102.6h564.302c56.43 0 102.6 46.17 102.6 102.6v153.9h153.9c56.43 0 102.6 46.17 102.6 102.6v564.302c0 56.43-46.17 102.6-102.6 102.6zM692.552-151.459c0-12.826-12.826-25.65-25.65-25.65h-564.302c-12.826 0-25.65 12.826-25.65 25.65v564.302c0 12.826 12.826 25.65 25.65 25.65h153.9v-333.451c0-56.43 46.17-102.6 102.6-102.6h333.451v-153.9z" />
<glyph unicode="&#xe918;" glyph-name="checkmark" d="M346.276-84.769l-271.891 271.891c-33.346 33.346-38.476 89.776-7.696 128.25 35.91 38.476 94.906 38.476 130.816 2.566l169.29-169.29c5.13-5.13 12.826-5.13 15.39 0l443.746 443.746c35.91 35.91 94.906 35.91 130.816-2.566 33.346-35.91 28.216-92.34-7.696-128.25l-543.782-543.782c-15.39-20.52-43.606-20.52-58.996-2.566z" />
<glyph unicode="&#xe919;" glyph-name="wrench" d="M200.070-223.279c-43.606 0-87.21 17.956-120.556 51.3-28.216 25.65-48.736 71.82-48.736 117.99 0 43.606 17.956 84.646 48.736 117.99l330.886 328.321c-2.566 17.956-5.13 35.91-5.13 53.866 0 161.596 133.38 294.976 294.976 294.976 35.91 0 66.69-7.696 92.34-15.39s41.040-28.216 43.606-48.736c2.566-17.956 0-35.91-10.26-51.3l-5.13-7.696-110.296-110.296c-2.566-2.566-5.13-5.13-5.13-7.696s2.566-5.13 5.13-7.696l38.476-38.476c5.13-5.13 12.826-5.13 17.956 0l107.73 107.73c12.826 17.956 38.476 25.65 58.996 20.52 20.52-2.566 41.040-17.956 48.736-41.040 7.696-28.216 15.39-58.996 15.39-94.906 0-161.596-133.38-294.976-294.976-294.976-17.956 0-35.91 2.566-53.866 5.13l-330.886-330.886c-33.346-30.78-74.386-48.736-117.99-48.736zM700.247 664.213c-120.556 0-218.026-97.47-218.026-218.026 0-20.52 2.566-35.91 7.696-58.996l5.13-20.52-359.101-359.101c-17.956-17.956-28.216-41.040-28.216-61.56 0-17.956 7.696-46.17 25.65-61.56 38.476-38.476 94.906-38.476 128.25-5.13l359.101 359.101 20.52-5.13c17.956-5.13 35.91-7.696 56.43-7.696 120.556 0 218.026 97.47 218.026 218.026 0 15.39-2.566 28.216-5.13 46.17l-89.776-92.34c-35.91-35.91-89.776-35.91-125.686 0l-38.476 38.476c-17.956 17.956-25.65 38.476-25.65 64.126 0 23.086 10.26 46.17 25.65 64.126l94.906 94.906c-20.52 2.566-35.91 5.13-51.3 5.13z" />
<glyph unicode="&#xe91a;" glyph-name="cubo-uniform" d="M1006.157 123.323l-109.59 471.236c-2.742 10.958-10.958 19.178-21.918 21.918l-463.016 142.466c-10.958 2.742-21.918 0-30.138-5.478l-353.426-331.507c-8.22-8.22-10.958-19.178-8.22-30.138l109.59-471.236c2.742-10.958 10.958-19.178 19.178-21.918l463.016-142.466c2.742 0 5.478 0 8.22 0 8.22 0 13.698 2.742 19.178 8.22l353.426 331.507c10.958 5.478 16.44 16.44 13.698 27.398zM576.021 465.788l84.93-369.866-364.383 112.328 279.454 257.534zM603.418 556.2l-101.37 109.59 249.314-76.714-147.944-32.876zM551.36 526.061l-309.588-290.411-147.944 161.644 309.588 290.411 147.944-161.644zM258.212 156.199l405.48-123.288-63.015-208.218-405.48 123.288 63.015 208.218zM726.707 27.432l147.944 32.876-189.041-178.084 41.096 145.208zM940.403 139.759l-213.701-49.316-95.892 413.7 213.701 49.316 95.892-413.7zM104.784 295.924l101.37-109.59-43.838-142.466-57.536 252.056z" />
<glyph unicode="&#xe91b;" glyph-name="collapse" d="M561.737 192.251c-2.566 2.566-5.13 5.13-7.696 7.696 0 0-2.566 2.566-2.566 2.566-2.566 0-2.566 2.566-5.13 2.566s-2.566 0-5.13 2.566c-2.566 0-2.566 0-5.13 2.566-2.566 0-7.696 0-10.26 0 0 0 0 0 0 0s0 0 0 0c-2.566 0-7.696 0-10.26 0s-2.566 0-5.13 0-2.566 0-5.13-2.566c-2.566 0-2.566-2.566-5.13-2.566s-2.566-2.566-5.13-2.566-5.13-5.13-7.696-7.696l-205.2-205.2c-20.52-20.52-20.52-51.3 0-71.82s51.3-20.52 71.82 0l117.99 117.99v-238.546c0-28.216 23.086-51.3 51.3-51.3s51.3 23.086 51.3 51.3v235.98l117.99-117.99c10.26-10.26 23.086-15.39 35.91-15.39s25.65 5.13 35.91 15.39c20.52 20.52 20.52 51.3 0 71.82l-202.636 205.2zM489.916 325.632c2.566-2.566 5.13-5.13 7.696-7.696 0 0 2.566-2.566 5.13-2.566s2.566-2.566 5.13-2.566c2.566 0 2.566 0 5.13-2.566 2.566 0 2.566 0 5.13-2.566 2.566 0 7.696 0 10.26 0s7.696 0 10.26 0c2.566 0 2.566 0 5.13 2.566 2.566 0 2.566 0 5.13 2.566 2.566 0 2.566 2.566 5.13 2.566 0 0 2.566 0 2.566 2.566 2.566 2.566 5.13 5.13 7.696 7.696l205.2 205.2c20.52 20.52 20.52 51.3 0 71.82s-51.3 20.52-71.82 0l-117.99-117.99v235.98c0 28.216-23.086 51.3-51.3 51.3s-51.3-23.086-51.3-51.3v-235.98l-117.99 117.99c-20.52 20.52-51.3 20.52-71.82 0s-20.52-51.3 0-71.82l202.636-205.2z" />
<glyph unicode="&#xe91c;" glyph-name="cog-outline" d="M574.562-254.059h-123.12c-41.040 0-74.386 33.346-74.386 74.386v58.996c-10.26 5.13-23.086 7.696-35.91 15.39l-41.040-41.040c-12.826-12.826-30.78-23.086-48.736-23.086-20.52 0-41.040 7.696-56.43 23.086l-87.21 89.776c-12.826 12.826-20.52 30.78-23.086 48.736 0 20.52 7.696 41.040 23.086 56.43l38.476 38.476c-5.13 12.826-10.26 25.65-15.39 35.91h-53.866c-41.040 0-74.386 33.346-74.386 74.386v123.12c0 41.040 33.346 74.386 74.386 74.386h56.43c5.13 12.826 10.26 25.65 15.39 35.91l-38.476 38.476c-28.216 28.216-28.216 76.95 0 107.73l87.21 87.21c28.216 28.216 79.516 28.216 107.73 0l43.606-41.040c10.26 5.13 23.086 10.26 35.91 15.39v58.996c0 41.040 33.346 74.386 74.386 74.386h123.12c41.040 0 74.386-33.346 74.386-74.386v-58.996c10.26-5.13 23.086-7.696 35.91-15.39l41.040 41.040c12.826 12.826 30.78 23.086 48.736 23.086 20.52 0 41.040-7.696 56.43-23.086l87.21-89.776c12.826-12.826 20.52-30.78 23.086-48.736 0-20.52-7.696-41.040-23.086-56.43l-38.476-38.476c5.13-12.826 10.26-25.65 15.39-35.91h56.43c20.52 0 41.040-10.26 53.866-25.65s17.956-33.346 15.39-53.866v-120.556c0-41.040-33.346-74.386-74.386-74.386h-56.43c-5.13-12.826-10.26-25.65-15.39-35.91l38.476-38.476c12.826-12.826 23.086-30.78 23.086-48.736 0-20.52-7.696-41.040-23.086-56.43l-87.21-87.21c-12.826-12.826-30.78-23.086-48.736-23.086-20.52 0-41.040 7.696-56.43 23.086l-41.040 41.040c-10.26-5.13-23.086-10.26-35.91-15.39v-58.996c-2.566-41.040-35.91-74.386-76.95-74.386zM454.006-177.109h117.99v115.426l28.216 7.696c25.65 5.13 48.736 15.39 69.256 28.216l25.65 15.39 79.516-79.516 82.080 82.080-76.95 76.95 12.826 25.65c15.39 28.216 23.086 48.736 28.216 74.386l7.696 30.78h112.86v120.556h-107.73l-7.696 28.216c-5.13 23.086-15.39 48.736-30.78 74.386l-12.826 25.65 76.95 76.95-82.080 84.646-79.516-79.516-25.65 12.826c-28.216 15.39-48.736 23.086-71.82 30.78l-28.216 7.696v112.86h-117.99v-115.426l-28.216-7.696c-25.65-5.13-48.736-15.39-69.256-28.216l-25.65-15.39-82.080 82.080-87.21-87.21 79.516-76.95-12.826-25.65c-15.39-28.216-23.086-48.736-30.78-74.386l-7.696-30.78h-110.296v-117.99h112.86l7.696-28.216c5.13-23.086 15.39-48.736 30.78-74.386l12.826-25.65-76.95-76.95 82.080-84.646 79.516 79.516 25.65-12.826c28.216-15.39 48.736-23.086 71.82-30.78l28.216-7.696v-112.86zM513.001 79.391c-100.036 0-179.55 79.516-179.55 179.55s79.516 179.55 179.55 179.55c100.036 0 179.55-79.516 179.55-179.55s-79.516-179.55-179.55-179.55zM513.001 361.542c-56.43 0-102.6-46.17-102.6-102.6s46.17-102.6 102.6-102.6c56.43 0 102.6 46.17 102.6 102.6s-46.17 102.6-102.6 102.6z" />
<glyph unicode="&#xe91d;" glyph-name="download" d="M407.836 238.422h-125.686c-35.91 0-56.43-46.17-28.216-71.82l259.066-259.066 261.63 261.63c28.216 28.216 7.696 71.82-28.216 71.82l-128.25-2.566-5.13 430.921c0 58.996-46.17 102.6-102.6 102.6-58.996 0-102.6-46.17-102.6-102.6v-430.921zM910.577 2.441v-51.3c0-48.736-41.040-89.776-89.776-89.776h-615.602c-48.736 0-89.776 41.040-89.776 89.776v51.3c0 20.52-17.956 38.476-38.476 38.476s-38.476-17.956-38.476-38.476v-51.3c0-92.34 74.386-166.726 166.726-166.726h615.602c92.34 0 166.726 74.386 166.726 166.726v51.3c0 20.52-17.956 38.476-38.476 38.476v0c-20.52 0-38.476-17.956-38.476-38.476z" />
<glyph unicode="&#xe91e;" glyph-name="wood" d="M230.85 535.962c-12.826-12.826-107.73-110.296-76.95-138.51 5.13-5.13 12.826-5.13 15.39 0 5.13 5.13 5.13 12.826 0 15.39-2.566 10.26 20.52 53.866 76.95 110.296 53.866 53.866 94.906 76.95 107.73 76.95 0-12.826-23.086-58.996-76.95-107.73-15.39-15.39-28.216-23.086-35.91-28.216 5.13 7.696 12.826 20.52 28.216 33.346 5.13 5.13 5.13 12.826 0 15.39-5.13 5.13-12.826 5.13-15.39 0-25.65-25.65-46.17-58.996-33.346-71.82s35.91-2.566 71.82 33.346c51.3 46.17 84.646 94.906 84.646 123.12 0 10.26-5.13 12.826-7.696 15.39-28.216 28.216-128.25-66.69-138.51-76.95zM961.877 212.772l-115.426 112.86 61.56 30.78c15.39 7.696 25.65 28.216 17.956 46.17-2.566 5.13-17.956 51.3-71.82 105.166s-94.906 64.126-102.6 66.69c-5.13 0-12.826 0-17.956 0l-105.166-28.216-161.596 161.596c-58.996 58.996-192.376 17.956-305.236-94.906-115.426-115.426-156.466-246.24-94.906-305.236l497.611-497.611c58.996-58.996 192.376-17.956 305.236 94.906 112.86 115.426 153.9 246.24 92.34 307.801zM117.99 361.542c-17.956 17.956 5.13 107.73 94.906 197.506s179.55 112.86 197.506 94.906c17.956-17.956-5.13-107.73-94.906-197.506-89.776-92.34-179.55-112.86-197.506-94.906zM813.107-41.164c-89.776-89.776-179.55-112.86-197.506-94.906l-423.226 423.226c0 0 2.566 0 2.566 0 2.566 0 7.696 2.566 10.26 2.566s7.696 2.566 10.26 2.566c2.566 2.566 7.696 2.566 10.26 5.13s7.696 2.566 10.26 5.13c2.566 2.566 7.696 2.566 10.26 5.13s7.696 2.566 10.26 5.13c2.566 0 2.566 2.566 5.13 2.566l159.030-112.86-102.6 151.336c2.566 2.566 5.13 2.566 7.696 5.13 5.13 5.13 10.26 7.696 15.39 12.826 2.566 2.566 5.13 5.13 7.696 7.696 7.696 7.696 15.39 12.826 23.086 20.52s15.39 15.39 20.52 23.086c2.566 2.566 5.13 5.13 7.696 7.696 5.13 5.13 7.696 10.26 12.826 15.39 2.566 2.566 5.13 5.13 7.696 10.26s7.696 7.696 10.26 12.826c2.566 2.566 5.13 7.696 7.696 10.26 2.566 5.13 5.13 7.696 7.696 12.826 2.566 2.566 5.13 7.696 5.13 10.26 2.566 5.13 5.13 7.696 7.696 12.826 2.566 2.566 2.566 7.696 5.13 10.26 2.566 5.13 5.13 7.696 5.13 10.26 2.566 2.566 2.566 7.696 5.13 10.26s2.566 7.696 5.13 10.26c2.566 2.566 2.566 7.696 2.566 10.26s2.566 7.696 2.566 10.26c0 0 0 2.566 0 2.566l56.43-56.43-10.26-2.566c-20.52-5.13-33.346-25.65-25.65-46.17 5.13-20.52 25.65-33.346 46.17-25.65l189.81 53.866c10.26-5.13 30.78-15.39 58.996-43.606 17.956-17.956 28.216-33.346 38.476-46.17l-135.946-71.82c-17.956-10.26-25.65-33.346-15.39-51.3 2.566-2.566 5.13-7.696 7.696-10.26 12.826-12.826 30.78-15.39 46.17-7.696l38.476 20.52 133.38-133.38c7.696-7.696 7.696-30.78-2.566-58.996l-128.25 94.906 94.906-161.596c-20.52-25.65-41.040-48.736-64.126-74.386z" />
<glyph unicode="&#xe91f;" glyph-name="eye" d="M513.001-71.945c-212.896 0-402.706 120.556-497.611 315.496l-7.696 15.39 7.696 15.39c92.34 194.94 282.151 315.496 497.611 315.496 212.896 0 402.706-120.556 497.611-315.496l7.696-15.39-7.696-15.39c-94.906-194.94-284.716-315.496-497.611-315.496zM94.906 258.942c82.080-156.466 241.11-253.936 418.096-253.936s336.016 97.47 418.096 253.936c-82.080 156.466-241.11 253.936-418.096 253.936s-336.016-97.47-418.096-253.936zM513.001 79.391c-100.036 0-179.55 79.516-179.55 179.55s79.516 179.55 179.55 179.55c100.036 0 179.55-79.516 179.55-179.55s-79.516-179.55-179.55-179.55zM513.001 361.542c-56.43 0-102.6-46.17-102.6-102.6s46.17-102.6 102.6-102.6c56.43 0 102.6 46.17 102.6 102.6s-46.17 102.6-102.6 102.6z" />
<glyph unicode="&#xe920;" glyph-name="clock" d="M513.001 707.818c-248.164 0-448.876-200.712-448.876-448.876s200.712-448.876 448.876-448.876 448.876 200.712 448.876 448.876c0 248.164-200.712 448.876-448.876 448.876zM769.502 194.817h-256.5c-35.268 0-64.126 28.856-64.126 64.126v256.5c0 35.268 28.856 64.126 64.126 64.126s64.126-28.856 64.126-64.126v-192.376h192.376c35.268 0 64.126-28.856 64.126-64.126s-28.856-64.126-64.126-64.126z" />
<glyph unicode="&#xe921;" glyph-name="alerts" d="M833.627-151.459h-641.252c-53.866 0-97.47 20.52-120.556 58.996-20.52 35.91-17.956 84.646 10.26 133.38l320.626 554.042c28.216 46.17 66.69 74.386 110.296 74.386s82.080-28.216 110.296-74.386l320.626-554.042c28.216-46.17 30.78-94.906 10.26-133.38-23.086-35.91-66.69-58.996-120.556-58.996zM513.001 592.393c-15.39 0-30.78-12.826-43.606-35.91l-320.626-554.042c-12.826-23.086-15.39-43.606-10.26-56.43 7.696-12.826 25.65-20.52 53.866-20.52h641.252c25.65 0 46.17 7.696 53.866 20.52s5.13 33.346-10.26 56.43l-320.626 554.042c-12.826 23.086-28.216 35.91-43.606 35.91zM513.001 181.991c-20.52 0-38.476 17.956-38.476 38.476v179.55c0 20.52 17.956 38.476 38.476 38.476s38.476-17.956 38.476-38.476v-179.55c0-20.52-17.956-38.476-38.476-38.476zM577.127 66.567c0-35.416-28.71-64.126-64.126-64.126s-64.126 28.71-64.126 64.126c0 35.416 28.71 64.126 64.126 64.126s64.126-28.71 64.126-64.126z" />
<glyph unicode="&#xe922;" glyph-name="plus-skinny" horiz-adv-x="770" d="M705.377 323.067h-256.5v256.5c0 35.268-28.856 64.126-64.126 64.126s-64.126-28.856-64.126-64.126v-256.5h-256.5c-35.268 0-64.126-28.856-64.126-64.126s28.856-64.126 64.126-64.126h256.5v-256.5c0-35.268 28.856-64.126 64.126-64.126s64.126 28.856 64.126 64.126v256.5h256.5c35.268 0 64.126 28.856 64.126 64.126s-28.856 64.126-64.126 64.126z" />
<glyph unicode="&#xe923;" glyph-name="capacitor2" d="M933.663 571.872c-28.216 48.736-92.34 66.69-141.076 38.476-38.476-23.086-56.43-69.256-48.736-110.296l-230.85-133.38-230.85 133.38c7.696 41.040-10.26 87.21-48.736 110.296-48.736 28.216-112.86 10.26-141.076-38.476s-10.26-112.86 38.476-141.076c38.476-23.086 87.21-15.39 117.99 12.826l230.85-133.38v-266.761c-41.040-12.826-71.82-51.3-71.82-97.47 0-56.43 46.17-102.6 102.6-102.6s102.6 46.17 102.6 102.6c0 46.17-30.78 84.646-71.82 97.47v266.761l230.85 133.38c33.346-28.216 79.516-35.91 117.99-12.826 53.866 28.216 71.82 92.34 43.606 141.076z" />
<glyph unicode="&#xe924;" glyph-name="graphline-2" d="M933.663 394.887c-25.65 15.39-56.43 17.956-82.080 7.696l-120.556 161.596c2.566 2.566 2.566 5.13 5.13 7.696 28.216 48.736 10.26 112.86-38.476 141.076s-112.86 10.26-141.076-38.476c-25.65-43.606-12.826-100.036 25.65-130.816l-197.506-546.347c-12.826 0-23.086-2.566-35.91-5.13l-120.556 159.030c2.566 2.566 2.566 5.13 5.13 7.696 28.216 48.736 10.26 112.86-38.476 141.076s-110.296 10.26-138.51-38.476-10.26-112.86 38.476-141.076c25.65-15.39 56.43-17.956 84.646-7.696l120.556-159.030c-2.566-2.566-2.566-2.566-5.13-5.13-28.216-48.736-10.26-112.86 38.476-141.076s112.86-10.26 141.076 38.476c25.65 46.17 12.826 102.6-25.65 133.38l192.376 541.217c12.826 0 23.086 2.566 35.91 5.13l120.556-159.030c-2.566-2.566-2.566-5.13-5.13-7.696-28.216-48.736-10.26-112.86 38.476-141.076s112.86-10.26 141.076 38.476 10.26 110.296-38.476 138.51z" />
<glyph unicode="&#xe925;" glyph-name="add-cell" d="M416.814 771.944h-384.751c-17.956 0-32.062-14.108-32.062-32.062v-384.751c0-17.956 14.108-32.062 32.062-32.062h384.751c17.956 0 32.062 14.108 32.062 32.062v384.751c0 17.956-14.108 32.062-32.062 32.062zM993.941 194.817h-384.751c-17.956 0-32.062-14.108-32.062-32.062v-384.751c0-17.956 14.108-32.062 32.062-32.062h384.751c17.956 0 32.062 14.108 32.062 32.062v384.751c0 17.956-14.108 32.062-32.062 32.062zM416.814 194.817h-384.751c-17.956 0-32.062-14.108-32.062-32.062v-384.751c0-17.956 14.108-32.062 32.062-32.062h384.751c17.956 0 32.062 14.108 32.062 32.062v384.751c0 17.956-14.108 32.062-32.062 32.062zM609.189 515.442h160.313v-160.313c0-17.956 14.108-32.062 32.062-32.062s32.062 14.108 32.062 32.062v160.313h160.313c17.956 0 32.062 14.108 32.062 32.062s-14.108 32.062-32.062 32.062h-160.313v160.313c0 17.956-14.108 32.062-32.062 32.062s-32.062-14.108-32.062-32.062v-160.313h-160.313c-17.956 0-32.062-14.108-32.062-32.062s14.108-32.062 32.062-32.062z" />
<glyph unicode="&#xe926;" glyph-name="alert-triangle" d="M1007.821-29.868l-439.143 768.5c-11.416 19.979-32.664 32.31-55.676 32.31s-44.26-12.33-55.676-32.31l-439.143-768.5c-11.342-19.846-11.26-44.23 0.214-64.001s32.604-31.938 55.462-31.938h878.287c22.858 0 43.99 12.168 55.462 31.938s11.556 44.154 0.214 64.001zM577.127 2.441h-128.25v128.25h128.25v-128.25zM577.127 194.817h-128.25v256.5h128.25v-256.5z" />
<glyph unicode="&#xe927;" glyph-name="dash-f" d="M320.626 348.717c0 28.216-23.086 51.3-51.3 51.3h-179.55c-28.216 0-51.3-23.086-51.3-51.3v-179.55c0-28.216 23.086-51.3 51.3-51.3h179.55c28.216 0 51.3 23.086 51.3 51.3v179.55zM320.626 682.168c0 28.216-23.086 51.3-51.3 51.3h-179.55c-28.216 0-51.3-23.086-51.3-51.3v-179.55c0-28.216 23.086-51.3 51.3-51.3h179.55c28.216 0 51.3 23.086 51.3 51.3v179.55zM602.777 451.317c28.216 0 51.3 23.086 51.3 51.3v179.55c0 28.216-23.086 51.3-51.3 51.3h-179.55c-28.216 0-51.3-23.086-51.3-51.3v-179.55c0-28.216 23.086-51.3 51.3-51.3h179.55zM654.077 348.717c0 28.216-23.086 51.3-51.3 51.3h-179.55c-28.216 0-51.3-23.086-51.3-51.3v-179.55c0-28.216 23.086-51.3 51.3-51.3h179.55c28.216 0 51.3 23.086 51.3 51.3v179.55zM89.776 66.567c-28.216 0-51.3-23.086-51.3-51.3v-179.55c0-28.216 23.086-51.3 51.3-51.3h179.55c28.216 0 51.3 23.086 51.3 51.3v179.55c0 28.216-23.086 51.3-51.3 51.3h-179.55zM423.226 66.567c-28.216 0-51.3-23.086-51.3-51.3v-179.55c0-28.216 23.086-51.3 51.3-51.3h179.55c28.216 0 51.3 23.086 51.3 51.3v179.55c0 28.216-23.086 51.3-51.3 51.3h-179.55zM756.677 733.468c-28.216 0-51.3-23.086-51.3-51.3v-179.55c0-28.216 23.086-51.3 51.3-51.3h179.55c28.216 0 51.3 23.086 51.3 51.3v179.55c0 28.216-23.086 51.3-51.3 51.3h-179.55zM705.377 169.167c0-28.216 23.086-51.3 51.3-51.3h179.55c28.216 0 51.3 23.086 51.3 51.3v179.55c0 28.216-23.086 51.3-51.3 51.3h-179.55c-28.216 0-51.3-23.086-51.3-51.3v-179.55zM705.377-164.285c0-28.216 23.086-51.3 51.3-51.3h179.55c28.216 0 51.3 23.086 51.3 51.3v179.55c0 28.216-23.086 51.3-51.3 51.3h-179.55c-28.216 0-51.3-23.086-51.3-51.3v-179.55z" />
<glyph unicode="&#xe928;" glyph-name="github" d="M513.009 759.276c-283.291 0-513.009-229.666-513.009-512.999 0-226.656 146.991-418.95 350.821-486.786 25.636-4.748 35.060 11.132 35.060 24.68 0 12.228-0.48 52.644-0.698 95.51-142.726-31.036-172.842 60.528-172.842 60.528-23.328 59.292-56.96 75.062-56.96 75.062-46.542 31.84 3.516 31.184 3.516 31.184 51.5-3.618 78.63-52.87 78.63-52.87 45.762-78.424 120.010-55.748 149.296-42.642 4.596 33.15 17.886 55.788 32.57 68.598-113.952 12.968-233.732 56.962-233.732 253.527 0 56.008 20.044 101.772 52.864 137.696-5.326 12.926-22.898 65.1 4.962 135.765 0 0 43.090 13.778 141.116-52.592 40.916 11.37 84.802 17.070 128.404 17.268 43.588-0.198 87.506-5.898 128.506-17.268 97.926 66.374 140.931 52.592 140.931 52.592 27.926-70.666 10.37-122.84 5.046-135.765 32.884-35.926 52.798-81.692 52.798-137.696 0-197.038-120.012-240.42-234.248-253.118 18.4-15.922 34.792-47.138 34.792-94.998 0-68.642-0.598-123.886-0.598-140.782 0-13.654 9.24-29.652 35.24-24.614 203.72 67.908 350.526 260.134 350.526 486.718 0 283.333-229.682 512.999-512.993 512.999z" />
<glyph unicode="&#xe929;" glyph-name="dash-h" d="M320.626 515.442c0 28.216-23.086 51.3-51.3 51.3h-179.55c-28.216 0-51.3-23.086-51.3-51.3v-179.55c0-28.216 23.086-51.3 51.3-51.3h179.55c28.216 0 51.3 23.086 51.3 51.3v179.55zM89.776 233.292c-28.216 0-51.3-23.086-51.3-51.3v-179.55c0-28.216 23.086-51.3 51.3-51.3h179.55c28.216 0 51.3 23.086 51.3 51.3v179.55c0 28.216-23.086 51.3-51.3 51.3h-179.55zM423.226 233.292c-28.216 0-51.3-23.086-51.3-51.3v-179.55c0-28.216 23.086-51.3 51.3-51.3h179.55c28.216 0 51.3 23.086 51.3 51.3v179.55c0 28.216-23.086 51.3-51.3 51.3h-179.55zM371.926 335.892c0-28.216 23.086-51.3 51.3-51.3h513.001c28.216 0 51.3 23.086 51.3 51.3v179.55c0 28.216-23.086 51.3-51.3 51.3h-513.001c-28.216 0-51.3-23.086-51.3-51.3v-179.55zM705.377 2.441c0-28.216 23.086-51.3 51.3-51.3h179.55c28.216 0 51.3 23.086 51.3 51.3v179.55c0 28.216-23.086 51.3-51.3 51.3h-179.55c-28.216 0-51.3-23.086-51.3-51.3v-179.55z" />
<glyph unicode="&#xe92a;" glyph-name="google" d="M523.221 332.285v-175.944h290.968c-11.824-75.548-87.972-221.232-290.968-221.232-175.142 0-318.021 145.084-318.021 323.832s142.879 323.832 318.021 323.832c99.594 0 166.324-42.482 204.399-79.154l139.272 134.062c-89.374 83.764-205.2 134.262-343.671 134.262-283.554 0-513.001-229.448-513.001-513.001s229.448-513.001 513.001-513.001c295.978 0 492.562 208.206 492.562 501.178 0 33.666-3.608 59.316-8.016 84.966l-484.546 0.2z" />
<glyph unicode="&#xe92b;" glyph-name="dash-j" d="M910.577 592.393h-795.153c-56.43 0-102.6-46.17-102.6-102.6v-461.701c0-56.43 46.17-102.6 102.6-102.6h795.153c56.43 0 102.6 46.17 102.6 102.6v461.701c0 56.43-46.17 102.6-102.6 102.6zM89.776 489.792c0 12.826 12.826 25.65 25.65 25.65h205.2v-218.026h-230.85v192.376zM115.426 2.441c-12.826 0-25.65 12.826-25.65 25.65v192.376h230.85v-218.026h-205.2zM397.576 2.441v218.026h230.85v-218.026h-230.85zM936.227 28.091c0-12.826-12.826-25.65-25.65-25.65h-205.2v218.026h230.85v-192.376zM397.576 297.417v218.026h513.001c12.826 0 25.65-12.826 25.65-25.65v-192.376h-538.652z" />
<glyph unicode="&#xe92c;" glyph-name="triangle" d="M833.627-151.459h-641.252c-53.866 0-97.47 20.52-120.556 58.996-20.52 35.91-17.956 84.646 10.26 133.38l320.626 554.042c28.216 46.17 66.69 74.386 110.296 74.386s82.080-28.216 110.296-74.386l320.626-554.042c28.216-46.17 30.78-94.906 10.26-133.38-23.086-35.91-66.69-58.996-120.556-58.996zM513.001 592.393c-15.39 0-30.78-12.826-43.606-35.91l-320.626-554.042c-12.826-23.086-15.39-43.606-10.26-56.43 7.696-12.826 25.65-20.52 53.866-20.52h641.252c25.65 0 46.17 7.696 53.866 20.52s5.13 33.346-10.26 56.43l-320.626 554.042c-12.826 23.086-28.216 35.91-43.606 35.91z" />
<glyph unicode="&#xe92d;" glyph-name="octagon" d="M687.422-202.759h-351.406c-10.26 0-20.52 5.13-28.216 10.26l-248.806 248.806c-7.696 7.696-10.26 17.956-10.26 28.216v351.406c0 10.26 5.13 20.52 10.26 28.216l248.806 248.806c7.696 7.696 17.956 10.26 28.216 10.26h351.406c10.26 0 20.52-5.13 28.216-10.26l248.806-248.806c7.696-7.696 10.26-17.956 10.26-28.216v-351.406c0-10.26-5.13-20.52-10.26-28.216l-248.806-248.806c-7.696-5.13-17.956-10.26-28.216-10.26zM353.971-125.809h318.061l225.72 225.72v318.061l-225.72 225.72h-318.061l-225.72-225.72v-318.061l225.72-225.72z" />
<glyph unicode="&#xe92e;" glyph-name="link" d="M769.502 515.442h-138.27c48.094-32.062 93.182-89.174 107.21-128.25h30.058c65.128 0 128.25-64.126 128.25-128.25s-65.128-128.25-128.25-128.25h-192.376c-63.124 0-128.25 64.126-128.25 128.25 0 23.045 7.014 45.088 18.036 64.126h-137.268c-5.010-21.042-8.016-42.082-8.016-64.126 0-128.25 127.248-256.5 255.499-256.5s65.128 0 193.378 0 256.5 128.25 256.5 256.5-128.25 256.5-256.5 256.5zM287.562 130.691h-30.058c-65.128 0-128.25 64.126-128.25 128.25s65.128 128.25 128.25 128.25h192.376c63.124 0 128.25-64.126 128.25-128.25 0-23.045-7.014-45.088-18.036-64.126h137.268c5.010 21.042 8.016 42.082 8.016 64.126 0 128.25-127.248 256.5-255.499 256.5s-65.128 0-193.378 0-256.5-128.25-256.5-256.5 128.25-256.5 256.5-256.5h138.27c-48.094 32.062-93.182 89.174-107.21 128.25z" />
<glyph unicode="&#xe92f;" glyph-name="pencil" horiz-adv-x="898" d="M705.377 707.818l-128.25-128.25 192.376-192.376 128.25 128.25-192.376 192.376zM0 2.441l0.69-192.938 191.686 0.564 513.001 513.001-192.376 192.376-513.001-513.001zM192.376-125.809h-128.25v128.25h64.126v-64.126h64.126v-64.126z" />
<glyph unicode="&#xe930;" glyph-name="star" horiz-adv-x="898" d="M897.753 387.192l-314.113 40.862-134.763 279.764-134.796-279.764-314.081-40.862 230.919-209.284-59.584-303.655 277.542 149.103 277.604-149.103-59.678 303.655 230.951 209.284z" />
<glyph unicode="&#xe931;" glyph-name="stop" d="M705.377 771.944h-384.751l-320.626-320.626v-384.751l320.626-320.626h384.751l320.626 320.626v384.751l-320.626 320.626zM897.753 130.691l-256.5-256.5h-256.5l-256.5 256.5v256.5l256.5 256.5h256.5l256.5-256.5v-256.5zM448.876 194.817h128.25v320.626h-128.25v-320.626zM448.876 2.441h128.25v128.25h-128.25v-128.25z" />
<glyph unicode="&#xe932;" glyph-name="zap" horiz-adv-x="642" d="M641.252 323.067h-256.5l192.376 448.876-577.127-577.127h256.5l-192.376-448.876 577.127 577.127z" />
<glyph unicode="&#xe933;" glyph-name="chat" horiz-adv-x="880" d="M806.144 588.728h-732.86c-36.643 0-73.286-36.643-73.286-73.286v-439.715c0-36.643 36.643-73.286 73.286-73.286h293.143l293.143-219.858v219.858h146.572c36.643 0 73.286 36.643 73.286 73.286v439.715c0 36.643-36.643 73.286-73.286 73.286z" />
<glyph unicode="&#xe936;" glyph-name="pulse-c" d="M400.141 205.077v105.166c0 7.696 5.13 15.39 10.26 20.52l92.34 53.866c7.696 5.13 15.39 5.13 23.086 0l92.34-53.866c7.696-5.13 10.26-12.826 10.26-20.52v-105.166c0-7.696-5.13-15.39-10.26-20.52l-92.34-53.866c-7.696-5.13-15.39-5.13-23.086 0l-92.34 53.866c-7.696 5.13-10.26 12.826-10.26 20.52zM733.592 189.687v69.256c0 15.39-12.826 28.216-28.216 25.65v0c-12.826-2.566-23.086-12.826-23.086-25.65v-69.256c0-17.956-10.26-33.346-23.086-41.040l-58.996-33.346c-10.26-5.13-15.39-20.52-10.26-30.78v0c5.13-15.39 23.086-20.52 35.91-12.826l58.996 33.346c30.78 15.39 48.736 48.736 48.736 84.646zM461.701 618.043l-128.25-74.386c-12.826-7.696-17.956-25.65-7.696-38.476v0c7.696-10.26 23.086-12.826 33.346-7.696l128.25 74.386c7.696 5.13 17.956 7.696 25.65 7.696 10.26 0 17.956-2.566 25.65-7.696l128.25-74.386c10.26-5.13 25.65-2.566 33.346 7.696v0c10.26 12.826 5.13 30.78-7.696 38.476l-128.25 74.386c-30.78 17.956-71.82 17.956-102.6 0zM341.146 102.477l58.996-33.346c12.826-7.696 30.78-2.566 35.91 12.826v0c5.13 12.826 0 25.65-10.26 30.78l-58.996 33.346c-15.39 7.696-23.086 25.65-23.086 41.040v69.256c0 12.826-10.26 23.086-23.086 25.65v0c-15.39 2.566-28.216-10.26-28.216-25.65v-69.256c0-33.346 17.956-66.69 48.736-84.646zM464.266 484.662l-58.996-33.346c-12.826-7.696-17.956-25.65-7.696-38.476v0c7.696-10.26 23.086-12.826 33.346-7.696l71.82 41.040c2.566 2.566 7.696 2.566 12.826 2.566s7.696 0 12.826-2.566l71.82-41.040c10.26-5.13 25.65-2.566 33.346 7.696v0c10.26 12.826 5.13 30.78-7.696 38.476l-58.996 33.346c-35.91 17.956-71.82 17.956-102.6 0zM287.281 592.393l164.16 94.906c38.476 23.086 87.21 23.086 125.686 0l164.16-94.906c10.26-5.13 25.65-2.566 33.346 7.696v0c10.26 12.826 5.13 30.78-7.696 38.476l-176.986 102.6c-46.17 28.216-105.166 28.216-151.336 0l-176.986-102.6c-12.826-7.696-17.956-25.65-7.696-38.476v0c7.696-10.26 23.086-12.826 33.346-7.696zM915.707 287.157v-187.246c0-43.606-23.086-87.21-61.56-107.73l-164.16-94.906c-10.26-5.13-15.39-20.52-10.26-30.78v0c5.13-15.39 23.086-20.52 35.91-12.826l164.16 94.906c53.866 30.78 87.21 89.776 87.21 153.9v187.246c0 15.39-12.826 28.216-28.216 25.65v0c-12.826-5.13-23.086-15.39-23.086-28.216zM241.11 28.091l115.426-66.69c12.826-7.696 30.78-2.566 35.91 12.826v0c5.13 12.826 0 25.65-10.26 30.78l-115.426 66.69c-23.086 12.826-38.476 38.476-38.476 66.69v133.38c0 12.826-10.26 23.086-23.086 25.65v0c-15.39 2.566-28.216-10.26-28.216-25.65v-133.38c0-46.17 25.65-87.21 64.126-110.296zM336.016-102.725l-164.16 94.906c-38.476 23.086-61.56 64.126-61.56 107.73v187.246c0 12.826-10.26 23.086-23.086 25.65v0c-15.39 2.566-28.216-10.26-28.216-25.65v-187.246c0-64.126 33.346-120.556 87.21-153.9l164.16-94.906c12.826-7.696 30.78-2.566 35.91 12.826v0c5.13 12.826 2.566 25.65-10.26 33.346zM849.017 138.387v133.38c0 15.39-12.826 28.216-28.216 25.65v0c-12.826-2.566-23.086-12.826-23.086-25.65v-133.38c0-28.216-15.39-53.866-38.476-66.69l-115.426-66.69c-10.26-5.13-15.39-20.52-10.26-30.78v0c5.13-15.39 23.086-20.52 35.91-12.826l115.426 66.69c38.476 23.086 64.126 64.126 64.126 110.296z" />
<glyph unicode="&#xe93e;" glyph-name="square" d="M820.803-164.285h-615.602c-64.126 0-115.426 51.3-115.426 115.426v615.602c0 64.126 51.3 115.426 115.426 115.426h615.602c64.126 0 115.426-51.3 115.426-115.426v-615.602c0-64.126-51.3-115.426-115.426-115.426zM205.2 605.218c-20.52 0-38.476-17.956-38.476-38.476v-615.602c0-20.52 17.956-38.476 38.476-38.476h615.602c20.52 0 38.476 17.956 38.476 38.476v615.602c0 20.52-17.956 38.476-38.476 38.476h-615.602z" />
<glyph unicode="&#xe940;" glyph-name="circle" d="M513.001-138.635c-218.026 0-397.576 179.55-397.576 397.576s179.55 397.576 397.576 397.576 397.576-179.55 397.576-397.576-179.55-397.576-397.576-397.576zM513.001 579.568c-176.986 0-320.626-143.64-320.626-320.626s143.64-320.626 320.626-320.626 320.626 143.64 320.626 320.626-143.64 320.626-320.626 320.626z" />
<glyph unicode="&#xe942;" glyph-name="expand-b" horiz-adv-x="1218" d="M1154.253 643.693h-1090.129c-35.268 0-64.126-28.856-64.126-64.126v-641.252c0-35.268 28.856-64.126 64.126-64.126h1090.129c35.268 0 64.126 28.856 64.126 64.126v641.252c0 35.268-28.856 64.126-64.126 64.126zM288.564-61.684h-192.376c-17.956 0-32.062 14.108-32.062 32.062v192.376c0 17.956 14.108 32.062 32.062 32.062s32.062-14.108 32.062-32.062v-160.313h160.313c17.956 0 32.062-14.108 32.062-32.062s-14.108-32.062-32.062-32.062zM288.564 515.442h-160.313v-160.313c0-17.956-14.108-32.062-32.062-32.062s-32.062 14.108-32.062 32.062v192.376c0 17.956 14.108 32.062 32.062 32.062h192.376c17.956 0 32.062-14.108 32.062-32.062s-14.108-32.062-32.062-32.062zM1154.253 2.441v-32.062c0-17.956-14.108-32.062-32.062-32.062h-192.376c-17.956 0-32.062 14.108-32.062 32.062s14.108 32.062 32.062 32.062h160.313v160.313c0 17.956 14.108 32.062 32.062 32.062s32.062-14.108 32.062-32.062v-160.313zM1154.253 515.442v-160.313c0-17.956-14.108-32.062-32.062-32.062s-32.062 14.108-32.062 32.062v160.313h-160.313c-17.956 0-32.062 14.108-32.062 32.062s14.108 32.062 32.062 32.062h192.376c17.956 0 32.062-14.108 32.062-32.062v-32.062z" />
<glyph unicode="&#xe944;" glyph-name="expand-a" d="M897.753 34.503c0-17.956-14.108-32.062-32.062-32.062h-705.377c-17.956 0-32.062 14.108-32.062 32.062v448.876c0 17.956 14.108 32.062 32.062 32.062h705.377c17.956 0 32.062-14.108 32.062-32.062v-448.876zM961.877 643.693h-160.313c-17.956 0-32.062-14.108-32.062-32.062v0c0-17.956 14.108-32.062 32.062-32.062h128.25c17.956 0 32.062-14.108 32.062-32.062v-128.25c0-17.956 14.108-32.062 32.062-32.062v0c17.956 0 32.062 14.108 32.062 32.062v160.313c0 35.268-28.856 64.126-64.126 64.126v0zM64.126 643.693h160.313c17.956 0 32.062-14.108 32.062-32.062v0c0-17.956-14.108-32.062-32.062-32.062h-128.25c-17.956 0-32.062-14.108-32.062-32.062v-128.25c0-17.956-14.108-32.062-32.062-32.062v0c-17.956 0-32.062 14.108-32.062 32.062v160.313c0 35.268 28.856 64.126 64.126 64.126v0zM961.877-125.809h-160.313c-17.956 0-32.062 14.108-32.062 32.062v0c0 17.956 14.108 32.062 32.062 32.062h128.25c17.956 0 32.062 14.108 32.062 32.062v128.25c0 17.956 14.108 32.062 32.062 32.062v0c17.956 0 32.062-14.108 32.062-32.062v-160.313c0-35.268-28.856-64.126-64.126-64.126v0zM64.126-125.809h160.313c17.956 0 32.062 14.108 32.062 32.062v0c0 17.956-14.108 32.062-32.062 32.062h-128.25c-17.956 0-32.062 14.108-32.062 32.062v128.25c0 17.956-14.108 32.062-32.062 32.062v0c-17.956 0-32.062-14.108-32.062-32.062v-160.313c0-35.268 28.856-64.126 64.126-64.126v0z" />
<glyph unicode="&#xe947;" glyph-name="heroku" d="M820.803 771.944h-615.602c-43.606 0-76.95-33.346-76.95-76.95v-872.103c0-43.606 33.346-76.95 76.95-76.95h615.602c43.606 0 76.95 33.346 76.95 76.95v872.103c0 43.606-33.346 76.95-76.95 76.95zM400.141-0.124l-115.426-92.34c0 0-2.566-2.566-5.13-2.566 0 0-2.566 0-2.566 0-2.566 0-2.566 2.566-2.566 5.13v194.94c0 2.566 2.566 5.13 2.566 5.13 2.566 0 5.13 0 7.696 0l115.426-102.6c2.566 0 2.566-2.566 2.566-5.13 0 0 0-2.566-2.566-2.566zM751.547-87.335c0-2.566-2.566-5.13-5.13-5.13h-115.426c-2.566 0-5.13 2.566-5.13 5.13v269.326c0 23.086 0 43.606-15.39 56.43-12.826 10.26-35.91 12.826-71.82 7.696-46.17-7.696-97.47-20.52-143.64-33.346-2.566 0-5.13-2.566-7.696-2.566s-7.696-2.566-10.26-2.566c-2.566 0-5.13-2.566-7.696-2.566s-7.696-2.566-10.26-2.566c-2.566 0-5.13-2.566-7.696-2.566s-5.13-2.566-7.696-2.566c-2.566 0-5.13-2.566-7.696-2.566s-5.13-2.566-7.696-2.566c-2.566 0-5.13-2.566-7.696-2.566s-2.566-2.566-5.13-2.566-5.13-2.566-7.696-5.13c0 0-2.566 0-2.566-2.566-2.566-2.566-5.13-2.566-7.696-5.13 0 0-2.566 0-2.566 0-2.566-2.566-5.13-5.13-7.696-5.13 0 0-2.566 0-2.566 0s0 0 0 0 0 0 0 0-2.566 0-2.566 0c0 0 0 0 0 0s0 0 0 0 0 0 0 0 0 2.566 0 2.566c0 0 0 0 0 2.566 0 0 0 0 0 0v433.486c0 2.566 2.566 5.13 5.13 5.13h115.426c2.566 0 5.13-2.566 5.13-5.13v-261.63c58.996 17.956 138.51 33.346 212.896 23.086 82.080-10.26 135.946-48.736 135.946-189.81v-266.761zM669.467 438.492c0-2.566-2.566-2.566-5.13-2.566h-115.426c-2.566 0-5.13 2.566-5.13 2.566s0 5.13 0 7.696c28.216 38.476 79.516 107.73 79.516 159.030 0 2.566 2.566 5.13 5.13 5.13h115.426c2.566 0 5.13-2.566 5.13-5.13 2.566-53.866-51.3-125.686-79.516-166.726z" />
<glyph unicode="&#xe948;" glyph-name="heroku-simple" d="M348.841-118.115l-166.726-133.38c-2.566-2.566-2.566-2.566-5.13-2.566s-2.566 0-5.13 0c-2.566 2.566-5.13 5.13-5.13 7.696v282.151c0 2.566 2.566 7.696 5.13 7.696 2.566 2.566 7.696 0 10.26-2.566l166.726-148.77c2.566-2.566 2.566-5.13 2.566-7.696 2.566 0 0-2.566-2.566-2.566zM859.277-243.799c0-5.13-5.13-10.26-10.26-10.26h-166.726c-5.13 0-10.26 5.13-10.26 10.26v392.446c0 30.78 0 64.126-20.52 82.080-17.956 15.39-53.866 20.52-102.6 12.826-66.69-10.26-141.076-28.216-207.766-48.736-5.13 0-7.696-2.566-10.26-2.566-5.13-2.566-10.26-2.566-15.39-5.13-2.566 0-7.696-2.566-10.26-2.566-5.13-2.566-10.26-2.566-12.826-5.13-2.566 0-7.696-2.566-10.26-2.566-5.13-2.566-7.696-2.566-12.826-5.13-2.566-2.566-7.696-2.566-10.26-5.13s-7.696-2.566-10.26-5.13c-5.13-2.566-7.696-2.566-12.826-5.13-2.566 0-5.13-2.566-7.696-2.566-5.13-2.566-7.696-5.13-12.826-7.696-2.566 0-2.566-2.566-5.13-2.566-5.13-2.566-7.696-5.13-12.826-7.696 0 0-2.566 0-2.566-2.566-5.13-2.566-7.696-5.13-12.826-7.696-2.566 0-2.566-2.566-5.13-2.566 0 0 0 0 0 0s0 0 0 0-2.566 0-2.566 0c0 0 0 0 0 0s0 0 0 0 0 0 0 0-2.566 2.566-2.566 2.566c0 0 0 0 0 2.566 0 0 0 0 0 0v630.992c0 5.13 5.13 10.26 10.26 10.26h166.726c5.13 0 10.26-5.13 10.26-10.26v-379.621c87.21 25.65 202.636 48.736 307.801 33.346 117.99-15.39 197.506-69.256 197.506-277.021v-379.621zM741.287 520.572c-2.566-2.566-5.13-5.13-7.696-5.13h-166.726c-2.566 0-7.696 2.566-7.696 5.13s-2.566 7.696 0 10.26c41.040 56.43 115.426 159.030 115.426 230.85 0 5.13 5.13 10.26 10.26 10.26h166.726c5.13 0 10.26-5.13 10.26-10.26-2.566-76.95-79.516-182.116-120.556-241.11z" />
<glyph unicode="&#xe949;" glyph-name="refresh" d="M875.95 621.89c-76.95 76.95-176.344 127.609-285.357 144.282-135.304 20.52-270.608-12.826-381.545-93.622-110.296-81.439-182.756-200.712-203.277-336.016-5.13-35.268 18.596-67.972 53.866-73.102 3.206-0.642 6.412-0.642 9.618-0.642 31.422 0 58.354 22.444 63.484 54.506 15.39 101.318 69.896 191.093 152.618 252.012s184.68 85.928 285.998 70.538c82.080-12.184 156.466-50.658 214.178-108.372l-144.282-144.282h384.751v384.751l-150.053-150.053zM966.367 254.453c-35.268 5.13-67.972-18.596-73.102-53.866-32.062-209.69-228.927-354.612-438.616-322.55-81.439 12.184-156.466 50.658-214.178 108.372l144.282 144.282h-384.751v-384.751l150.053 150.053c76.95-76.95 176.986-127.609 285.357-144.282 26.292-3.848 51.942-5.772 77.592-5.772 248.806 0 468.114 182.116 506.589 435.41 5.772 35.268-17.956 67.972-53.224 73.102z" />
<glyph unicode="&#xe94a;" glyph-name="pause" horiz-adv-x="962" d="M403.989-87.335c0-20.52-17.956-38.476-38.476-38.476h-128.25c-20.52 0-38.476 17.956-38.476 38.476v692.552c0 20.52 17.956 38.476 38.476 38.476h128.25c20.52 0 38.476-17.956 38.476-38.476v-692.552zM763.089-87.335c0-20.52-17.956-38.476-38.476-38.476h-128.25c-20.52 0-38.476 17.956-38.476 38.476v692.552c0 20.52 17.956 38.476 38.476 38.476h128.25c20.52 0 38.476-17.956 38.476-38.476v-692.552z" />
<glyph unicode="&#xe94b;" glyph-name="crown2" d="M884.126-62.085l135.464 524.424c2.204 8.416-7.014 15.23-14.428 10.42l-262.914-168.529c-10.42-6.612-24.248-3.808-31.261 6.412l-190.172 276.94c-3.808 5.61-12.024 5.61-15.83 0l-189.971-277.141c-7.014-10.22-20.84-13.026-31.261-6.412l-262.914 168.529c-7.414 4.609-16.632-2.004-14.428-10.42l135.464-524.424c2.806-11.022 12.826-18.836 24.248-18.836h693.955c11.222 0.2 21.242 8.016 24.046 19.038z" />
<glyph unicode="&#xe94c;" glyph-name="server2" d="M994.341 733.068h-962.679c-10.22 0-20.44-10.22-20.44-20.44v-204.198c0-10.22 10.22-20.44 20.44-20.44h962.479c10.22 0 20.44 10.22 20.44 20.44v204.198c0.2 10.22-10.020 20.44-20.24 20.44zM242.072 559.93c0-7.414-6.012-13.626-13.626-13.626h-101.198c-7.414 0-13.626 6.012-13.626 13.626v101.198c0 7.414 6.012 13.626 13.626 13.626h101.198c7.414 0 13.626-6.012 13.626-13.626v-101.198zM994.341 381.581h-962.679c-10.22 0-20.44-10.22-20.44-20.44v-204.399c0-10.22 10.22-20.44 20.44-20.44h962.479c10.22 0 20.44 10.22 20.44 20.44v204.399c0.2 10.22-10.020 20.44-20.24 20.44zM242.072 208.443c0-7.414-6.012-13.626-13.626-13.626h-101.198c-7.414 0-13.626 6.012-13.626 13.626v100.998c0 7.414 6.012 13.626 13.626 13.626h101.198c7.414 0 13.626-6.012 13.626-13.626v-100.998zM994.341 50.134h-962.679c-10.22 0-20.44-10.22-20.44-20.44v-204.198c0-10.22 10.22-20.44 20.44-20.44h962.479c10.22 0 20.44 10.22 20.44 20.44v204.198c0.2 10.22-10.020 20.44-20.24 20.44zM242.072-123.003c0-7.414-6.012-13.626-13.626-13.626h-101.198c-7.414 0-13.626 6.012-13.626 13.626v101.198c0 7.414 6.012 13.626 13.626 13.626h101.198c7.414 0 13.626-6.012 13.626-13.626v-101.198z" />
<glyph unicode="&#xe94e;" glyph-name="shuffle" d="M330.886 148.647c-51.3-82.080-100.036-133.38-169.29-133.38h-97.47c-35.91 0-64.126-28.216-64.126-64.126s28.216-64.126 64.126-64.126h94.906c105.166 0 179.55 56.43 238.546 133.38-23.086 43.606-46.17 87.21-66.69 128.25zM833.627 110.171c-17.956 15.39-48.736 2.566-48.736-23.086v-74.386h-23.086c-102.6 0-164.16 107.73-243.676 271.891-79.516 161.596-169.29 343.711-359.101 343.711h-94.906c-35.91 2.566-64.126-25.65-64.126-61.56s28.216-64.126 64.126-64.126h94.906c102.6 0 164.16-107.73 243.676-271.891 79.516-161.596 169.29-343.711 359.101-343.711h23.086v-74.386c0-25.65 28.216-38.476 48.736-23.086l192.376 161.596-192.376 159.030zM833.627 725.774c-17.956 15.39-48.736 2.566-48.736-23.086v-74.386h-23.086c-105.166 0-179.55-56.43-238.546-133.38 25.65-41.040 48.736-84.646 69.256-125.686 51.3 82.080 100.036 133.38 169.29 133.38h23.086v-74.386c0-25.65 28.216-38.476 48.736-23.086l192.376 161.596-192.376 159.030z" />
<glyph unicode="&#xe94f;" glyph-name="oauth" d="M513.001 771.944c-282.151 0-513.001-230.85-513.001-513.001s230.85-513.001 513.001-513.001 513.001 230.85 513.001 513.001-230.85 513.001-513.001 513.001zM718.202-20.644c-33.346-10.26-69.256 7.696-82.080 41.040l-35.91 112.86h-176.986l-35.91-112.86c-7.696-28.216-33.346-46.17-61.56-46.17-7.696 0-12.826 0-20.52 2.566-33.346 10.26-53.866 46.17-41.040 82.080l146.206 461.701c7.696 25.65 33.346 46.17 61.56 46.17h82.080c28.216 0 53.866-17.956 61.56-46.17l146.206-461.701c10.26-30.78-7.696-69.256-43.606-79.516z" />
<glyph unicode="&#xe950;" glyph-name="disks" d="M513.001 771.944c-241.11 0-436.051-69.256-436.051-153.9v-166.726c0-84.646 194.94-153.9 436.051-153.9s436.051 69.256 436.051 153.9v166.726c0 84.646-194.94 153.9-436.051 153.9zM513.001 720.644c233.416 0 359.101-71.82 359.101-102.6s-125.686-102.6-359.101-102.6c-233.416 0-359.101 71.82-359.101 102.6s125.686 102.6 359.101 102.6zM76.95-100.159c0-84.646 194.94-153.9 436.051-153.9s436.051 69.256 436.051 153.9v205.2c0-84.646-194.94-153.9-436.051-153.9s-436.051 69.256-436.051 153.9v-205.2zM76.95 169.167c0-84.646 194.94-153.9 436.051-153.9s436.051 69.256 436.051 153.9v205.2c0-84.646-194.94-153.9-436.051-153.9s-436.051 69.256-436.051 153.9v-205.2z" />
<glyph unicode="&#xe951;" glyph-name="authzero" d="M977.267 448.752c-69.256 241.11-107.73 323.191-107.73 323.191h-356.536l112.86-323.191h351.406zM48.736 448.752c-69.256-238.546 30.78-407.836 176.986-507.871 0 0 58.996 166.726 110.296 315.496l-287.281 192.376zM513.001 771.944h-356.536c0 0-38.476-82.080-110.296-323.191h351.406c56.43 153.9 115.426 323.191 115.426 323.191zM977.267 448.752l-284.716-192.376 110.296-315.496c143.64 102.6 243.676 269.326 174.42 507.871zM225.72-59.119c143.64-100.036 287.281-194.94 287.281-194.94s143.64 94.906 287.281 194.94l-287.281 194.94-287.281-194.94z" />
<glyph unicode="&#xe952;" glyph-name="annotate-plus" horiz-adv-x="834" d="M448.876 515.442c0 106.448-85.928 192.376-192.376 192.376s-192.376-85.928-192.376-192.376c0-84.004 53.224-155.183 128.25-181.474v-459.778l64.126-128.25 64.126 128.25v459.778c75.026 26.292 128.25 97.47 128.25 181.474zM807.977 323.067h-102.6v102.6c0 15.39-12.826 25.65-25.65 25.65h-76.95c-15.39 0-25.65-12.826-25.65-25.65v-102.6h-102.6c-15.39 0-25.65-12.826-25.65-25.65v-76.95c0-15.39 12.826-25.65 25.65-25.65h102.6v-102.6c0-15.39 12.826-25.65 25.65-25.65h76.95c15.39 0 25.65 12.826 25.65 25.65v102.6h102.6c15.39 0 25.65 12.826 25.65 25.65v76.95c0 12.826-12.826 25.65-25.65 25.65z" />
<glyph unicode="&#xe953;" glyph-name="annotate" horiz-adv-x="506" d="M445.67 515.442c0 106.448-85.928 192.376-192.376 192.376s-192.376-85.928-192.376-192.376c0-84.004 53.224-155.183 128.25-181.474v-459.778l64.126-128.25 64.126 128.25v459.778c75.026 26.292 128.25 97.47 128.25 181.474z" />
<glyph unicode="&#xe956;" glyph-name="eye-closed" d="M1018.307 274.332c-41.040 76.95-100.036 143.64-171.856 192.376l-128.25-128.25c7.696-23.086 12.826-48.736 12.826-76.95 0-120.556-97.47-218.026-218.026-218.026-28.216 0-53.866 5.13-76.95 12.826l-82.080-82.080c51.3-12.826 105.166-20.52 159.030-20.52 215.46 0 407.836 112.86 505.306 292.411l7.696 12.826-7.696 15.39zM179.55 53.741l128.25 128.25c-7.696 23.086-12.826 48.736-12.826 76.95 0 120.556 97.47 218.026 218.026 218.026 28.216 0 53.866-5.13 76.95-12.826l82.080 82.080c-51.3 12.826-105.166 20.52-159.030 20.52-218.026 0-410.401-112.86-505.306-292.411l-7.696-15.39 7.696-15.39c41.040-76.95 100.036-141.076 171.856-189.81zM128.25-164.285c-10.26 0-20.52 2.566-28.216 10.26-15.39 15.39-15.39 38.476 0 53.866l769.502 769.502c15.39 15.39 38.476 15.39 53.866 0s15.39-38.476 0-53.866l-769.502-769.502c-5.13-7.696-15.39-10.26-25.65-10.26z" />
<glyph unicode="&#xe957;" glyph-name="eye-open" d="M1018.307 274.332c-97.47 179.55-289.846 292.411-505.306 292.411-218.026 0-410.401-112.86-505.306-292.411l-7.696-15.39 7.696-15.39c97.47-179.55 289.846-292.411 505.306-292.411s407.836 112.86 505.306 292.411l7.696 15.39-7.696 15.39zM513.001 40.916c-120.556 0-218.026 97.47-218.026 218.026s97.47 218.026 218.026 218.026 218.026-97.47 218.026-218.026-97.47-218.026-218.026-218.026zM551.477 297.417c-25.65 25.65-25.65 66.69 0 89.776 25.65 25.65 66.69 25.65 89.776 0s25.65-66.69 0-89.776c-25.65-25.65-64.126-25.65-89.776 0z" />
<glyph unicode="&#xe958;" glyph-name="_snet--logo" d="M86.117 468.314c0.756-22.487 10.671-32.514 32.864-32.514 19.629 0 32.514 8.958 32.514 22.873 0 12.903-9.216 18.211-51.443 28.57-40.016 9.991-56.439 16.809-71.462 30.007-14.744 13.234-23.225 32.514-23.225 54.65 0 51.076 44.699 84.659 112.915 84.659 38.928 0 72.843-11.060 90.723-29.97 13.935-14.653 20-31.813 20.276-59.701 0 0-83.866 0-83.866 0-0.701 20.754-10.009 30.026-29.29 30.026-16.809 0-28.238-7.853-28.238-19.299 0-7.373 3.944-12.903 11.427-16.386 8.239-3.595 9.658-3.982 41.471-12.552 36.423-9.216 55.296-17.492 69.692-30.689 15.727-14.703 24.535-35.353 24.257-56.882 0-53.452-45.731-86.778-118.96-86.778-74.3 0-116.121 33.951-115.772 94.004 0 0 86.115-0.019 86.115-0.019M532.338 598.906c0 0 0-26.781 0-26.781 13.935 21.436 32.882 31.335 60.383 31.335 26.395 0 47.149-11.409 57.877-31.795 7.501-14.267 9.62-27.131 9.62-62.503 0 0 0-105.064 0-105.064s-72.475 0-72.475 0c0 0 0 107.68 0 107.68 0 26.763-6.82 38.191-23.262 38.191-10.726 0-19.666-7.134-23.574-18.929-2.138-7.133-3.189-17.51-3.189-36.772 0 0 0-90.022 0-90.022s-72.512 0-72.512 0c0 0 0 194.66 0 194.66s67.13 0 67.13 0M750.979 526.1c2.101 18.524 13.547 29.933 30.339 29.933 17.529 0 26.8-9.639 29.253-29.933 0 0-59.59 0-59.59 0M807.417 465.273c-5.326-12.533-13.954-18.248-26.469-18.248-18.928 0-29.675 13.197-30.339 37.14 0 0 137.171 0 137.171 0 0.368 3.945 0.368 7.871 0.368 8.958 0 69.655-39.315 111.441-105.395 111.441-65.71 0-108.988-40.016-108.988-101.082 0-65.047 40.736-105.064 107.183-105.064 54.32 0 92.917 24.662 103.957 66.853 0 0-77.489 0-77.489 0M1026.003 403.84c-16.772-3.17-24.975-4.276-36.864-4.276-50.687 0-71.073 20.036-71.073 69.655 0 0 0 77.174 0 77.174s-29.566 0-29.566 0c0 0 0 52.512 0 52.512s29.639 0 29.639 0c0 0 0 51.462 0 51.462s72.512 0 72.512 0c0 0 0-51.462 0-51.462s35.353 0 35.353 0c0 0 0-52.512 0-52.512s-35.353 0-35.353 0c0 0 0-54.282 0-54.282 0-26.432 5.364-34.302 23.225-34.302 4.109 0.059 8.19 0.679 12.129 1.844 0 0 0-55.812 0-55.812M354.579 581.948c0 0 0 112.436 0 112.436 0 29.749-22.965 39.574-50.062 40.551-20.588 0.701-26.524 0-26.524 0s0-3.060 0-3.060c30.026 0 36.865-22.211 36.865-45.176 0 0 0-111.68 0-111.68 0-21.713 14.744-47.647 52.604-59.388-37.86-11.759-52.604-37.712-52.604-59.407 0 0 0-111.661 0-111.661 0-22.984-6.895-45.195-36.865-45.195 0 0 0-3.041 0-3.041s5.936-0.701 26.524 0c27.095 0.885 50.062 10.708 50.062 40.551 0 0 0 112.084 0 112.084 0 32.423 24.57 56.384 58.724 66.522-34.154 10.138-58.724 34.098-58.724 66.466 0 0 0 0 0 0" />
<glyph unicode="&#xe959;" glyph-name="_snet--application" d="M174.298 1.22c0 0-162.286 0-162.286 0s403.556 1025.001 403.556 1025.001c0 0 162.484 0 162.484 0s-403.753-1025.001-403.753-1025.001M912.056 236.988c0 0-287.833 691.585-287.833 691.585s-77.411-204.135-77.411-204.135c0 0 129.673-311.606 129.673-311.606s-247.753 0-247.753 0c0 0-66.801-175.844-66.801-175.844s387.642 0 387.642 0c0 0 101.773-235.768 101.773-235.768s162.287 0 162.287 0c0 0-101.577 235.768-101.577 235.768" />
</font>
</defs>
</svg>
