<?xml version="1.0" standalone="no"?>
<!DOCTYPE svg PUBLIC "-//W3C//DTD SVG 1.1//EN" "http://www.w3.org/Graphics/SVG/1.1/DTD/svg11.dtd" >
<svg xmlns="http://www.w3.org/2000/svg">
<metadata>Generated by IcoMoon</metadata>
<defs>
<font id="icomoon" horiz-adv-x="1024">
<font-face units-per-em="1024" ascent="798.7800586510264" descent="-225.21994134897358" />
<missing-glyph horiz-adv-x="1024" />
<glyph unicode="&#x20;" horiz-adv-x="512.5004887585533" d="" />
<glyph unicode="&#xe900;" glyph-name="crown-outline" d="M188.163-89.384c-28.356 0-51.55 20.62-59.286 46.395l-126.301 494.892c-5.155 18.046 2.581 38.666 18.046 48.976 15.465 12.891 36.085 12.891 54.131 2.581l234.559-149.499 167.542 247.446c7.736 12.891 23.201 20.62 38.666 20.62s30.93-7.736 38.666-20.62l170.119-247.446 234.559 149.499c15.465 10.31 38.666 10.31 54.131-2.581s23.201-30.93 18.046-51.55l-128.878-492.315c-7.736-28.356-30.93-46.395-59.286-46.395h-654.702zM203.628-22.366v0c0 0 0 0 0 0zM201.050-12.056h628.927l105.681 409.833-183.008-118.568c-28.356-18.046-64.441-10.31-82.481 15.465l-154.654 224.249-154.654-224.249c-18.046-25.775-54.131-33.511-82.481-18.046l-183.008 118.568 105.681-407.256zM1000.098 439.018v0c0 0 0 0 0 0zM77.326 469.95v0c0 0 0 0 0 0zM953.701 469.95c0 0 0 0 0 0v0zM489.737 557.587c2.581 0 2.581 0 0 0v0zM538.713 557.587v0c0 0 0 0 0 0z" />
<glyph unicode="&#xe901;" glyph-name="caret-left" d="M283.533 209.615l340.239-340.239c33.511-33.511 92.792-10.31 92.792 38.666v716.564c0 48.976-59.286 74.751-92.792 38.666l-340.239-340.239c-30.93-30.93-30.93-82.481 0-113.413z" />
<glyph unicode="&#xe902;" glyph-name="caret-down" d="M597.996 60.115l340.239 340.239c33.511 33.511 10.31 92.792-38.666 92.792h-716.564c-48.976 0-74.751-59.286-38.666-92.792l340.239-340.239c30.93-30.93 82.481-30.93 113.413 0z" />
<glyph unicode="&#xe903;" glyph-name="caret-right" d="M747.495 323.028l-340.239 340.239c-33.511 33.511-92.792 10.31-92.792-38.666v-713.987c0-48.976 59.286-74.751 92.792-38.666l340.239 337.661c30.93 30.93 30.93 82.481 0 113.413z" />
<glyph unicode="&#xe904;" glyph-name="user-remove" d="M463.962 274.054c43.821 20.62 77.326 59.286 92.792 105.681-33.511 48.976-54.131 105.681-54.131 170.119 0 7.736 0 15.465 0 20.62-30.93 28.356-72.17 43.821-118.568 43.821-100.526 0-180.43-79.906-180.43-180.43 0-72.17 41.24-131.456 100.526-162.387-82.481-20.62-175.274-118.568-175.274-234.559v-146.921c0-12.891 7.736-25.775 18.046-25.775h479.427c10.31 0 18.046 10.31 18.046 25.775v146.921c-2.581 115.991-92.792 213.939-180.43 237.136zM799.047 781.835c-128.878 0-231.981-103.102-231.981-231.981s103.102-231.981 231.981-231.981 231.981 103.102 231.981 231.981-103.102 231.981-231.981 231.981zM940.812 536.966c0-12.891-12.891-25.775-25.775-25.775h-231.981c-12.891 0-25.775 12.891-25.775 25.775v25.775c0 12.891 12.891 25.775 25.775 25.775h231.981c12.891 0 25.775-12.891 25.775-25.775v-25.775z" />
<glyph unicode="&#xe905;" glyph-name="trash" d="M940.812 652.957h-195.895l-67.015 110.836c-5.155 10.31-18.046 18.046-30.93 18.046h-262.911c-12.891 0-25.775-7.736-33.511-18.046l-64.441-110.836h-195.895c-20.62 0-38.666-18.046-38.666-38.666v-103.102c0-20.62 18.046-38.666 38.666-38.666h850.598c20.62 0 38.666 18.046 38.666 38.666v103.102c0 20.62-18.046 38.666-38.666 38.666zM407.256 704.508h216.515l30.93-51.55h-278.378l30.93 51.55zM863.485 420.976h-695.944c-10.31 0-20.62-5.155-28.356-12.891s-10.31-18.046-10.31-28.356l51.55-592.841c2.581-20.62 18.046-36.085 38.666-36.085h592.841c20.62 0 36.085 15.465 38.666 36.085l51.55 592.841c0 10.31-2.581 20.62-10.31 28.356s-18.046 12.891-28.356 12.891z" />
<glyph unicode="&#xe906;" glyph-name="caret-up" d="M484.582 472.527l-340.239-340.239c-33.511-33.511-10.31-92.792 38.666-92.792h713.987c48.976 0 74.751 59.286 38.666 92.792l-337.661 340.239c-30.93 30.93-82.481 30.93-113.413 0z" />
<glyph unicode="&#xe907;" glyph-name="user-add" d="M463.962 274.054c43.821 20.62 77.326 59.286 92.792 105.681-33.511 48.976-54.131 105.681-54.131 170.119 0 7.736 0 15.465 0 20.62-30.93 28.356-72.17 43.821-118.568 43.821-100.526 0-180.43-79.906-180.43-180.43 0-72.17 41.24-131.456 100.526-162.387-82.481-20.62-175.274-118.568-175.274-234.559v-146.921c0-12.891 7.736-25.775 18.046-25.775h479.427c10.31 0 18.046 10.31 18.046 25.775v146.921c-2.581 115.991-92.792 213.939-180.43 237.136zM799.047 781.835c-128.878 0-231.981-103.102-231.981-231.981s103.102-231.981 231.981-231.981 231.981 103.102 231.981 231.981-103.102 231.981-231.981 231.981zM940.812 536.966c0-12.891-12.891-25.775-25.775-25.775h-77.326v-77.326c0-12.891-12.891-25.775-25.775-25.775h-25.775c-12.891 0-25.775 12.891-25.775 25.775v77.326h-77.326c-12.891 0-25.775 12.891-25.775 25.775v25.775c0 12.891 12.891 25.775 25.775 25.775h77.326v77.326c0 12.891 12.891 25.775 25.775 25.775h25.775c12.891 0 25.775-12.891 25.775-25.775v-77.326h77.326c12.891 0 25.775-12.891 25.775-25.775v-25.775z" />
<glyph unicode="&#xe908;" glyph-name="group" d="M747.495 338.493c59.286 28.356 100.526 90.216 100.526 162.387 0 100.526-79.906 180.43-180.43 180.43-64.441 0-121.146-33.511-154.654-85.061 46.395-41.24 77.326-103.102 77.326-172.697 0-56.705-20.62-110.836-56.705-152.077 72.17-51.55 134.034-141.766 134.034-244.869v-95.371h239.714c10.31 0 18.046 10.31 18.046 25.775v146.921c0 113.413-90.216 211.36-177.853 234.559zM438.186 261.166c59.286 28.356 100.526 90.216 100.526 162.387 0 100.526-79.906 180.43-180.43 180.43s-180.43-79.906-180.43-180.43c0-72.17 41.24-131.456 100.526-162.387-82.481-23.201-175.274-121.146-175.274-237.136v-144.344c0-12.891 7.736-25.775 18.046-25.775h479.427c10.31 0 18.046 10.31 18.046 25.775v146.921c-2.581 113.413-92.792 211.36-180.43 234.559z" />
<glyph unicode="&#xe909;" glyph-name="remove" horiz-adv-x="775" d="M514.385 266.322l237.781 237.781c25.13 25.13 25.13 66.374 0 90.859l-38.019 38.019c-25.13 25.13-66.374 25.13-90.859 0l-237.781-237.781-237.781 237.781c-25.13 25.13-66.374 25.13-90.859 0l-38.019-38.019c-25.13-25.13-25.13-66.374 0-90.859l237.781-237.781-237.781-237.781c-25.13-25.13-25.13-66.374 0-90.859l38.019-38.019c25.13-25.13 66.374-25.13 90.859 0l237.781 237.781 237.781-237.781c25.13-25.13 66.374-25.13 90.859 0l38.019 38.019c25.13 25.13 25.13 66.374 0 90.859l-237.781 237.781z" />
<glyph unicode="&#xe90a;" glyph-name="plus" d="M935.657 356.536h-304.153c-12.891 0-25.775 10.31-25.775 25.775v304.153c0 48.976-36.085 92.792-85.061 95.371-51.55 2.581-95.371-38.666-95.371-90.216v-309.308c0-12.891-10.31-25.775-25.775-25.775h-304.153c-48.976 0-92.792-36.085-95.371-85.061-2.581-51.55 38.666-95.371 90.216-95.371h309.308c12.891 0 25.775-10.31 25.775-25.775v-304.153c0-48.976 36.085-92.792 85.061-95.371 51.55-2.581 95.371 38.666 95.371 90.216v309.308c0 12.891 10.31 25.775 25.775 25.775h309.308c51.55 0 92.792 43.821 90.216 95.371-2.581 48.976-46.395 85.061-95.371 85.061z" />
<glyph unicode="&#xe90b;" glyph-name="cube" d="M992.362 508.612c0 0 0 2.581-2.581 2.581 0 2.581-2.581 5.155-2.581 5.155s-2.581 2.581-2.581 2.581c0 2.581-2.581 2.581-2.581 5.155 0 0-2.581 2.581-2.581 2.581s-2.581 2.581-2.581 2.581c0 0 0 0 0 0s0 0 0 0l-440.764 231.981c-10.31 5.155-25.775 5.155-36.085 0l-440.764-231.981c-5.155 2.581-7.736 0-10.31-2.581 0 0 0 0-2.581-2.581s-2.581-2.581-5.155-5.155c0 0 0-2.581-2.581-2.581 0 0 0 0 0 0 0-2.581-2.581-5.155-2.581-7.736 0 0 0 0 0 0 0-2.581 0-5.155 0-7.736 0 0 0 0 0 0v-463.962c0-15.465 7.736-28.356 20.62-33.511l440.764-231.981c2.581 0 2.581-2.581 5.155-2.581 0 0 2.581 0 2.581 0 2.581 0 7.736-2.581 10.31-2.581 5.155 0 12.891 2.581 18.046 5.155l440.764 231.981c12.891 7.736 20.62 20.62 20.62 33.511v461.385c0 2.581 0 7.736-2.581 10.31zM515.512 686.465l358.283-188.163-358.283-188.163-358.283 188.163 358.283 188.163zM113.413 433.863l363.438-190.74v-376.325l-363.438 190.74v376.325z" />
<glyph unicode="&#xe90c;" glyph-name="cog-thick" d="M992.362 372.001h-92.792c-7.736 30.93-20.62 61.86-36.085 90.216l64.441 64.441c15.465 15.465 15.465 41.24 0 54.131l-95.371 97.947c-15.465 15.465-41.24 15.465-54.131 0l-67.015-67.015c-28.356 15.465-56.705 28.356-87.636 36.085v95.371c0 20.62-18.046 38.666-38.666 38.666h-134.034c-20.62 0-38.666-18.046-38.666-38.666v-95.371c-30.93-7.736-61.86-20.62-87.636-36.085l-69.596 67.015c-15.465 15.465-41.24 15.465-56.705 0l-95.371-95.371c-15.465-15.465-15.465-41.24 0-56.705l64.441-64.441c-15.465-28.356-28.356-56.705-36.085-90.216h-92.792c-20.62 0-38.666-18.046-38.666-38.666v-134.034c0-20.62 18.046-38.666 38.666-38.666h92.792c7.736-30.93 20.62-61.86 36.085-90.216l-64.441-64.441c-15.465-15.465-15.465-41.24 0-54.131l95.371-97.947c15.465-15.465 41.24-15.465 54.131 0l67.015 67.015c28.356-15.465 56.705-28.356 87.636-36.085v-95.371c0-20.62 18.046-38.666 38.666-38.666h134.034c20.62 0 38.666 18.046 38.666 38.666v95.371c30.93 7.736 61.86 20.62 87.636 36.085l67.015-67.015c15.465-15.465 41.24-15.465 54.131 0l95.371 95.371c15.465 15.465 15.465 41.24 0 54.131l-64.441 64.441c15.465 28.356 28.356 56.705 36.085 90.216h92.792c20.62 0 38.666 18.046 38.666 38.666v134.034c5.155 25.775-12.891 41.24-33.511 41.24zM515.512 49.805c-118.568 0-216.515 97.947-216.515 216.515s97.947 216.515 216.515 216.515 216.515-97.947 216.515-216.515-97.947-216.515-216.515-216.515z" />
<glyph unicode="&#xe90d;" glyph-name="user" d="M592.841 299.831c59.286 28.356 100.526 90.216 100.526 162.387 0 100.526-79.906 180.43-180.43 180.43s-180.43-79.906-180.43-180.43c0-72.17 41.24-131.456 100.526-162.387-85.061-20.62-177.853-121.146-177.853-234.559v-146.921c0-12.891 7.736-25.775 18.046-25.775h479.427c10.31 0 18.046 10.31 18.046 25.775v146.921c0 113.413-90.216 211.36-177.853 234.559z" />
<glyph unicode="&#xe90e;" glyph-name="circle-thick" d="M515.512-133.202c-219.094 0-399.523 180.43-399.523 399.523s180.43 399.523 399.523 399.523 399.523-180.43 399.523-399.523-180.43-399.523-399.523-399.523zM515.512 485.415c-121.146 0-219.094-97.947-219.094-219.094s97.947-219.094 219.094-219.094 219.094 97.947 219.094 219.094-97.947 219.094-219.094 219.094z" />
<glyph unicode="&#xe90f;" glyph-name="export" d="M206.205 743.173h231.981c20.62 0 38.666-18.046 38.666-38.666s-18.046-38.666-38.666-38.666h-231.981c-48.976 0-90.216-41.24-90.216-90.216v-618.617c0-48.976 41.24-90.216 90.216-90.216h618.617c48.976 0 90.216 41.24 90.216 90.216v231.981c0 20.62 18.046 38.666 38.666 38.666s38.666-18.046 38.666-38.666v-231.981c0-92.792-74.751-167.542-167.542-167.542h-618.617c-92.792 0-167.542 74.751-167.542 167.542v618.617c0 92.792 74.751 167.542 167.542 167.542zM683.055 580.784l-90.216 90.216c-25.775 25.775-7.736 72.17 30.93 72.17h371.169v-371.169c0-38.666-46.395-56.705-72.17-30.93l-90.216 90.216-252.601-252.601c-41.24-41.24-105.681-41.24-146.921 0s-41.24 105.681 0 146.921l250.024 255.179z" />
<glyph unicode="&#xe910;" glyph-name="import" d="M824.822 743.173h-360.859c-20.62 0-38.666-18.046-38.666-38.666s18.046-38.666 38.666-38.666h360.859c48.976 0 90.216-41.24 90.216-90.216v-618.617c0-48.976-41.24-90.216-90.216-90.216h-618.617c-48.976 0-90.216 41.24-90.216 90.216v360.859c0 20.62-18.046 38.666-38.666 38.666s-38.666-18.046-38.666-38.666v-360.859c0-92.792 74.751-167.542 167.542-167.542h618.617c92.792 0 167.542 74.751 167.542 167.542v618.617c0 92.792-74.751 167.542-167.542 167.542zM386.635 248.279l-90.216-90.216c-25.775-25.775-7.736-72.17 30.93-72.17h368.593v371.169c0 38.666-46.395 56.705-72.17 30.93l-90.216-92.792-306.731 304.153c-41.24 41.24-105.681 41.24-146.921 0s-41.24-105.681 0-146.921l306.731-304.153z" />
<glyph unicode="&#xe911;" glyph-name="text-block" d="M1031.028 627.181c0-15.465-12.891-25.775-25.775-25.775h-541.291c-12.891 0-25.775 10.31-25.775 25.775v128.878c0 15.465 12.891 25.775 25.775 25.775h541.291c12.891 0 25.775-10.31 25.775-25.775v-128.878zM1031.028 343.648c0-12.891-12.891-25.775-25.775-25.775h-979.478c-15.465 0-25.775 12.891-25.775 25.775v128.878c0 15.465 10.31 25.775 25.775 25.775h979.478c12.891 0 25.775-10.31 25.775-25.775v-128.878zM1031.028 60.115c0-12.891-12.891-25.775-25.775-25.775h-979.478c-15.465 0-25.775 12.891-25.775 25.775v128.878c0 12.891 10.31 25.775 25.775 25.775h979.478c12.891 0 25.775-12.891 25.775-25.775v-128.878zM592.841-223.414c0-12.891-12.891-25.775-25.775-25.775h-541.291c-15.465 0-25.775 12.891-25.775 25.775v128.878c0 12.891 10.31 25.775 25.775 25.775h541.291c12.891 0 25.775-12.891 25.775-25.775v-128.878z" />
<glyph unicode="&#xe912;" glyph-name="okta" d="M822.244 655.534v-288.688c69.596 10.31 126.301 72.17 126.301 144.344s-56.705 136.611-126.301 144.344zM654.702 511.191c0-72.17 54.131-134.034 126.301-144.344v288.688c-72.17-7.736-126.301-69.596-126.301-144.344zM1031.028 511.191c0 126.301-103.102 229.404-229.404 229.404-48.976 0-95.371-15.465-131.456-41.24-59.286 25.775-126.301 41.24-195.895 41.24-260.334 0-474.272-211.36-474.272-474.272s213.939-474.272 474.272-474.272c262.911 0 474.272 213.939 474.272 474.272 0 23.201-2.581 46.395-5.155 67.015 54.131 43.821 87.636 108.258 87.636 177.853zM474.272-125.469c-216.515 0-391.79 175.274-391.79 391.79s177.853 391.79 391.79 391.79c46.395 0 90.216-7.736 131.456-23.201-15.465-23.201-25.775-48.976-30.93-77.326-30.93 10.31-64.441 18.046-100.526 18.046-170.119 0-309.308-139.189-309.308-309.308s139.189-309.308 309.308-309.308c170.119 0 309.308 139.189 309.308 309.308 0 5.155 0 12.891 0 18.046 5.155 0 12.891 0 18.046 0 23.201 0 43.821 2.581 64.441 10.31 0-7.736 2.581-18.046 2.581-25.775 0-219.094-177.853-394.368-394.368-394.368zM801.624 325.606c-103.102 0-188.163 85.061-188.163 188.163s85.061 188.163 188.163 188.163 188.163-85.061 188.163-188.163-85.061-188.163-188.163-188.163z" />
<glyph unicode="&#xe913;" glyph-name="bar-chart" d="M180.43 188.994c0 12.891-10.31 25.775-25.775 25.775h-128.878c-15.465 0-25.775-12.891-25.775-25.775v-412.411c0-12.891 10.31-25.775 25.775-25.775h128.878c15.465 0 25.775 12.891 25.775 25.775v412.411zM463.962 756.059c0 15.465-12.891 25.775-25.775 25.775h-128.878c-15.465 0-25.775-10.31-25.775-25.775v-979.478c0-12.891 10.31-25.775 25.775-25.775h128.878c12.891 0 25.775 12.891 25.775 25.775v979.478zM747.495 472.527c0 15.465-12.891 25.775-25.775 25.775h-128.878c-12.891 0-25.775-10.31-25.775-25.775v-695.944c0-12.891 12.891-25.775 25.775-25.775h128.878c12.891 0 25.775 12.891 25.775 25.775v695.944zM1031.028-42.987c0 12.891-12.891 25.775-25.775 25.775h-128.878c-12.891 0-25.775-12.891-25.775-25.775v-180.43c0-12.891 12.891-25.775 25.775-25.775h128.878c12.891 0 25.775 12.891 25.775 25.775v180.43z" />
<glyph unicode="&#xe914;" glyph-name="play" d="M788.735 294.676l-461.385 402.101c-18.046 15.465-43.821 2.581-43.821-18.046v-824.822c0-23.201 25.775-33.511 43.821-20.62l461.385 402.101c15.465 18.046 15.465 43.821 0 59.286z" />
<glyph unicode="&#xe915;" glyph-name="user-outline" d="M768.115-171.864h-510.357c-30.93 0-56.705 30.93-56.705 67.015v157.232c0 110.836 69.596 208.783 152.077 257.756-43.821 43.821-69.596 100.526-69.596 164.964 0 128.878 100.526 231.981 231.981 231.981 128.878 0 231.981-100.526 231.981-231.981 0-61.86-25.775-123.723-69.596-164.964 79.906-48.976 152.077-146.921 152.077-257.756v-157.232c-2.581-36.085-28.356-67.015-61.86-67.015zM275.8-94.539h471.695v144.344c0 100.526-82.481 190.74-159.809 211.36-15.465 5.155-28.356 18.046-28.356 33.511s7.736 30.93 20.62 38.666c51.55 25.775 85.061 79.906 85.061 139.189 0 85.061-67.015 154.654-154.654 154.654s-154.654-67.015-154.654-154.654c0-59.286 33.511-110.836 85.061-139.189 15.465-7.736 23.201-23.201 20.62-38.666s-12.891-28.356-28.356-33.511c-74.751-18.046-159.809-113.413-159.809-211.36v-144.344z" />
<glyph unicode="&#xe916;" glyph-name="search" d="M1000.098-91.96l-203.628 203.628c41.24 64.441 64.441 136.611 64.441 219.094 0 226.826-183.008 409.833-409.833 409.833s-407.256-185.585-407.256-409.833 183.008-409.833 409.833-409.833c79.906 0 154.654 23.201 219.094 64.441l203.628-203.628c18.046-18.046 41.24-25.775 64.441-25.775s46.395 7.736 64.441 25.775c30.93 33.511 30.93 92.792-5.155 126.301zM146.921 330.761c0 167.542 136.611 304.153 304.153 304.153s306.731-136.611 306.731-306.731c0-79.906-30.93-152.077-79.906-206.205-2.581-2.581-7.736-5.155-10.31-7.736s-5.155-7.736-7.736-10.31c-54.131-48.976-126.301-79.906-206.205-79.906-170.119 0-306.731 136.611-306.731 306.731z" />
<glyph unicode="&#xe917;" glyph-name="duplicate" d="M927.925 781.835h-567.066c-56.705 0-103.102-46.395-103.102-103.102v-154.654h-154.654c-56.705 0-103.102-46.395-103.102-103.102v-567.066c0-56.705 46.395-103.102 103.102-103.102h567.066c56.705 0 103.102 46.395 103.102 103.102v154.654h154.654c56.705 0 103.102 46.395 103.102 103.102v567.066c0 56.705-46.395 103.102-103.102 103.102zM695.944-146.089c0-12.891-12.891-25.775-25.775-25.775h-567.066c-12.891 0-25.775 12.891-25.775 25.775v567.066c0 12.891 12.891 25.775 25.775 25.775h154.654v-335.084c0-56.705 46.395-103.102 103.102-103.102h335.084v-154.654z" />
<glyph unicode="&#xe918;" glyph-name="checkmark" d="M347.971-79.073l-273.223 273.223c-33.511 33.511-38.666 90.216-7.736 128.878 36.085 38.666 95.371 38.666 131.456 2.581l170.119-170.119c5.155-5.155 12.891-5.155 15.465 0l445.919 445.919c36.085 36.085 95.371 36.085 131.456-2.581 33.511-36.085 28.356-92.792-7.736-128.878l-546.446-546.446c-15.465-20.62-43.821-20.62-59.286-2.581z" />
<glyph unicode="&#xe919;" glyph-name="wrench" d="M201.050-218.259c-43.821 0-87.636 18.046-121.146 51.55-28.356 25.775-48.976 72.17-48.976 118.568 0 43.821 18.046 85.061 48.976 118.568l332.506 329.929c-2.581 18.046-5.155 36.085-5.155 54.131 0 162.387 134.034 296.42 296.42 296.42 36.085 0 67.015-7.736 92.792-15.465s41.24-28.356 43.821-48.976c2.581-18.046 0-36.085-10.31-51.55l-5.155-7.736-110.836-110.836c-2.581-2.581-5.155-5.155-5.155-7.736s2.581-5.155 5.155-7.736l38.666-38.666c5.155-5.155 12.891-5.155 18.046 0l108.258 108.258c12.891 18.046 38.666 25.775 59.286 20.62 20.62-2.581 41.24-18.046 48.976-41.24 7.736-28.356 15.465-59.286 15.465-95.371 0-162.387-134.034-296.42-296.42-296.42-18.046 0-36.085 2.581-54.131 5.155l-332.506-332.506c-33.511-30.93-74.751-48.976-118.568-48.976zM703.677 673.578c-121.146 0-219.094-97.947-219.094-219.094 0-20.62 2.581-36.085 7.736-59.286l5.155-20.62-360.859-360.859c-18.046-18.046-28.356-41.24-28.356-61.86 0-18.046 7.736-46.395 25.775-61.86 38.666-38.666 95.371-38.666 128.878-5.155l360.859 360.859 20.62-5.155c18.046-5.155 36.085-7.736 56.705-7.736 121.146 0 219.094 97.947 219.094 219.094 0 15.465-2.581 28.356-5.155 46.395l-90.216-92.792c-36.085-36.085-90.216-36.085-126.301 0l-38.666 38.666c-18.046 18.046-25.775 38.666-25.775 64.441 0 23.201 10.31 46.395 25.775 64.441l95.371 95.371c-20.62 2.581-36.085 5.155-51.55 5.155z" />
<glyph unicode="&#xe91a;" glyph-name="cubo-uniform" d="M1011.083 130.038l-110.126 473.544c-2.757 11.013-11.013 19.273-22.024 22.024l-465.283 143.164c-11.013 2.757-22.024 0-30.286-5.503l-355.156-333.13c-8.26-8.26-11.013-19.273-8.26-30.286l110.126-473.544c2.757-11.013 11.013-19.273 19.273-22.024l465.283-143.164c2.757 0 5.503 0 8.26 0 8.26 0 13.763 2.757 19.273 8.26l355.156 333.13c11.013 5.503 16.52 16.52 13.763 27.533zM578.842 474.181l85.345-371.678-366.168 112.878 280.822 258.795zM606.373 565.036l-101.865 110.126 250.535-77.089-148.669-33.036zM554.060 534.749l-311.105-291.833-148.669 162.435 311.105 291.833 148.669-162.435zM259.476 163.076l407.466-123.893-63.325-209.238-407.466 123.893 63.325 209.238zM730.265 33.678l148.669 33.036-189.967-178.956 41.296 145.918zM945.008 146.556l-214.748-49.556-96.362 415.726 214.748 49.556 96.362-415.726zM105.298 303.485l101.865-110.126-44.053-143.164-57.816 253.29z" />
<glyph unicode="&#xe91b;" glyph-name="collapse" d="M564.488 199.304c-2.581 2.581-5.155 5.155-7.736 7.736 0 0-2.581 2.581-2.581 2.581-2.581 0-2.581 2.581-5.155 2.581s-2.581 0-5.155 2.581c-2.581 0-2.581 0-5.155 2.581-2.581 0-7.736 0-10.31 0 0 0 0 0 0 0s0 0 0 0c-2.581 0-7.736 0-10.31 0s-2.581 0-5.155 0-2.581 0-5.155-2.581c-2.581 0-2.581-2.581-5.155-2.581s-2.581-2.581-5.155-2.581-5.155-5.155-7.736-7.736l-206.205-206.205c-20.62-20.62-20.62-51.55 0-72.17s51.55-20.62 72.17 0l118.568 118.568v-239.714c0-28.356 23.201-51.55 51.55-51.55s51.55 23.201 51.55 51.55v237.136l118.568-118.568c10.31-10.31 23.201-15.465 36.085-15.465s25.775 5.155 36.085 15.465c20.62 20.62 20.62 51.55 0 72.17l-203.628 206.205zM492.315 333.338c2.581-2.581 5.155-5.155 7.736-7.736 0 0 2.581-2.581 5.155-2.581s2.581-2.581 5.155-2.581c2.581 0 2.581 0 5.155-2.581 2.581 0 2.581 0 5.155-2.581 2.581 0 7.736 0 10.31 0s7.736 0 10.31 0c2.581 0 2.581 0 5.155 2.581 2.581 0 2.581 0 5.155 2.581 2.581 0 2.581 2.581 5.155 2.581 0 0 2.581 0 2.581 2.581 2.581 2.581 5.155 5.155 7.736 7.736l206.205 206.205c20.62 20.62 20.62 51.55 0 72.17s-51.55 20.62-72.17 0l-118.568-118.568v237.136c0 28.356-23.201 51.55-51.55 51.55s-51.55-23.201-51.55-51.55v-237.136l-118.568 118.568c-20.62 20.62-51.55 20.62-72.17 0s-20.62-51.55 0-72.17l203.628-206.205z" />
<glyph unicode="&#xe91c;" glyph-name="cog-outline" d="M577.376-249.192h-123.723c-41.24 0-74.751 33.511-74.751 74.751v59.286c-10.31 5.155-23.201 7.736-36.085 15.465l-41.24-41.24c-12.891-12.891-30.93-23.201-48.976-23.201-20.62 0-41.24 7.736-56.705 23.201l-87.636 90.216c-12.891 12.891-20.62 30.93-23.201 48.976 0 20.62 7.736 41.24 23.201 56.705l38.666 38.666c-5.155 12.891-10.31 25.775-15.465 36.085h-54.131c-41.24 0-74.751 33.511-74.751 74.751v123.723c0 41.24 33.511 74.751 74.751 74.751h56.705c5.155 12.891 10.31 25.775 15.465 36.085l-38.666 38.666c-28.356 28.356-28.356 77.326 0 108.258l87.636 87.636c28.356 28.356 79.906 28.356 108.258 0l43.821-41.24c10.31 5.155 23.201 10.31 36.085 15.465v59.286c0 41.24 33.511 74.751 74.751 74.751h123.723c41.24 0 74.751-33.511 74.751-74.751v-59.286c10.31-5.155 23.201-7.736 36.085-15.465l41.24 41.24c12.891 12.891 30.93 23.201 48.976 23.201 20.62 0 41.24-7.736 56.705-23.201l87.636-90.216c12.891-12.891 20.62-30.93 23.201-48.976 0-20.62-7.736-41.24-23.201-56.705l-38.666-38.666c5.155-12.891 10.31-25.775 15.465-36.085h56.705c20.62 0 41.24-10.31 54.131-25.775s18.046-33.511 15.465-54.131v-121.146c0-41.24-33.511-74.751-74.751-74.751h-56.705c-5.155-12.891-10.31-25.775-15.465-36.085l38.666-38.666c12.891-12.891 23.201-30.93 23.201-48.976 0-20.62-7.736-41.24-23.201-56.705l-87.636-87.636c-12.891-12.891-30.93-23.201-48.976-23.201-20.62 0-41.24 7.736-56.705 23.201l-41.24 41.24c-10.31-5.155-23.201-10.31-36.085-15.465v-59.286c-2.581-41.24-36.085-74.751-77.326-74.751zM456.23-171.864h118.568v115.991l28.356 7.736c25.775 5.155 48.976 15.465 69.596 28.356l25.775 15.465 79.906-79.906 82.481 82.481-77.326 77.326 12.891 25.775c15.465 28.356 23.201 48.976 28.356 74.751l7.736 30.93h113.413v121.146h-108.258l-7.736 28.356c-5.155 23.201-15.465 48.976-30.93 74.751l-12.891 25.775 77.326 77.326-82.481 85.061-79.906-79.906-25.775 12.891c-28.356 15.465-48.976 23.201-72.17 30.93l-28.356 7.736v113.413h-118.568v-115.991l-28.356-7.736c-25.775-5.155-48.976-15.465-69.596-28.356l-25.775-15.465-82.481 82.481-87.636-87.636 79.906-77.326-12.891-25.775c-15.465-28.356-23.201-48.976-30.93-74.751l-7.736-30.93h-110.836v-118.568h113.413l7.736-28.356c5.155-23.201 15.465-48.976 30.93-74.751l12.891-25.775-77.326-77.326 82.481-85.061 79.906 79.906 25.775-12.891c28.356-15.465 48.976-23.201 72.17-30.93l28.356-7.736v-113.413zM515.512 85.892c-100.526 0-180.43 79.906-180.43 180.43s79.906 180.43 180.43 180.43c100.526 0 180.43-79.906 180.43-180.43s-79.906-180.43-180.43-180.43zM515.512 369.424c-56.705 0-103.102-46.395-103.102-103.102s46.395-103.102 103.102-103.102c56.705 0 103.102 46.395 103.102 103.102s-46.395 103.102-103.102 103.102z" />
<glyph unicode="&#xe91d;" glyph-name="download" d="M409.833 245.701h-126.301c-36.085 0-56.705-46.395-28.356-72.17l260.334-260.334 262.911 262.911c28.356 28.356 7.736 72.17-28.356 72.17l-128.878-2.581-5.155 433.031c0 59.286-46.395 103.102-103.102 103.102-59.286 0-103.102-46.395-103.102-103.102v-433.031zM915.037 8.565v-51.55c0-48.976-41.24-90.216-90.216-90.216h-618.617c-48.976 0-90.216 41.24-90.216 90.216v51.55c0 20.62-18.046 38.666-38.666 38.666s-38.666-18.046-38.666-38.666v-51.55c0-92.792 74.751-167.542 167.542-167.542h618.617c92.792 0 167.542 74.751 167.542 167.542v51.55c0 20.62-18.046 38.666-38.666 38.666v0c-20.62 0-38.666-18.046-38.666-38.666z" />
<glyph unicode="&#xe91e;" glyph-name="wood" d="M231.981 544.699c-12.891-12.891-108.258-110.836-77.326-139.189 5.155-5.155 12.891-5.155 15.465 0 5.155 5.155 5.155 12.891 0 15.465-2.581 10.31 20.62 54.131 77.326 110.836 54.131 54.131 95.371 77.326 108.258 77.326 0-12.891-23.201-59.286-77.326-108.258-15.465-15.465-28.356-23.201-36.085-28.356 5.155 7.736 12.891 20.62 28.356 33.511 5.155 5.155 5.155 12.891 0 15.465-5.155 5.155-12.891 5.155-15.465 0-25.775-25.775-46.395-59.286-33.511-72.17s36.085-2.581 72.17 33.511c51.55 46.395 85.061 95.371 85.061 123.723 0 10.31-5.155 12.891-7.736 15.465-28.356 28.356-128.878-67.015-139.189-77.326zM966.587 219.926l-115.991 113.413 61.86 30.93c15.465 7.736 25.775 28.356 18.046 46.395-2.581 5.155-18.046 51.55-72.17 105.681s-95.371 64.441-103.102 67.015c-5.155 0-12.891 0-18.046 0l-105.681-28.356-162.387 162.387c-59.286 59.286-193.318 18.046-306.731-95.371-115.991-115.991-157.232-247.446-95.371-306.731l500.047-500.047c59.286-59.286 193.318-18.046 306.731 95.371 113.413 115.991 154.654 247.446 92.792 309.308zM118.568 369.424c-18.046 18.046 5.155 108.258 95.371 198.473s180.43 113.413 198.473 95.371c18.046-18.046-5.155-108.258-95.371-198.473-90.216-92.792-180.43-113.413-198.473-95.371zM817.089-35.254c-90.216-90.216-180.43-113.413-198.473-95.371l-425.299 425.299c0 0 2.581 0 2.581 0 2.581 0 7.736 2.581 10.31 2.581s7.736 2.581 10.31 2.581c2.581 2.581 7.736 2.581 10.31 5.155s7.736 2.581 10.31 5.155c2.581 2.581 7.736 2.581 10.31 5.155s7.736 2.581 10.31 5.155c2.581 0 2.581 2.581 5.155 2.581l159.809-113.413-103.102 152.077c2.581 2.581 5.155 2.581 7.736 5.155 5.155 5.155 10.31 7.736 15.465 12.891 2.581 2.581 5.155 5.155 7.736 7.736 7.736 7.736 15.465 12.891 23.201 20.62s15.465 15.465 20.62 23.201c2.581 2.581 5.155 5.155 7.736 7.736 5.155 5.155 7.736 10.31 12.891 15.465 2.581 2.581 5.155 5.155 7.736 10.31s7.736 7.736 10.31 12.891c2.581 2.581 5.155 7.736 7.736 10.31 2.581 5.155 5.155 7.736 7.736 12.891 2.581 2.581 5.155 7.736 5.155 10.31 2.581 5.155 5.155 7.736 7.736 12.891 2.581 2.581 2.581 7.736 5.155 10.31 2.581 5.155 5.155 7.736 5.155 10.31 2.581 2.581 2.581 7.736 5.155 10.31s2.581 7.736 5.155 10.31c2.581 2.581 2.581 7.736 2.581 10.31s2.581 7.736 2.581 10.31c0 0 0 2.581 0 2.581l56.705-56.705-10.31-2.581c-20.62-5.155-33.511-25.775-25.775-46.395 5.155-20.62 25.775-33.511 46.395-25.775l190.74 54.131c10.31-5.155 30.93-15.465 59.286-43.821 18.046-18.046 28.356-33.511 38.666-46.395l-136.611-72.17c-18.046-10.31-25.775-33.511-15.465-51.55 2.581-2.581 5.155-7.736 7.736-10.31 12.891-12.891 30.93-15.465 46.395-7.736l38.666 20.62 134.034-134.034c7.736-7.736 7.736-30.93-2.581-59.286l-128.878 95.371 95.371-162.387c-20.62-25.775-41.24-48.976-64.441-74.751z" />
<glyph unicode="&#xe91f;" glyph-name="eye" d="M515.512-66.185c-213.939 0-404.678 121.146-500.047 317.041l-7.736 15.465 7.736 15.465c92.792 195.895 283.533 317.041 500.047 317.041 213.939 0 404.678-121.146 500.047-317.041l7.736-15.465-7.736-15.465c-95.371-195.895-286.11-317.041-500.047-317.041zM95.371 266.322c82.481-157.232 242.291-255.179 420.143-255.179s337.661 97.947 420.143 255.179c-82.481 157.232-242.291 255.179-420.143 255.179s-337.661-97.947-420.143-255.179zM515.512 85.892c-100.526 0-180.43 79.906-180.43 180.43s79.906 180.43 180.43 180.43c100.526 0 180.43-79.906 180.43-180.43s-79.906-180.43-180.43-180.43zM515.512 369.424c-56.705 0-103.102-46.395-103.102-103.102s46.395-103.102 103.102-103.102c56.705 0 103.102 46.395 103.102 103.102s-46.395 103.102-103.102 103.102z" />
<glyph unicode="&#xe920;" glyph-name="clock" d="M515.512 717.396c-249.38 0-451.075-201.695-451.075-451.075s201.695-451.075 451.075-451.075 451.075 201.695 451.075 451.075c0 249.38-201.695 451.075-451.075 451.075zM773.27 201.883h-257.756c-35.442 0-64.441 28.996-64.441 64.441v257.756c0 35.442 28.996 64.441 64.441 64.441s64.441-28.996 64.441-64.441v-193.318h193.318c35.442 0 64.441-28.996 64.441-64.441s-28.996-64.441-64.441-64.441z" />
<glyph unicode="&#xe921;" glyph-name="alerts" d="M837.709-146.089h-644.392c-54.131 0-97.947 20.62-121.146 59.286-20.62 36.085-18.046 85.061 10.31 134.034l322.196 556.756c28.356 46.395 67.015 74.751 110.836 74.751s82.481-28.356 110.836-74.751l322.196-556.756c28.356-46.395 30.93-95.371 10.31-134.034-23.201-36.085-67.015-59.286-121.146-59.286zM515.512 601.406c-15.465 0-30.93-12.891-43.821-36.085l-322.196-556.756c-12.891-23.201-15.465-43.821-10.31-56.705 7.736-12.891 25.775-20.62 54.131-20.62h644.392c25.775 0 46.395 7.736 54.131 20.62s5.155 33.511-10.31 56.705l-322.196 556.756c-12.891 23.201-28.356 36.085-43.821 36.085zM515.512 188.994c-20.62 0-38.666 18.046-38.666 38.666v180.43c0 20.62 18.046 38.666 38.666 38.666s38.666-18.046 38.666-38.666v-180.43c0-20.62-18.046-38.666-38.666-38.666zM579.953 73.005c0-35.591-28.85-64.441-64.441-64.441s-64.441 28.85-64.441 64.441c0 35.591 28.85 64.441 64.441 64.441s64.441-28.85 64.441-64.441z" />
<glyph unicode="&#xe922;" glyph-name="plus-skinny" horiz-adv-x="775" d="M708.832 330.761h-257.756v257.756c0 35.442-28.996 64.441-64.441 64.441s-64.441-28.996-64.441-64.441v-257.756h-257.756c-35.442 0-64.441-28.996-64.441-64.441s28.996-64.441 64.441-64.441h257.756v-257.756c0-35.442 28.996-64.441 64.441-64.441s64.441 28.996 64.441 64.441v257.756h257.756c35.442 0 64.441 28.996 64.441 64.441s-28.996 64.441-64.441 64.441z" />
<glyph unicode="&#xe923;" glyph-name="capacitor2" d="M938.235 580.784c-28.356 48.976-92.792 67.015-141.766 38.666-38.666-23.201-56.705-69.596-48.976-110.836l-231.981-134.034-231.981 134.034c7.736 41.24-10.31 87.636-48.976 110.836-48.976 28.356-113.413 10.31-141.766-38.666s-10.31-113.413 38.666-141.766c38.666-23.201 87.636-15.465 118.568 12.891l231.981-134.034v-268.068c-41.24-12.891-72.17-51.55-72.17-97.947 0-56.705 46.395-103.102 103.102-103.102s103.102 46.395 103.102 103.102c0 46.395-30.93 85.061-72.17 97.947v268.068l231.981 134.034c33.511-28.356 79.906-36.085 118.568-12.891 54.131 28.356 72.17 92.792 43.821 141.766z" />
<glyph unicode="&#xe924;" glyph-name="graphline-2" d="M938.235 402.933c-25.775 15.465-56.705 18.046-82.481 7.736l-121.146 162.387c2.581 2.581 2.581 5.155 5.155 7.736 28.356 48.976 10.31 113.413-38.666 141.766s-113.413 10.31-141.766-38.666c-25.775-43.821-12.891-100.526 25.775-131.456l-198.473-549.023c-12.891 0-23.201-2.581-36.085-5.155l-121.146 159.809c2.581 2.581 2.581 5.155 5.155 7.736 28.356 48.976 10.31 113.413-38.666 141.766s-110.836 10.31-139.189-38.666-10.31-113.413 38.666-141.766c25.775-15.465 56.705-18.046 85.061-7.736l121.146-159.809c-2.581-2.581-2.581-2.581-5.155-5.155-28.356-48.976-10.31-113.413 38.666-141.766s113.413-10.31 141.766 38.666c25.775 46.395 12.891 103.102-25.775 134.034l193.318 543.868c12.891 0 23.201 2.581 36.085 5.155l121.146-159.809c-2.581-2.581-2.581-5.155-5.155-7.736-28.356-48.976-10.31-113.413 38.666-141.766s113.413-10.31 141.766 38.666 10.31 110.836-38.666 139.189z" />
<glyph unicode="&#xe925;" glyph-name="add-cell" d="M418.855 781.835h-386.635c-18.046 0-32.217-14.178-32.217-32.217v-386.635c0-18.046 14.178-32.217 32.217-32.217h386.635c18.046 0 32.217 14.178 32.217 32.217v386.635c0 18.046-14.178 32.217-32.217 32.217zM998.808 201.883h-386.635c-18.046 0-32.217-14.178-32.217-32.217v-386.635c0-18.046 14.178-32.217 32.217-32.217h386.635c18.046 0 32.217 14.178 32.217 32.217v386.635c0 18.046-14.178 32.217-32.217 32.217zM418.855 201.883h-386.635c-18.046 0-32.217-14.178-32.217-32.217v-386.635c0-18.046 14.178-32.217 32.217-32.217h386.635c18.046 0 32.217 14.178 32.217 32.217v386.635c0 18.046-14.178 32.217-32.217 32.217zM612.172 524.078h161.098v-161.098c0-18.046 14.178-32.217 32.217-32.217s32.217 14.178 32.217 32.217v161.098h161.098c18.046 0 32.217 14.178 32.217 32.217s-14.178 32.217-32.217 32.217h-161.098v161.098c0 18.046-14.178 32.217-32.217 32.217s-32.217-14.178-32.217-32.217v-161.098h-161.098c-18.046 0-32.217-14.178-32.217-32.217s14.178-32.217 32.217-32.217z" />
<glyph unicode="&#xe926;" glyph-name="alert-triangle" d="M1012.756-23.903l-441.294 772.263c-11.471 20.079-32.824 32.47-55.949 32.47s-44.475-12.39-55.949-32.47l-441.294-772.263c-11.397-19.941-11.315-44.445 0.214-64.316s32.764-32.093 55.732-32.093h882.588c22.968 0 44.205 12.228 55.732 32.093s11.611 44.369 0.214 64.316zM579.953 8.565h-128.878v128.878h128.878v-128.878zM579.953 201.883h-128.878v257.756h128.878v-257.756z" />
<glyph unicode="&#xe927;" glyph-name="dash-f" d="M322.196 356.536c0 28.356-23.201 51.55-51.55 51.55h-180.43c-28.356 0-51.55-23.201-51.55-51.55v-180.43c0-28.356 23.201-51.55 51.55-51.55h180.43c28.356 0 51.55 23.201 51.55 51.55v180.43zM322.196 691.62c0 28.356-23.201 51.55-51.55 51.55h-180.43c-28.356 0-51.55-23.201-51.55-51.55v-180.43c0-28.356 23.201-51.55 51.55-51.55h180.43c28.356 0 51.55 23.201 51.55 51.55v180.43zM605.729 459.639c28.356 0 51.55 23.201 51.55 51.55v180.43c0 28.356-23.201 51.55-51.55 51.55h-180.43c-28.356 0-51.55-23.201-51.55-51.55v-180.43c0-28.356 23.201-51.55 51.55-51.55h180.43zM657.28 356.536c0 28.356-23.201 51.55-51.55 51.55h-180.43c-28.356 0-51.55-23.201-51.55-51.55v-180.43c0-28.356 23.201-51.55 51.55-51.55h180.43c28.356 0 51.55 23.201 51.55 51.55v180.43zM90.216 73.005c-28.356 0-51.55-23.201-51.55-51.55v-180.43c0-28.356 23.201-51.55 51.55-51.55h180.43c28.356 0 51.55 23.201 51.55 51.55v180.43c0 28.356-23.201 51.55-51.55 51.55h-180.43zM425.299 73.005c-28.356 0-51.55-23.201-51.55-51.55v-180.43c0-28.356 23.201-51.55 51.55-51.55h180.43c28.356 0 51.55 23.201 51.55 51.55v180.43c0 28.356-23.201 51.55-51.55 51.55h-180.43zM760.383 743.173c-28.356 0-51.55-23.201-51.55-51.55v-180.43c0-28.356 23.201-51.55 51.55-51.55h180.43c28.356 0 51.55 23.201 51.55 51.55v180.43c0 28.356-23.201 51.55-51.55 51.55h-180.43zM708.832 176.107c0-28.356 23.201-51.55 51.55-51.55h180.43c28.356 0 51.55 23.201 51.55 51.55v180.43c0 28.356-23.201 51.55-51.55 51.55h-180.43c-28.356 0-51.55-23.201-51.55-51.55v-180.43zM708.832-158.98c0-28.356 23.201-51.55 51.55-51.55h180.43c28.356 0 51.55 23.201 51.55 51.55v180.43c0 28.356-23.201 51.55-51.55 51.55h-180.43c-28.356 0-51.55-23.201-51.55-51.55v-180.43z" />
<glyph unicode="&#xe928;" glyph-name="github" d="M515.52 769.106c-284.678 0-515.52-230.791-515.52-515.51 0-227.766 147.711-421.002 352.539-489.17 25.761-4.773 35.23 11.187 35.23 24.8 0 12.288-0.48 52.903-0.703 95.978-143.426-31.186-173.688 60.823-173.688 60.823-23.443 59.582-57.24 75.43-57.24 75.43-46.771 31.995 3.531 31.338 3.531 31.338 51.751-3.638 79.015-53.13 79.015-53.13 45.987-78.809 120.598-56.022 150.027-42.852 4.619 33.311 17.975 56.063 32.73 68.933-114.51 13.033-234.876 57.242-234.876 254.769 0 56.283 20.144 102.271 53.124 138.371-5.351 12.991-23.008 65.42 4.987 136.43 0 0 43.3 13.845 141.806-52.85 41.116 11.425 85.217 17.155 129.034 17.353 43.803-0.198 87.936-5.928 129.136-17.353 98.406 66.699 141.621 52.85 141.621 52.85 28.061-71.011 10.42-123.441 5.071-136.43 33.044-36.101 53.058-82.092 53.058-138.371 0-198.003-120.6-241.597-235.395-254.357 18.49-16.002 34.962-47.368 34.962-95.463 0-68.977-0.603-124.492-0.603-141.472 0-13.719 9.285-29.797 35.413-24.734 204.718 68.241 352.243 261.408 352.243 489.102 0 284.721-230.807 515.51-515.504 515.51z" />
<glyph unicode="&#xe929;" glyph-name="dash-h" d="M322.196 524.078c0 28.356-23.201 51.55-51.55 51.55h-180.43c-28.356 0-51.55-23.201-51.55-51.55v-180.43c0-28.356 23.201-51.55 51.55-51.55h180.43c28.356 0 51.55 23.201 51.55 51.55v180.43zM90.216 240.546c-28.356 0-51.55-23.201-51.55-51.55v-180.43c0-28.356 23.201-51.55 51.55-51.55h180.43c28.356 0 51.55 23.201 51.55 51.55v180.43c0 28.356-23.201 51.55-51.55 51.55h-180.43zM425.299 240.546c-28.356 0-51.55-23.201-51.55-51.55v-180.43c0-28.356 23.201-51.55 51.55-51.55h180.43c28.356 0 51.55 23.201 51.55 51.55v180.43c0 28.356-23.201 51.55-51.55 51.55h-180.43zM373.748 343.648c0-28.356 23.201-51.55 51.55-51.55h515.512c28.356 0 51.55 23.201 51.55 51.55v180.43c0 28.356-23.201 51.55-51.55 51.55h-515.512c-28.356 0-51.55-23.201-51.55-51.55v-180.43zM708.832 8.565c0-28.356 23.201-51.55 51.55-51.55h180.43c28.356 0 51.55 23.201 51.55 51.55v180.43c0 28.356-23.201 51.55-51.55 51.55h-180.43c-28.356 0-51.55-23.201-51.55-51.55v-180.43z" />
<glyph unicode="&#xe92a;" glyph-name="google" d="M525.782 340.024v-176.805h292.393c-11.884-75.918-88.402-222.315-292.393-222.315-176 0-319.578 145.794-319.578 325.418s143.579 325.418 319.578 325.418c100.082 0 167.139-42.692 205.4-79.542l139.954 134.718c-89.812 84.174-206.205 134.919-345.354 134.919-284.942 0-515.512-230.572-515.512-515.512s230.572-515.512 515.512-515.512c297.427 0 494.973 209.226 494.973 503.632 0 33.831-3.628 59.606-8.056 85.381l-486.92 0.2z" />
<glyph unicode="&#xe92b;" glyph-name="dash-j" d="M915.037 601.406h-799.047c-56.705 0-103.102-46.395-103.102-103.102v-463.962c0-56.705 46.395-103.102 103.102-103.102h799.047c56.705 0 103.102 46.395 103.102 103.102v463.962c0 56.705-46.395 103.102-103.102 103.102zM90.216 498.302c0 12.891 12.891 25.775 25.775 25.775h206.205v-219.094h-231.981v193.318zM115.991 8.565c-12.891 0-25.775 12.891-25.775 25.775v193.318h231.981v-219.094h-206.205zM399.523 8.565v219.094h231.981v-219.094h-231.981zM940.812 34.34c0-12.891-12.891-25.775-25.775-25.775h-206.205v219.094h231.981v-193.318zM399.523 304.986v219.094h515.512c12.891 0 25.775-12.891 25.775-25.775v-193.318h-541.291z" />
<glyph unicode="&#xe92c;" glyph-name="triangle" d="M837.709-146.089h-644.392c-54.131 0-97.947 20.62-121.146 59.286-20.62 36.085-18.046 85.061 10.31 134.034l322.196 556.756c28.356 46.395 67.015 74.751 110.836 74.751s82.481-28.356 110.836-74.751l322.196-556.756c28.356-46.395 30.93-95.371 10.31-134.034-23.201-36.085-67.015-59.286-121.146-59.286zM515.512 601.406c-15.465 0-30.93-12.891-43.821-36.085l-322.196-556.756c-12.891-23.201-15.465-43.821-10.31-56.705 7.736-12.891 25.775-20.62 54.131-20.62h644.392c25.775 0 46.395 7.736 54.131 20.62s5.155 33.511-10.31 56.705l-322.196 556.756c-12.891 23.201-28.356 36.085-43.821 36.085z" />
<glyph unicode="&#xe92d;" glyph-name="octagon" d="M690.789-197.639h-353.128c-10.31 0-20.62 5.155-28.356 10.31l-250.024 250.024c-7.736 7.736-10.31 18.046-10.31 28.356v353.128c0 10.31 5.155 20.62 10.31 28.356l250.024 250.024c7.736 7.736 18.046 10.31 28.356 10.31h353.128c10.31 0 20.62-5.155 28.356-10.31l250.024-250.024c7.736-7.736 10.31-18.046 10.31-28.356v-353.128c0-10.31-5.155-20.62-10.31-28.356l-250.024-250.024c-7.736-5.155-18.046-10.31-28.356-10.31zM355.704-120.314h319.619l226.826 226.826v319.619l-226.826 226.826h-319.619l-226.826-226.826v-319.619l226.826-226.826z" />
<glyph unicode="&#xe92e;" glyph-name="link" d="M773.27 524.078h-138.947c48.329-32.217 93.637-89.61 107.735-128.878h30.203c65.448 0 128.878-64.441 128.878-128.878s-65.448-128.878-128.878-128.878h-193.318c-63.434 0-128.878 64.441-128.878 128.878 0 23.16 7.049 45.308 18.126 64.441h-137.94c-5.035-21.147-8.056-42.287-8.056-64.441 0-128.878 127.872-257.756 256.75-257.756s65.448 0 194.325 0 257.756 128.878 257.756 257.756-128.878 257.756-257.756 257.756zM288.97 137.443h-30.203c-65.448 0-128.878 64.441-128.878 128.878s65.448 128.878 128.878 128.878h193.318c63.434 0 128.878-64.441 128.878-128.878 0-23.16-7.049-45.308-18.126-64.441h137.94c5.035 21.147 8.056 42.287 8.056 64.441 0 128.878-127.872 257.756-256.75 257.756s-65.448 0-194.325 0-257.756-128.878-257.756-257.756 128.878-257.756 257.756-257.756h138.947c-48.329 32.217-93.637 89.61-107.735 128.878z" />
<glyph unicode="&#xe92f;" glyph-name="pencil" horiz-adv-x="903" d="M708.832 717.396l-128.878-128.878 193.318-193.318 128.878 128.878-193.318 193.318zM0 8.565l0.695-193.883 192.625 0.569 515.512 515.512-193.318 193.318-515.512-515.512zM193.318-120.314h-128.878v128.878h64.441v-64.441h64.441v-64.441z" />
<glyph unicode="&#xe930;" glyph-name="star" horiz-adv-x="903" d="M902.149 395.2l-315.651 41.062-135.423 281.134-135.456-281.134-315.619-41.062 232.050-210.309-59.874-305.142 278.901 149.833 278.963-149.833-59.97 305.142 232.082 210.309z" />
<glyph unicode="&#xe931;" glyph-name="stop" d="M708.832 781.835h-386.635l-322.196-322.196v-386.635l322.196-322.196h386.635l322.196 322.196v386.635l-322.196 322.196zM902.149 137.443l-257.756-257.756h-257.756l-257.756 257.756v257.756l257.756 257.756h257.756l257.756-257.756v-257.756zM451.075 201.883h128.878v322.196h-128.878v-322.196zM451.075 8.565h128.878v128.878h-128.878v-128.878z" />
<glyph unicode="&#xe932;" glyph-name="zap" horiz-adv-x="647" d="M644.392 330.761h-257.756l193.318 451.075-579.953-579.953h257.756l-193.318-451.075 579.953 579.953z" />
<glyph unicode="&#xe933;" glyph-name="chat" horiz-adv-x="885" d="M810.092 597.722h-736.448c-36.823 0-73.646-36.823-73.646-73.646v-441.869c0-36.823 36.823-73.646 73.646-73.646h294.579l294.579-220.935v220.935h147.29c36.823 0 73.646 36.823 73.646 73.646v441.869c0 36.823-36.823 73.646-73.646 73.646z" />
<glyph unicode="&#xe936;" glyph-name="pulse-c" d="M402.101 212.193v105.681c0 7.736 5.155 15.465 10.31 20.62l92.792 54.131c7.736 5.155 15.465 5.155 23.201 0l92.792-54.131c7.736-5.155 10.31-12.891 10.31-20.62v-105.681c0-7.736-5.155-15.465-10.31-20.62l-92.792-54.131c-7.736-5.155-15.465-5.155-23.201 0l-92.792 54.131c-7.736 5.155-10.31 12.891-10.31 20.62zM737.185 196.727v69.596c0 15.465-12.891 28.356-28.356 25.775v0c-12.891-2.581-23.201-12.891-23.201-25.775v-69.596c0-18.046-10.31-33.511-23.201-41.24l-59.286-33.511c-10.31-5.155-15.465-20.62-10.31-30.93v0c5.155-15.465 23.201-20.62 36.085-12.891l59.286 33.511c30.93 15.465 48.976 48.976 48.976 85.061zM463.962 627.181l-128.878-74.751c-12.891-7.736-18.046-25.775-7.736-38.666v0c7.736-10.31 23.201-12.891 33.511-7.736l128.878 74.751c7.736 5.155 18.046 7.736 25.775 7.736 10.31 0 18.046-2.581 25.775-7.736l128.878-74.751c10.31-5.155 25.775-2.581 33.511 7.736v0c10.31 12.891 5.155 30.93-7.736 38.666l-128.878 74.751c-30.93 18.046-72.17 18.046-103.102 0zM342.816 109.090l59.286-33.511c12.891-7.736 30.93-2.581 36.085 12.891v0c5.155 12.891 0 25.775-10.31 30.93l-59.286 33.511c-15.465 7.736-23.201 25.775-23.201 41.24v69.596c0 12.891-10.31 23.201-23.201 25.775v0c-15.465 2.581-28.356-10.31-28.356-25.775v-69.596c0-33.511 18.046-67.015 48.976-85.061zM466.54 493.147l-59.286-33.511c-12.891-7.736-18.046-25.775-7.736-38.666v0c7.736-10.31 23.201-12.891 33.511-7.736l72.17 41.24c2.581 2.581 7.736 2.581 12.891 2.581s7.736 0 12.891-2.581l72.17-41.24c10.31-5.155 25.775-2.581 33.511 7.736v0c10.31 12.891 5.155 30.93-7.736 38.666l-59.286 33.511c-36.085 18.046-72.17 18.046-103.102 0zM288.688 601.406l164.964 95.371c38.666 23.201 87.636 23.201 126.301 0l164.964-95.371c10.31-5.155 25.775-2.581 33.511 7.736v0c10.31 12.891 5.155 30.93-7.736 38.666l-177.853 103.102c-46.395 28.356-105.681 28.356-152.077 0l-177.853-103.102c-12.891-7.736-18.046-25.775-7.736-38.666v0c7.736-10.31 23.201-12.891 33.511-7.736zM920.192 294.676v-188.163c0-43.821-23.201-87.636-61.86-108.258l-164.964-95.371c-10.31-5.155-15.465-20.62-10.31-30.93v0c5.155-15.465 23.201-20.62 36.085-12.891l164.964 95.371c54.131 30.93 87.636 90.216 87.636 154.654v188.163c0 15.465-12.891 28.356-28.356 25.775v0c-12.891-5.155-23.201-15.465-23.201-28.356zM242.291 34.34l115.991-67.015c12.891-7.736 30.93-2.581 36.085 12.891v0c5.155 12.891 0 25.775-10.31 30.93l-115.991 67.015c-23.201 12.891-38.666 38.666-38.666 67.015v134.034c0 12.891-10.31 23.201-23.201 25.775v0c-15.465 2.581-28.356-10.31-28.356-25.775v-134.034c0-46.395 25.775-87.636 64.441-110.836zM337.661-97.115l-164.964 95.371c-38.666 23.201-61.86 64.441-61.86 108.258v188.163c0 12.891-10.31 23.201-23.201 25.775v0c-15.465 2.581-28.356-10.31-28.356-25.775v-188.163c0-64.441 33.511-121.146 87.636-154.654l164.964-95.371c12.891-7.736 30.93-2.581 36.085 12.891v0c5.155 12.891 2.581 25.775-10.31 33.511zM853.175 145.177v134.034c0 15.465-12.891 28.356-28.356 25.775v0c-12.891-2.581-23.201-12.891-23.201-25.775v-134.034c0-28.356-15.465-54.131-38.666-67.015l-115.991-67.015c-10.31-5.155-15.465-20.62-10.31-30.93v0c5.155-15.465 23.201-20.62 36.085-12.891l115.991 67.015c38.666 23.201 64.441 64.441 64.441 110.836z" />
<glyph unicode="&#xe93e;" glyph-name="square" d="M824.822-158.98h-618.617c-64.441 0-115.991 51.55-115.991 115.991v618.617c0 64.441 51.55 115.991 115.991 115.991h618.617c64.441 0 115.991-51.55 115.991-115.991v-618.617c0-64.441-51.55-115.991-115.991-115.991zM206.205 614.294c-20.62 0-38.666-18.046-38.666-38.666v-618.617c0-20.62 18.046-38.666 38.666-38.666h618.617c20.62 0 38.666 18.046 38.666 38.666v618.617c0 20.62-18.046 38.666-38.666 38.666h-618.617z" />
<glyph unicode="&#xe940;" glyph-name="circle" d="M515.512-133.202c-219.094 0-399.523 180.43-399.523 399.523s180.43 399.523 399.523 399.523 399.523-180.43 399.523-399.523-180.43-399.523-399.523-399.523zM515.512 588.517c-177.853 0-322.196-144.344-322.196-322.196s144.344-322.196 322.196-322.196 322.196 144.344 322.196 322.196-144.344 322.196-322.196 322.196z" />
<glyph unicode="&#xe942;" glyph-name="expand-b" horiz-adv-x="1223" d="M1159.906 652.957h-1095.469c-35.442 0-64.441-28.996-64.441-64.441v-644.392c0-35.442 28.996-64.441 64.441-64.441h1095.469c35.442 0 64.441 28.996 64.441 64.441v644.392c0 35.442-28.996 64.441-64.441 64.441zM289.977-55.874h-193.318c-18.046 0-32.217 14.178-32.217 32.217v193.318c0 18.046 14.178 32.217 32.217 32.217s32.217-14.178 32.217-32.217v-161.098h161.098c18.046 0 32.217-14.178 32.217-32.217s-14.178-32.217-32.217-32.217zM289.977 524.078h-161.098v-161.098c0-18.046-14.178-32.217-32.217-32.217s-32.217 14.178-32.217 32.217v193.318c0 18.046 14.178 32.217 32.217 32.217h193.318c18.046 0 32.217-14.178 32.217-32.217s-14.178-32.217-32.217-32.217zM1159.906 8.565v-32.217c0-18.046-14.178-32.217-32.217-32.217h-193.318c-18.046 0-32.217 14.178-32.217 32.217s14.178 32.217 32.217 32.217h161.098v161.098c0 18.046 14.178 32.217 32.217 32.217s32.217-14.178 32.217-32.217v-161.098zM1159.906 524.078v-161.098c0-18.046-14.178-32.217-32.217-32.217s-32.217 14.178-32.217 32.217v161.098h-161.098c-18.046 0-32.217 14.178-32.217 32.217s14.178 32.217 32.217 32.217h193.318c18.046 0 32.217-14.178 32.217-32.217v-32.217z" />
<glyph unicode="&#xe944;" glyph-name="expand-a" d="M902.149 40.784c0-18.046-14.178-32.217-32.217-32.217h-708.832c-18.046 0-32.217 14.178-32.217 32.217v451.075c0 18.046 14.178 32.217 32.217 32.217h708.832c18.046 0 32.217-14.178 32.217-32.217v-451.075zM966.587 652.957h-161.098c-18.046 0-32.217-14.178-32.217-32.217v0c0-18.046 14.178-32.217 32.217-32.217h128.878c18.046 0 32.217-14.178 32.217-32.217v-128.878c0-18.046 14.178-32.217 32.217-32.217v0c18.046 0 32.217 14.178 32.217 32.217v161.098c0 35.442-28.996 64.441-64.441 64.441v0zM64.441 652.957h161.098c18.046 0 32.217-14.178 32.217-32.217v0c0-18.046-14.178-32.217-32.217-32.217h-128.878c-18.046 0-32.217-14.178-32.217-32.217v-128.878c0-18.046-14.178-32.217-32.217-32.217v0c-18.046 0-32.217 14.178-32.217 32.217v161.098c0 35.442 28.996 64.441 64.441 64.441v0zM966.587-120.314h-161.098c-18.046 0-32.217 14.178-32.217 32.217v0c0 18.046 14.178 32.217 32.217 32.217h128.878c18.046 0 32.217 14.178 32.217 32.217v128.878c0 18.046 14.178 32.217 32.217 32.217v0c18.046 0 32.217-14.178 32.217-32.217v-161.098c0-35.442-28.996-64.441-64.441-64.441v0zM64.441-120.314h161.098c18.046 0 32.217 14.178 32.217 32.217v0c0 18.046-14.178 32.217-32.217 32.217h-128.878c-18.046 0-32.217 14.178-32.217 32.217v128.878c0 18.046-14.178 32.217-32.217 32.217v0c-18.046 0-32.217-14.178-32.217-32.217v-161.098c0-35.442 28.996-64.441 64.441-64.441v0z" />
<glyph unicode="&#xe947;" glyph-name="heroku" d="M824.822 781.835h-618.617c-43.821 0-77.326-33.511-77.326-77.326v-876.373c0-43.821 33.511-77.326 77.326-77.326h618.617c43.821 0 77.326 33.511 77.326 77.326v876.373c0 43.821-33.511 77.326-77.326 77.326zM402.101 5.987l-115.991-92.792c0 0-2.581-2.581-5.155-2.581 0 0-2.581 0-2.581 0-2.581 0-2.581 2.581-2.581 5.155v195.895c0 2.581 2.581 5.155 2.581 5.155 2.581 0 5.155 0 7.736 0l115.991-103.102c2.581 0 2.581-2.581 2.581-5.155 0 0 0-2.581-2.581-2.581zM755.228-81.65c0-2.581-2.581-5.155-5.155-5.155h-115.991c-2.581 0-5.155 2.581-5.155 5.155v270.645c0 23.201 0 43.821-15.465 56.705-12.891 10.31-36.085 12.891-72.17 7.736-46.395-7.736-97.947-20.62-144.344-33.511-2.581 0-5.155-2.581-7.736-2.581s-7.736-2.581-10.31-2.581c-2.581 0-5.155-2.581-7.736-2.581s-7.736-2.581-10.31-2.581c-2.581 0-5.155-2.581-7.736-2.581s-5.155-2.581-7.736-2.581c-2.581 0-5.155-2.581-7.736-2.581s-5.155-2.581-7.736-2.581c-2.581 0-5.155-2.581-7.736-2.581s-2.581-2.581-5.155-2.581-5.155-2.581-7.736-5.155c0 0-2.581 0-2.581-2.581-2.581-2.581-5.155-2.581-7.736-5.155 0 0-2.581 0-2.581 0-2.581-2.581-5.155-5.155-7.736-5.155 0 0-2.581 0-2.581 0s0 0 0 0 0 0 0 0-2.581 0-2.581 0c0 0 0 0 0 0s0 0 0 0 0 0 0 0 0 2.581 0 2.581c0 0 0 0 0 2.581 0 0 0 0 0 0v435.609c0 2.581 2.581 5.155 5.155 5.155h115.991c2.581 0 5.155-2.581 5.155-5.155v-262.911c59.286 18.046 139.189 33.511 213.939 23.201 82.481-10.31 136.611-48.976 136.611-190.74v-268.068zM672.745 446.751c0-2.581-2.581-2.581-5.155-2.581h-115.991c-2.581 0-5.155 2.581-5.155 2.581s0 5.155 0 7.736c28.356 38.666 79.906 108.258 79.906 159.809 0 2.581 2.581 5.155 5.155 5.155h115.991c2.581 0 5.155-2.581 5.155-5.155 2.581-54.131-51.55-126.301-79.906-167.542z" />
<glyph unicode="&#xe948;" glyph-name="heroku-simple" d="M350.549-112.581l-167.542-134.034c-2.581-2.581-2.581-2.581-5.155-2.581s-2.581 0-5.155 0c-2.581 2.581-5.155 5.155-5.155 7.736v283.533c0 2.581 2.581 7.736 5.155 7.736 2.581 2.581 7.736 0 10.31-2.581l167.542-149.499c2.581-2.581 2.581-5.155 2.581-7.736 2.581 0 0-2.581-2.581-2.581zM863.485-238.88c0-5.155-5.155-10.31-10.31-10.31h-167.542c-5.155 0-10.31 5.155-10.31 10.31v394.368c0 30.93 0 64.441-20.62 82.481-18.046 15.465-54.131 20.62-103.102 12.891-67.015-10.31-141.766-28.356-208.783-48.976-5.155 0-7.736-2.581-10.31-2.581-5.155-2.581-10.31-2.581-15.465-5.155-2.581 0-7.736-2.581-10.31-2.581-5.155-2.581-10.31-2.581-12.891-5.155-2.581 0-7.736-2.581-10.31-2.581-5.155-2.581-7.736-2.581-12.891-5.155-2.581-2.581-7.736-2.581-10.31-5.155s-7.736-2.581-10.31-5.155c-5.155-2.581-7.736-2.581-12.891-5.155-2.581 0-5.155-2.581-7.736-2.581-5.155-2.581-7.736-5.155-12.891-7.736-2.581 0-2.581-2.581-5.155-2.581-5.155-2.581-7.736-5.155-12.891-7.736 0 0-2.581 0-2.581-2.581-5.155-2.581-7.736-5.155-12.891-7.736-2.581 0-2.581-2.581-5.155-2.581 0 0 0 0 0 0s0 0 0 0-2.581 0-2.581 0c0 0 0 0 0 0s0 0 0 0 0 0 0 0-2.581 2.581-2.581 2.581c0 0 0 0 0 2.581 0 0 0 0 0 0v634.082c0 5.155 5.155 10.31 10.31 10.31h167.542c5.155 0 10.31-5.155 10.31-10.31v-381.48c87.636 25.775 203.628 48.976 309.308 33.511 118.568-15.465 198.473-69.596 198.473-278.378v-381.48zM744.917 529.233c-2.581-2.581-5.155-5.155-7.736-5.155h-167.542c-2.581 0-7.736 2.581-7.736 5.155s-2.581 7.736 0 10.31c41.24 56.705 115.991 159.809 115.991 231.981 0 5.155 5.155 10.31 10.31 10.31h167.542c5.155 0 10.31-5.155 10.31-10.31-2.581-77.326-79.906-183.008-121.146-242.291z" />
<glyph unicode="&#xe949;" glyph-name="refresh" d="M880.24 631.047c-77.326 77.326-177.208 128.234-286.754 144.988-135.967 20.62-271.934-12.891-383.413-94.082-110.836-81.839-183.651-201.695-204.272-337.661-5.155-35.442 18.686-68.306 54.131-73.461 3.221-0.647 6.442-0.647 9.663-0.647 31.577 0 58.639 22.554 63.794 54.771 15.465 101.813 70.238 192.029 153.365 253.246s185.585 86.348 287.399 70.883c82.481-12.244 157.232-50.908 215.227-108.902l-144.988-144.988h386.635v386.635l-150.788-150.788zM971.099 261.811c-35.442 5.155-68.306-18.686-73.461-54.131-32.217-210.717-230.048-356.349-440.764-324.13-81.839 12.244-157.232 50.908-215.227 108.902l144.988 144.988h-386.635v-386.635l150.788 150.788c77.326-77.326 177.853-128.234 286.754-144.988 26.422-3.868 52.197-5.802 77.972-5.802 250.024 0 470.406 183.008 509.070 437.542 5.802 35.442-18.046 68.306-53.484 73.461z" />
<glyph unicode="&#xe94a;" glyph-name="pause" horiz-adv-x="967" d="M405.967-81.65c0-20.62-18.046-38.666-38.666-38.666h-128.878c-20.62 0-38.666 18.046-38.666 38.666v695.944c0 20.62 18.046 38.666 38.666 38.666h128.878c20.62 0 38.666-18.046 38.666-38.666v-695.944zM766.826-81.65c0-20.62-18.046-38.666-38.666-38.666h-128.878c-20.62 0-38.666 18.046-38.666 38.666v695.944c0 20.62 18.046 38.666 38.666 38.666h128.878c20.62 0 38.666-18.046 38.666-38.666v-695.944z" />
<glyph unicode="&#xe94b;" glyph-name="crown2" d="M888.456-56.277l136.128 526.993c2.214 8.456-7.049 15.305-14.498 10.47l-264.202-169.354c-10.47-6.642-24.368-3.828-31.416 6.442l-191.103 278.297c-3.828 5.636-12.084 5.636-15.908 0l-190.901-278.498c-7.049-10.27-20.94-13.091-31.416-6.442l-264.202 169.354c-7.449 4.634-16.712-2.014-14.498-10.47l136.128-526.993c2.821-11.077 12.891-18.926 24.368-18.926h697.353c11.277 0.2 21.347 8.056 24.166 19.133z" />
<glyph unicode="&#xe94c;" glyph-name="server2" d="M999.211 742.769h-967.394c-10.27 0-20.54-10.27-20.54-20.54v-205.198c0-10.27 10.27-20.54 20.54-20.54h967.194c10.27 0 20.54 10.27 20.54 20.54v205.198c0.2 10.27-10.070 20.54-20.34 20.54zM243.258 568.783c0-7.449-6.042-13.691-13.691-13.691h-101.693c-7.449 0-13.691 6.042-13.691 13.691v101.693c0 7.449 6.042 13.691 13.691 13.691h101.693c7.449 0 13.691-6.042 13.691-13.691v-101.693zM999.211 389.562h-967.394c-10.27 0-20.54-10.27-20.54-20.54v-205.4c0-10.27 10.27-20.54 20.54-20.54h967.194c10.27 0 20.54 10.27 20.54 20.54v205.4c0.2 10.27-10.070 20.54-20.34 20.54zM243.258 215.575c0-7.449-6.042-13.691-13.691-13.691h-101.693c-7.449 0-13.691 6.042-13.691 13.691v101.493c0 7.449 6.042 13.691 13.691 13.691h101.693c7.449 0 13.691-6.042 13.691-13.691v-101.493zM999.211 56.491h-967.394c-10.27 0-20.54-10.27-20.54-20.54v-205.198c0-10.27 10.27-20.54 20.54-20.54h967.194c10.27 0 20.54 10.27 20.54 20.54v205.198c0.2 10.27-10.070 20.54-20.34 20.54zM243.258-117.493c0-7.449-6.042-13.691-13.691-13.691h-101.693c-7.449 0-13.691 6.042-13.691 13.691v101.693c0 7.449 6.042 13.691 13.691 13.691h101.693c7.449 0 13.691-6.042 13.691-13.691v-101.693z" />
<glyph unicode="&#xe94e;" glyph-name="shuffle" d="M332.506 155.487c-51.55-82.481-100.526-134.034-170.119-134.034h-97.947c-36.085 0-64.441-28.356-64.441-64.441s28.356-64.441 64.441-64.441h95.371c105.681 0 180.43 56.705 239.714 134.034-23.201 43.821-46.395 87.636-67.015 128.878zM837.709 116.823c-18.046 15.465-48.976 2.581-48.976-23.201v-74.751h-23.201c-103.102 0-164.964 108.258-244.869 273.223-79.906 162.387-170.119 345.394-360.859 345.394h-95.371c-36.085 2.581-64.441-25.775-64.441-61.86s28.356-64.441 64.441-64.441h95.371c103.102 0 164.964-108.258 244.869-273.223 79.906-162.387 170.119-345.394 360.859-345.394h23.201v-74.751c0-25.775 28.356-38.666 48.976-23.201l193.318 162.387-193.318 159.809zM837.709 735.439c-18.046 15.465-48.976 2.581-48.976-23.201v-74.751h-23.201c-105.681 0-180.43-56.705-239.714-134.034 25.775-41.24 48.976-85.061 69.596-126.301 51.55 82.481 100.526 134.034 170.119 134.034h23.201v-74.751c0-25.775 28.356-38.666 48.976-23.201l193.318 162.387-193.318 159.809z" />
<glyph unicode="&#xe94f;" glyph-name="oauth" d="M515.512 781.835c-283.533 0-515.512-231.981-515.512-515.512s231.981-515.512 515.512-515.512 515.512 231.981 515.512 515.512-231.981 515.512-515.512 515.512zM721.719-14.634c-33.511-10.31-69.596 7.736-82.481 41.24l-36.085 113.413h-177.853l-36.085-113.413c-7.736-28.356-33.511-46.395-61.86-46.395-7.736 0-12.891 0-20.62 2.581-33.511 10.31-54.131 46.395-41.24 82.481l146.921 463.962c7.736 25.775 33.511 46.395 61.86 46.395h82.481c28.356 0 54.131-18.046 61.86-46.395l146.921-463.962c10.31-30.93-7.736-69.596-43.821-79.906z" />
<glyph unicode="&#xe950;" glyph-name="disks" d="M515.512 781.835c-242.291 0-438.186-69.596-438.186-154.654v-167.542c0-85.061 195.895-154.654 438.186-154.654s438.186 69.596 438.186 154.654v167.542c0 85.061-195.895 154.654-438.186 154.654zM515.512 730.284c234.559 0 360.859-72.17 360.859-103.102s-126.301-103.102-360.859-103.102c-234.559 0-360.859 72.17-360.859 103.102s126.301 103.102 360.859 103.102zM77.326-94.539c0-85.061 195.895-154.654 438.186-154.654s438.186 69.596 438.186 154.654v206.205c0-85.061-195.895-154.654-438.186-154.654s-438.186 69.596-438.186 154.654v-206.205zM77.326 176.107c0-85.061 195.895-154.654 438.186-154.654s438.186 69.596 438.186 154.654v206.205c0-85.061-195.895-154.654-438.186-154.654s-438.186 69.596-438.186 154.654v-206.205z" />
<glyph unicode="&#xe951;" glyph-name="authzero" d="M982.052 457.061c-69.596 242.291-108.258 324.774-108.258 324.774h-358.283l113.413-324.774h353.128zM48.976 457.061c-69.596-239.714 30.93-409.833 177.853-510.357 0 0 59.286 167.542 110.836 317.041l-288.688 193.318zM515.512 781.835h-358.283c0 0-38.666-82.481-110.836-324.774h353.128c56.705 154.654 115.991 324.774 115.991 324.774zM982.052 457.061l-286.11-193.318 110.836-317.041c144.344 103.102 244.869 270.645 175.274 510.357zM226.826-53.297c144.344-100.526 288.688-195.895 288.688-195.895s144.344 95.371 288.688 195.895l-288.688 195.895-288.688-195.895z" />
<glyph unicode="&#xe952;" glyph-name="annotate-plus" horiz-adv-x="839" d="M451.075 524.078c0 106.968-86.348 193.318-193.318 193.318s-193.318-86.348-193.318-193.318c0-84.414 53.484-155.943 128.878-182.363v-462.029l64.441-128.878 64.441 128.878v462.029c75.393 26.422 128.878 97.947 128.878 182.363zM811.934 330.761h-103.102v103.102c0 15.465-12.891 25.775-25.775 25.775h-77.326c-15.465 0-25.775-12.891-25.775-25.775v-103.102h-103.102c-15.465 0-25.775-12.891-25.775-25.775v-77.326c0-15.465 12.891-25.775 25.775-25.775h103.102v-103.102c0-15.465 12.891-25.775 25.775-25.775h77.326c15.465 0 25.775 12.891 25.775 25.775v103.102h103.102c15.465 0 25.775 12.891 25.775 25.775v77.326c0 12.891-12.891 25.775-25.775 25.775z" />
<glyph unicode="&#xe953;" glyph-name="annotate" horiz-adv-x="506" d="M447.853 524.078c0 106.968-86.348 193.318-193.318 193.318s-193.318-86.348-193.318-193.318c0-84.414 53.484-155.943 128.878-182.363v-462.029l64.441-128.878 64.441 128.878v462.029c75.393 26.422 128.878 97.947 128.878 182.363z" />
<glyph unicode="&#xe956;" glyph-name="eye-closed" d="M1023.292 281.787c-41.24 77.326-100.526 144.344-172.697 193.318l-128.878-128.878c7.736-23.201 12.891-48.976 12.891-77.326 0-121.146-97.947-219.094-219.094-219.094-28.356 0-54.131 5.155-77.326 12.891l-82.481-82.481c51.55-12.891 105.681-20.62 159.809-20.62 216.515 0 409.833 113.413 507.78 293.843l7.736 12.891-7.736 15.465zM180.43 60.115l128.878 128.878c-7.736 23.201-12.891 48.976-12.891 77.326 0 121.146 97.947 219.094 219.094 219.094 28.356 0 54.131-5.155 77.326-12.891l82.481 82.481c-51.55 12.891-105.681 20.62-159.809 20.62-219.094 0-412.411-113.413-507.78-293.843l-7.736-15.465 7.736-15.465c41.24-77.326 100.526-141.766 172.697-190.74zM128.878-158.98c-10.31 0-20.62 2.581-28.356 10.31-15.465 15.465-15.465 38.666 0 54.131l773.27 773.27c15.465 15.465 38.666 15.465 54.131 0s15.465-38.666 0-54.131l-773.27-773.27c-5.155-7.736-15.465-10.31-25.775-10.31z" />
<glyph unicode="&#xe957;" glyph-name="eye-open" d="M1023.292 281.787c-97.947 180.43-291.265 293.843-507.78 293.843-219.094 0-412.411-113.413-507.78-293.843l-7.736-15.465 7.736-15.465c97.947-180.43 291.265-293.843 507.78-293.843s409.833 113.413 507.78 293.843l7.736 15.465-7.736 15.465zM515.512 47.228c-121.146 0-219.094 97.947-219.094 219.094s97.947 219.094 219.094 219.094 219.094-97.947 219.094-219.094-97.947-219.094-219.094-219.094zM554.178 304.986c-25.775 25.775-25.775 67.015 0 90.216 25.775 25.775 67.015 25.775 90.216 0s25.775-67.015 0-90.216c-25.775-25.775-64.441-25.775-90.216 0z" />
<glyph unicode="&#xe958;" glyph-name="_snet--logo" d="M86.538 476.719c0.761-22.597 10.721-32.674 33.024-32.674 19.724 0 32.674 9.003 32.674 22.983 0 12.968-9.261 18.301-51.693 28.71-40.211 10.041-56.714 16.889-71.812 30.152-14.814 13.299-23.34 32.674-23.34 54.918 0 51.326 44.919 85.074 113.468 85.074 39.118 0 73.198-11.115 91.168-30.115 14.005-14.723 20.1-31.968 20.376-59.993 0 0-84.276 0-84.276 0-0.706 20.854-10.059 30.171-29.435 30.171-16.889 0-28.378-7.893-28.378-19.394 0-7.408 3.964-12.968 11.482-16.466 8.279-3.615 9.703-4.002 41.676-12.612 36.603-9.261 55.566-17.577 70.032-30.839 15.802-14.773 24.655-35.528 24.377-57.162 0-53.712-45.956-87.203-119.543-87.203-74.665 0-116.691 34.116-116.339 94.464 0 0 86.536-0.019 86.536-0.019M534.944 607.95c0 0 0-26.911 0-26.911 14.005 21.541 33.042 31.49 60.678 31.49 26.525 0 47.379-11.464 58.162-31.95 7.536-14.337 9.665-27.266 9.665-62.808 0 0 0-105.579 0-105.579s-72.83 0-72.83 0c0 0 0 108.207 0 108.207 0 26.893-6.855 38.376-23.377 38.376-10.779 0-19.761-7.169-23.689-19.024-2.148-7.168-3.204-17.595-3.204-36.952 0 0 0-90.462 0-90.462s-72.867 0-72.867 0c0 0 0 195.613 0 195.613s67.46 0 67.46 0M754.657 534.788c2.111 18.614 13.612 30.078 30.489 30.078 17.614 0 26.93-9.684 29.398-30.078 0 0-59.88 0-59.88 0M811.371 473.663c-5.351-12.593-14.024-18.338-26.599-18.338-19.023 0-29.82 13.262-30.489 37.32 0 0 137.842 0 137.842 0 0.368 3.965 0.368 7.911 0.368 9.003 0 69.995-39.508 111.986-105.91 111.986-66.030 0-109.523-40.211-109.523-101.577 0-65.367 40.936-105.579 107.708-105.579 54.585 0 93.372 24.782 104.467 67.18 0 0-77.869 0-77.869 0M1031.028 411.929c-16.852-3.185-25.096-4.296-37.044-4.296-50.937 0-71.422 20.136-71.422 69.995 0 0 0 77.553 0 77.553s-29.711 0-29.711 0c0 0 0 52.768 0 52.768s29.784 0 29.784 0c0 0 0 51.713 0 51.713s72.867 0 72.867 0c0 0 0-51.713 0-51.713s35.528 0 35.528 0c0 0 0-52.768 0-52.768s-35.528 0-35.528 0c0 0 0-54.547 0-54.547 0-26.562 5.389-34.472 23.34-34.472 4.129 0.059 8.23 0.684 12.189 1.854 0 0 0-56.087 0-56.087M356.316 590.91c0 0 0 112.986 0 112.986 0 29.894-23.077 39.769-50.307 40.751-20.688 0.706-26.654 0-26.654 0s0-3.075 0-3.075c30.171 0 37.045-22.321 37.045-45.396 0 0 0-112.226 0-112.226 0-21.818 14.814-47.882 52.862-59.678-38.045-11.818-52.862-37.897-52.862-59.697 0 0 0-112.207 0-112.207 0-23.097-6.93-45.415-37.045-45.415 0 0 0-3.056 0-3.056s5.966-0.706 26.654 0c27.229 0.89 50.307 10.759 50.307 40.751 0 0 0 112.634 0 112.634 0 32.583 24.69 56.659 59.012 66.847-34.32 10.188-59.012 34.263-59.012 66.791 0 0 0 0 0 0" />
<glyph unicode="&#xe959;" glyph-name="_snet--application" d="M175.152 7.338c0 0-163.081 0-163.081 0s405.532 1030.021 405.532 1030.021c0 0 163.279 0 163.279 0s-405.73-1030.021-405.73-1030.021M916.522 244.26c0 0-289.242 694.972-289.242 694.972s-77.791-205.135-77.791-205.135c0 0 130.308-313.132 130.308-313.132s-248.966 0-248.966 0c0 0-67.127-176.705-67.127-176.705s389.54 0 389.54 0c0 0 102.272-236.922 102.272-236.922s163.082 0 163.082 0c0 0-102.074 236.922-102.074 236.922" />
<glyph unicode="&#xe960;" glyph-name="_cloudsmarthub--logo" d="M886.899 335.136c0.080 2.572 0.080 5.060 0.080 7.548 0 15.1-1.364 30.44-4.016 45.86 0 0 0 0 0 0.080-2.892 16.624-7.308 32.848-13.172 48.428-33.572 88.666-112.439 153.318-205.843 168.658-14.536 2.408-29.152 3.616-43.529 3.616-81.599 0-156.932-36.22-207.851-99.668-10.2 1.444-20.64 2.168-30.92 2.168-86.016 0-164.401-50.84-199.739-129.545-5.784-12.932-10.28-26.344-13.492-39.996-11.888-1.848-23.772-4.9-35.5-9.156 0 0 0 0 0 0-72.282-26.504-120.952-95.894-120.952-172.834 0-53.328 23.212-104.005 63.688-139.022 33.492-28.992 76.136-44.896 120.228-44.896h633.832c39.596 0 77.503 12.608 109.468 36.381 16.704 12.448 31 27.145 42.404 43.852 0 0 0 0 0 0 20.96 30.68 32.044 66.5 32.044 103.684 0 79.912-51.56 150.347-126.735 174.842zM443.169 201.333c-8.756 13.332-23.772 22.088-40.88 22.088-13.092 0-24.976-5.22-33.812-13.572l-174.12 128.984c2.248 8.996 5.14 17.908 8.672 26.584l334.263 63.688c7.792-16.704 24.656-28.272 44.332-28.272 6.184 0 12.128 1.204 17.588 3.292l104.005-120.068c-4.416-6.504-7.388-14.216-8.272-22.408l-251.782-60.316zM767.634 299.074c-7.068 4.016-15.26 6.264-23.932 6.264-7.388 0-14.376-1.688-20.64-4.66l-102.961 118.864c3.292 4.176 5.944 8.916 7.712 14.056l220.62-13.652c3.212-9.556 5.864-19.436 7.952-29.476l-88.746-91.396zM837.506 446.61l-207.931 12.852c-2.168 10.761-7.872 20.16-15.82 27.145l54.692 91.879c73.808-14.94 136.612-64.171 169.060-131.875zM381.729 485.803c11.404 0 22.888-1.044 34.132-3.052 4.82-0.884 9.636 1.044 12.608 4.9 50.036 66.097 128.26 101.836 212.108 94.769l-50.276-84.489c-2.812 0.48-5.784 0.804-8.756 0.804-25.38 0-46.26-19.356-48.669-44.092l-314.989-59.994c34.936 56.060 96.777 91.156 163.84 91.156zM37.908 160.293c0 58.068 32.285 111.153 82.32 138.54l-39.112-212.991-5.14-28.108c-24.416 28.432-38.068 64.732-38.068 102.56zM98.304 36.209l8.836 48.108 41.684 226.724c10.28 3.212 20.64 5.38 30.84 6.504l175.404-129.948c-1.124-4.176-1.768-8.512-1.768-13.012 0-16.144 7.872-30.52 19.998-39.433l-15.74-76.056-11.724-56.861h-149.864c-35.419 0-69.792 12.048-97.66 33.972zM829.716 2.237h-457.464l25.54 123.522c1.444-0.16 2.892-0.24 4.416-0.24 17.908 0 33.572 9.636 42.084 24.012l455.537-130.831c-21.684-10.844-45.536-16.464-70.112-16.464zM928.822 37.334l-477.623 137.256c0 0.724-0.080 1.364-0.080 2.088l248.168 59.272c7.792-16.784 24.736-28.432 44.412-28.432 12.448 0 23.772 4.66 32.368 12.288l177.412-157.736c-7.228-8.996-15.5-17.268-24.656-24.736zM968.015 83.835l-177.652 157.896c1.444 4.66 2.248 9.556 2.248 14.696 0 8.916-2.408 17.268-6.584 24.416l74.612 76.86c0.32-5.060 0.48-10.12 0.48-15.1 0-5.46-0.24-10.844-0.564-16.224-0.4-6.184 3.616-11.807 9.636-13.412 69.23-18.312 117.579-81.116 117.579-152.836 0-26.824-6.828-53.008-19.756-76.297z" />
<glyph unicode="&#xe961;" glyph-name="reset-layout" d="M420.020 781.562h-387.957c-19.238 0-32.062-12.826-32.062-32.062v-387.957c0-19.238 12.826-32.062 32.062-32.062h387.957c19.238 0 32.062 12.826 32.062 32.062v387.957c0 19.238-16.032 32.062-32.062 32.062zM420.020 201.229h-387.957c-19.238 0-32.062-12.826-32.062-32.062v-387.957c0-19.238 12.826-32.062 32.062-32.062h387.957c19.238 0 32.062 12.826 32.062 32.062v387.957c0 19.238-16.032 32.062-32.062 32.062zM1000.353 778.356h-387.957c-19.238 0-32.062-12.826-32.062-32.062v-387.957c0-19.238 12.826-32.062 32.062-32.062h387.957c19.238 0 32.062 12.826 32.062 32.062v387.957c0 19.238-16.032 32.062-32.062 32.062zM965.084 127.485c-32.062 32.062-76.95 54.506-121.838 60.918-57.712 9.618-115.426-6.412-163.52-41.682s-80.156-86.569-86.569-144.282c-3.206-16.032 9.618-28.856 22.444-32.062h3.206c12.826 0 25.65 9.618 28.856 22.444 6.412 44.888 28.856 83.362 67.332 109.012 35.268 25.65 80.156 38.476 121.838 28.856 35.268-6.412 67.332-22.444 92.982-48.094l-64.126-54.506h166.726v166.726l-67.332-67.332zM1006.765-29.621c-16.032 3.206-28.856-9.618-32.062-22.444-12.826-89.776-99.394-153.9-189.17-137.87-35.268 6.412-67.332 22.444-92.982 48.094l60.918 60.918h-166.726v-166.726l64.126 64.126c32.062-32.062 76.95-54.506 121.838-60.918 12.826-3.206 22.444-3.206 32.062-3.206 105.806 0 201.994 76.95 218.026 189.17 6.412 12.826-3.206 25.65-16.032 28.856z" />
<glyph unicode="&#xe962;" glyph-name="auth0" d="M782.087-27.225l-102.942 316.723 269.83 195.775c66.295-203.352 0-391.549-166.818-512.497zM948.942 485.28l-103.012 316.723h-333.491l102.646-316.723h333.856zM512.471 802h-333.491l-102.609-316.723h333.089l103.012 316.723zM75.932 485.28c-66.076-203.352 0-391.549 166.856-512.497l102.571 316.723-269.389 195.775zM242.787-27.225l269.684-195.775 269.646 195.775-269.646 195.775-269.646-195.775z" />
<glyph unicode="&#xe963;" glyph-name="bash" horiz-adv-x="1483" d="M1414.605 800h-1345.883c-37.954 0-68.722-30.768-68.722-68.722v0-886.556c0-37.954 30.768-68.722 68.722-68.722h1345.883c37.954 0 68.722 30.768 68.722 68.722v0 886.556c0 37.954-30.768 68.722-68.722 68.722v0zM229.869-108.942h-0.412l-76.212 76.212h-0.412l337.932 338.919-338.261 338.096h-0.412l76.623 76.623 415.624-415.46zM1243.417-96.103h-586.154v108.309h586.154z" />
</font>
</defs>
</svg>
